SplineFontDB: 3.0
FontName: BackOut
FullName: BackOut
FamilyName: BackOut
Weight: Medium
Copyright: Created by Frank ADEBIAYE with FontForge 2.0 (http://fontforge.sf.net)
UComments: "2012-5-1: Created." 
Version: 001.000
ItalicAngle: 0
UnderlinePosition: -100
UnderlineWidth: 50
Ascent: 800
Descent: 200
LayerCount: 2
Layer: 0 0 "Back"  1
Layer: 1 0 "Fore"  0
XUID: [1021 32 261939104 16001093]
FSType: 0
OS2Version: 0
OS2_WeightWidthSlopeOnly: 0
OS2_UseTypoMetrics: 1
CreationTime: 1335868678
ModificationTime: 1335881878
PfmFamily: 17
TTFWeight: 500
TTFWidth: 5
LineGap: 0
VLineGap: 90
OS2TypoAscent: 0
OS2TypoAOffset: 1
OS2TypoDescent: 0
OS2TypoDOffset: 1
OS2TypoLinegap: 0
OS2WinAscent: 0
OS2WinAOffset: 1
OS2WinDescent: 0
OS2WinDOffset: 1
HheadAscent: -300
HheadAOffset: 1
HheadDescent: 0
HheadDOffset: 1
OS2Vendor: 'PfEd'
Lookup: 258 0 0 "'kern' Horizontal Kerning in Latin lookup 0"  {"'kern' Horizontal Kerning in Latin lookup 0-1" [150,15,0] } ['kern' ('DFLT' <'dflt' > 'latn' <'dflt' > ) ]
MarkAttachClasses: 1
DEI: 91125

StartChar: slash
Encoding: 47 47 0
Width: 288
VWidth: 0
Flags: W
HStem: 0 21G<20.9004 99.7453> 0 21G<20.9004 99.7453> 410.904 20G<210.996 267.1>
VStem: 20.9004 246.199
LayerCount: 2
Fore
SplineSet
219.212 430.904 m 5xb0
 267.1 430.904 l 5
 91.5996 0 l 5
 20.9004 0 l 5
 94.4004 127.092 l 5
 219.212 430.904 l 5xb0
219.212 430.904 m 4
EndSplineSet
Validated: 1
EndChar

StartChar: A
Encoding: 65 65 1
Width: 486
VWidth: 0
Flags: W
HStem: 0 21G<20.75 99.5902 409.148 465.25> 0 21G<20.75 99.5902 409.148 465.25> 145.2 42.2041<167.75 340.358> 410.904 20G<210.831 297.896>
LayerCount: 2
Fore
SplineSet
219.047 430.904 m 5xb0
 289.75 430.904 l 5
 465.25 0 l 5
 417.358 0 l 5
 357.75 145.2 l 5
 150.547 145.2 l 5
 91.4502 0 l 5
 20.75 0 l 5
 94.25 127.108 l 5
 219.047 430.904 l 5xb0
247.154 382.312 m 5
 167.75 187.404 l 5
 340.358 187.404 l 5
 292.547 303.812 l 5
 247.154 382.312 l 5
247.154 382.312 m 4
EndSplineSet
Validated: 1
EndChar

StartChar: B
Encoding: 66 66 2
Width: 228
VWidth: 0
Flags: W
HStem: 0 37.8125<72.2607 144.917> 193.904 38.7041<72.2607 136.057> 393.5 39.6562<72.2607 133.924>
VStem: 32.5566 39.7041<39.6138 193.904 232.608 393.5>
LayerCount: 2
Fore
SplineSet
21.1689 433.156 m 1
 107.541 433.156 l 2
 209.621 432.141 222.949 277.372 163.152 217.108 c 1
 231.341 165.765 222.152 1.04395 118.152 0 c 2
 21.1689 0 l 1
 32.5566 102.812 l 1
 32.5566 331 l 1
 21.1689 433.156 l 1
72.2607 393.5 m 1
 72.2607 232.608 l 1
 121.761 232.608 l 1
 140.197 251.28 152.761 280.076 152.761 312.904 c 0
 152.761 345.889 140.244 374.86 121.669 393.5 c 1
 72.2607 393.5 l 1
131.965 194.108 m 1
 72.2607 193.904 l 1
 72.2607 37.8125 l 1
 131.853 37.8125 l 1
 149.917 55.9199 162.057 84.0605 162.057 116.108 c 0
 162.057 148 149.885 175.968 131.965 194.108 c 1
131.965 194.108 m 0
EndSplineSet
Validated: 33
EndChar

StartChar: C
Encoding: 67 67 3
Width: 258
VWidth: 0
Flags: W
HStem: -2.2002 45.7002<134.236 231.921> 388.112 44.0918<129.985 231.921>
LayerCount: 2
Fore
SplineSet
182.64 432.204 m 6
 236.812 431.612 l 5
 231.921 388.112 l 5
 147.327 388.112 l 5
 105.704 348.628 78.7314 286.3 78.7314 216.112 c 4
 78.7314 145.532 105.921 82.9238 147.937 43.5 c 5
 231.921 43.5 l 5
 236.812 0 l 5
 182.64 -2.2002 l 5
 -43.0322 0.0478516 -21.9678 432.16 182.64 432.204 c 6
182.64 432.204 m 4
EndSplineSet
Validated: 33
EndChar

StartChar: D
Encoding: 68 68 4
Width: 287
VWidth: 0
Flags: W
HStem: -2.2002 45.7002<74.3232 153.132> 388.112 44.0918<74.3232 157.385>
VStem: 32.2275 42.0957<43.5 388.112>
LayerCount: 2
Fore
SplineSet
104.731 432.204 m 6
 309.339 432.16 330.388 0.0478516 104.731 -2.2002 c 5
 20.8232 0 l 5
 32.2275 101.704 l 5
 32.2275 329.908 l 5
 20.8232 431.612 l 5
 104.731 432.204 l 6
74.3232 388.112 m 5
 74.3232 43.5 l 5
 139.432 43.5 l 5
 181.432 82.9238 208.62 145.532 208.62 216.112 c 4
 208.62 286.3 181.651 348.628 140.027 388.112 c 5
 74.3232 388.112 l 5
74.3232 388.112 m 4
EndSplineSet
Validated: 33
EndChar

StartChar: E
Encoding: 69 69 5
Width: 185
VWidth: 0
Flags: W
HStem: 0 43.5<74.75 163.75> 188.404 54.7031<107.114 163.654> 188.5 43.6074<74.75 131.386> 388.107 43.5<74.75 163.75>
VStem: 21.25 142.5<0 43.5 388.107 431.607> 32.6543 42.0957<43.5 188.5 232.107 388.107>
LayerCount: 2
Fore
SplineSet
21.25 431.607 m 5xb8
 163.75 431.607 l 5
 163.75 388.107 l 5xb8
 74.75 388.107 l 5
 74.75 232.107 l 5xb4
 163.75 243.107 l 5
 163.654 188.404 l 5xd8
 74.75 188.5 l 5
 74.75 43.5 l 5xb4
 163.75 43.5 l 5
 163.75 0 l 5
 21.25 0 l 5xb8
 32.6543 101.699 l 5
 32.6543 329.904 l 5xb4
 21.25 431.607 l 5xb8
21.25 431.607 m 4
EndSplineSet
Validated: 1
EndChar

StartChar: F
Encoding: 70 70 6
Width: 184
VWidth: 0
Flags: W
HStem: 0 21G<22.9983 74.2578> 0 21G<22.9983 74.2578> 188.404 54.7031<106.606 163.15> 188.5 43.6074<74.2578 130.879> 388.107 43.5<74.2422 163.242>
VStem: 20.7578 53.5<0.0761719 62.4876> 32.1504 42.1074<39.2116 188.5 232.107 388.107>
LayerCount: 2
Fore
SplineSet
20.7578 431.607 m 5x5c
 163.242 431.607 l 5
 163.242 388.107 l 5
 74.2422 388.107 l 5
 74.2422 232.107 l 5x5c
 163.242 243.107 l 5
 163.15 188.404 l 5x2c
 74.2578 188.5 l 5x1a
 74.2578 0.0761719 l 5
 20.7578 0 l 5x5c
 32.1504 101.699 l 5
 32.1504 329.904 l 5x5a
 20.7578 431.607 l 5x5c
20.7578 431.607 m 4
EndSplineSet
Validated: 1
EndChar

StartChar: G
Encoding: 71 71 7
Width: 300
VWidth: 0
Flags: W
HStem: 0 45.7002<134.297 228.502> 186.108 54.5918<126.701 183.647> 186.108 42.0918<171.444 228.594> 390.312 44.0918<130.047 273.857>
VStem: 228.502 42.0918<45.7002 186.108>
LayerCount: 2
Fore
SplineSet
182.701 434.404 m 6xb8
 278.75 433.812 l 5
 273.857 390.312 l 5
 147.39 390.312 l 5
 105.766 350.828 78.7979 288.5 78.7979 218.312 c 4
 78.7979 147.732 105.986 85.124 148.002 45.7002 c 5
 228.502 45.7002 l 5
 228.594 186.108 l 5xb8
 126.701 186.108 l 5
 126.701 240.7 l 5xd8
 228.39 228.2 l 5
 270.701 228.2 l 5
 270.594 57.8125 l 5
 277.701 0 l 5
 182.701 0 l 6
 -42.9707 2.24805 -21.9062 434.36 182.701 434.404 c 6xb8
182.701 434.404 m 4
EndSplineSet
Validated: 33
EndChar

StartChar: H
Encoding: 72 72 8
Width: 232
VWidth: 0
Flags: W
HStem: 0 21G<21 74.2143 157 211> 0 21G<21 74.2143 157 211> 179.607 41.7051<74.3926 157.204> 411.607 20G<21 74.1239 157.296 211>
VStem: 21 53.0957<0 62.402 369.203 431.607> 32.4082 41.9844<39.2972 179.607 221.312 392.309> 157.296 53.7041<0 62.4234 369.182 431.607> 157.296 42.2998<39.2759 179.607 221.312 392.33>
LayerCount: 2
Fore
SplineSet
21 431.607 m 5xb8
 74.0957 431.607 l 5xb8
 74.3926 221.312 l 5
 157.296 221.312 l 5xb5
 157.296 431.607 l 5
 211 431.607 l 5xb2
 199.596 329.904 l 5
 199.596 101.699 l 5xb1
 211 0 l 5
 157 0 l 5
 157.204 179.607 l 5
 74.2959 179.607 l 5
 74.2041 0 l 5
 21 0 l 5xba
 32.4082 101.699 l 5
 32.4082 329.904 l 5xb4
 21 431.607 l 5xb8
21 431.607 m 4
EndSplineSet
Validated: 1
EndChar

StartChar: I
Encoding: 73 73 9
Width: 107
VWidth: 0
Flags: W
HStem: 0 21G<21.1953 85.8047> 0 21G<21.1953 85.8047> 404.576 53.1875<28.2246 76.2246>
VStem: 28.2246 48<404.576 457.764> 32.5996 41.7969<39.2987 348.668>
LayerCount: 2
Fore
SplineSet
21.6318 457.764 m 5x30
 76.2246 457.764 l 5
 76.2246 404.576 l 5
 28.2246 404.576 l 5
 21.6318 457.764 l 5x30
21.6318 457.764 m 4
21.1953 387.967 m 5
 85.8047 387.967 l 5
 74.3965 286.264 l 5
 74.3965 101.703 l 5
 85.8047 0 l 5
 21.1953 0 l 5
 32.5996 101.703 l 5
 32.5996 286.264 l 5xa8
 21.1953 387.967 l 5
21.1953 387.967 m 4
EndSplineSet
Validated: 1
EndChar

StartChar: J
Encoding: 74 74 10
Width: 218
VWidth: 0
Flags: W
HStem: 0 43.5<75.6084 143.608> 411.607 20G<143.608 197>
VStem: 33.6084 42<43.5 228.268> 143.608 42<43.5 392.4>
LayerCount: 2
Fore
SplineSet
143.608 431.607 m 5
 197 431.607 l 5
 185.608 329.904 l 5
 185.608 0 l 5
 33.6084 0 l 5
 33.6084 171.812 l 5
 21 273.5 l 5
 75.7002 273.404 l 5
 75.6084 43.5 l 5
 143.608 43.5 l 5
 143.608 431.607 l 5
143.608 431.607 m 4
EndSplineSet
Validated: 1
EndChar

StartChar: K
Encoding: 75 75 11
Width: 265
VWidth: 0
Flags: W
HStem: 0 21G<20.9785 85.5703 165.17 244.021> 0 21G<20.9785 85.5703 165.17 244.021> 411.607 19.2969G<20.9785 85.5703 165.174 244.021>
VStem: 32.3662 41.7998<39.2759 392.33>
LayerCount: 2
Fore
SplineSet
20.9785 431.607 m 5xb0
 85.5703 431.607 l 5
 74.166 329.904 l 5
 74.166 101.699 l 5
 85.5703 0 l 5
 20.9785 0 l 5
 32.3662 101.699 l 5
 32.3662 329.904 l 5
 20.9785 431.607 l 5xb0
20.9785 431.607 m 4
244.021 430.904 m 5
 170.521 303.812 l 5
 134.21 215.404 l 5
 170.521 127.107 l 5
 244.021 0 l 5
 173.322 0 l 5
 85.5215 215.404 l 5
 173.322 430.904 l 5
 244.021 430.904 l 5
244.021 430.904 m 4
EndSplineSet
Validated: 1
EndChar

StartChar: L
Encoding: 76 76 12
Width: 213
VWidth: 0
Flags: W
HStem: 0 42<72.6016 189.898> 411 20G<23.1016 65.1934>
VStem: 23.3984 41.7949<45.3008 431>
LayerCount: 2
Fore
SplineSet
23.1016 431 m 5
 65.1934 431 l 5
 65.1934 101.904 l 5
 72.6016 42 l 5
 189.898 42 l 5
 189.898 0 l 5
 23.3984 0 l 5
 23.1016 431 l 5
23.1016 431 m 4
EndSplineSet
Validated: 1
EndChar

StartChar: M
Encoding: 77 77 13
Width: 346
VWidth: 0
Flags: W
HStem: 0 20.4844G<21 74.0918 271.932 325> 0 20.4844G<21 74.0918 271.932 325> 411.5 20G<271.888 325>
VStem: 21 53.0918<0 62.5144 429.199 432> 32.3877 41.7041<39.1849 311.5> 271.936 53.0645<-0.392578 62.013 428.699 431.5> 271.936 41.6562<38.9069 311.107>
LayerCount: 2
Fore
SplineSet
21 432 m 5xb0
 74.0918 432 l 5
 74.0918 429.199 l 5
 173.092 188.199 l 5
 271.888 428.699 l 5
 271.888 431.5 l 5
 325 431.5 l 5xb4
 313.592 329.812 l 5
 313.592 101.312 l 5xa2
 325 -0.392578 l 5xa4
 271.936 -0.515625 l 5
 271.888 311.107 l 5
 197.592 128.607 l 5
 148.592 128.607 l 5
 74.0918 311.5 l 5xaa
 74.0918 0 l 5
 21 0 l 5xb0
 32.3877 101.699 l 5
 32.3877 330.312 l 5xa8
 21 432 l 5xb0
21 432 m 4
EndSplineSet
Validated: 1
EndChar

StartChar: N
Encoding: 78 78 14
Width: 293
VWidth: 0
Flags: W
HStem: -0.591797 21G<21.0479 74.1562 193.107 271.952> -0.591797 21G<21.0479 74.1562 193.107 271.952> 411.908 20G<21.0479 82.2959>
VStem: 32.4521 41.7041<39.2777 311.5> 218.252 41.7002<92.2959 392.792>
LayerCount: 2
Fore
SplineSet
218.252 432 m 5xb8
 271.344 432 l 5
 259.952 330.296 l 5
 259.952 101.704 l 5
 271.952 -0.591797 l 5
 201.252 -0.591797 l 5
 74.1562 311.5 l 5
 74.1562 0 l 5
 21.0479 0 l 5
 32.4521 101.704 l 5
 32.4521 330.204 l 5
 21.0479 431.908 l 5
 74.1562 431.908 l 5
 198.452 126.5 l 5
 218.252 92.2959 l 5
 218.252 432 l 5xb8
218.252 432 m 4
EndSplineSet
Validated: 1
EndChar

StartChar: O
Encoding: 79 79 15
Width: 391
VWidth: 0
Flags: W
HStem: 0 45.7041<134.131 256.877> 390.296 44.1123<129.881 261.127>
LayerCount: 2
Fore
SplineSet
182.535 434.408 m 6
 208.477 434.408 l 6
 413.068 434.36 434.131 2.23633 208.477 0 c 6
 182.535 0 l 6
 -43.1367 2.23633 -22.0723 434.36 182.535 434.408 c 6
243.771 390.296 m 5
 147.24 390.296 l 5
 105.6 350.828 78.6309 288.5 78.6309 218.296 c 4
 78.6309 147.736 105.82 85.1123 147.836 45.7041 c 5
 243.164 45.7041 l 5
 285.176 85.1123 312.363 147.736 312.363 218.296 c 4
 312.363 288.5 285.396 350.828 243.771 390.296 c 5
243.771 390.296 m 4
EndSplineSet
Validated: 33
EndChar

StartChar: P
Encoding: 80 80 16
Width: 265
VWidth: 0
Flags: W
HStem: 0 21G<20.9209 85.5127> 0 21G<20.9209 85.5127> 93.8125 46.2959<74.8252 154.981> 386.608 45<80.5127 158.232>
VStem: 32.3252 42.0479<140.108 386.608>
LayerCount: 2
Fore
SplineSet
20.9209 431.608 m 5xb8
 116.921 431.608 l 6
 278.809 431.561 293.921 95.5605 117.013 93.8125 c 6
 116.717 93.8125 l 5
 74.8252 95.6084 l 5
 85.5127 0 l 5
 20.9209 0 l 5
 32.3252 101.7 l 5
 32.3252 329.904 l 5
 20.9209 431.608 l 5xb8
80.5127 386.608 m 5
 74.373 329.904 l 5
 74.373 140.108 l 5
 140.325 140.108 l 5
 169.577 168.469 188.825 213.124 188.825 263.608 c 4
 188.825 313.812 169.717 358.2 140.717 386.608 c 5
 80.5127 386.608 l 5
80.5127 386.608 m 4
EndSplineSet
Validated: 33
EndChar

StartChar: R
Encoding: 82 82 17
Width: 270
VWidth: 0
Flags: W
HStem: 0.203125 21G<21 74.1074 170.172 249> 0.203125 21G<21 74.1074 170.172 249> 199.096 37.6992<74.1074 97.4082> 393.096 38.9043<74.1074 148.742>
VStem: 32.4082 41.6992<39.2987 199.096 236.795 392.701>
LayerCount: 2
Fore
SplineSet
21 432 m 5xb8
 123.908 432 l 6
 238.859 430.859 238.08 228.393 144.908 201.703 c 5
 175.5 127.295 l 5
 249 0.203125 l 5
 178.312 0.203125 l 5
 97.4082 199 l 5
 74.1074 199.096 l 5
 74.1074 0 l 5
 21 0 l 5
 32.4082 101.703 l 5
 32.4082 330.295 l 5
 21 432 l 5xb8
74.1074 393.096 m 5
 74.1074 236.795 l 5
 137.812 236.795 l 5
 155.752 254.939 167.812 282.893 167.812 314.795 c 4
 167.812 346.844 155.656 374.984 137.607 393.096 c 5
 74.1074 393.096 l 5
74.1074 393.096 m 4
EndSplineSet
Validated: 33
EndChar

StartChar: S
Encoding: 83 83 18
Width: 250
VWidth: 0
Flags: W
HStem: 0 41.5957<34.9453 163.359> 193.408 43.2959<86.1567 165.14> 392.204 42.7041<87.9743 198.918>
LayerCount: 2
Fore
SplineSet
113.773 434.908 m 6
 203.729 434.5 l 5
 198.918 392.204 l 5
 100.478 392.204 l 5
 82.8848 374.08 70.9775 346.22 70.9775 314.5 c 4
 70.9775 282.564 82.917 254.796 100.682 236.704 c 5
 138.165 236.704 l 6
 263.745 235.456 254.369 -0.360352 138.073 -0.404297 c 6
 30.1494 0 l 5
 34.9453 41.5957 l 5
 151.073 41.5957 l 5
 168.289 59.3438 179.977 86.5322 179.977 117.596 c 4
 179.977 148.812 168.305 175.688 150.977 193.408 c 5
 113.682 193.408 l 6
 -14.459 194.672 -4.88281 434.86 113.773 434.908 c 6
113.773 434.908 m 4
EndSplineSet
Validated: 33
EndChar

StartChar: T
Encoding: 84 84 19
Width: 321
VWidth: 0
Flags: W
HStem: 0 21G<133.15 175.242> 0 21G<133.15 175.242> 389 42<66.2299 133.15 182.65 299.945>
LayerCount: 2
Fore
SplineSet
21.0547 431 m 5xa0
 299.945 431 l 5
 299.945 389 l 5
 182.65 389 l 5
 175.242 329.109 l 5
 175.242 0 l 5
 133.15 0 l 5
 133.15 389 l 5
 122.742 389 l 5
 21.0547 376.404 l 5
 21.0547 431 l 5xa0
21.0547 431 m 4
EndSplineSet
Validated: 1
EndChar

StartChar: U
Encoding: 85 85 20
Width: 218
VWidth: 0
Flags: W
HStem: 0 43.5<74.4434 142.4> 411.608 20G<20.9766 74.4434 142.4 197.023>
VStem: 32.4004 42.043<43.5 392.218> 142.4 42.0586<43.5 386.56>
LayerCount: 2
Fore
SplineSet
20.9766 431.608 m 5
 74.4434 431.608 l 5
 74.4434 43.5 l 5
 142.4 43.5 l 5
 142.4 431.608 l 5
 197.023 431.608 l 5
 184.459 329.889 l 5
 184.459 0 l 5
 32.4004 0 l 5
 32.4004 329.889 l 5
 20.9766 431.608 l 5
20.9766 431.608 m 4
EndSplineSet
Validated: 1
EndChar

StartChar: Q
Encoding: 81 81 21
Width: 279
VWidth: 0
Flags: W
HStem: 0 43.5<74.4141 130.21 180.006 182.71> 388.098 43.5<74.3984 182.71>
VStem: 32.3057 42.1084<43.5 388.098> 182.71 42.0957<43.5 388.098>
LayerCount: 2
Fore
SplineSet
20.8984 431.598 m 5
 236.21 431.598 l 5
 224.806 329.908 l 5
 224.806 101.705 l 5
 236.21 0 l 5
 180.006 0 l 5
 184.602 -11.2031 l 5
 258.102 -138.295 l 5
 187.398 -138.295 l 5
 130.21 0 l 5
 20.8984 0 l 5
 32.3057 101.705 l 5
 32.3057 329.908 l 5
 20.8984 431.598 l 5
74.3984 388.098 m 5
 74.4141 43.5 l 5
 128.806 43.5 l 5
 162.102 43.7051 l 5
 162.21 43.5 l 5
 182.71 43.5 l 5
 182.71 388.098 l 5
 74.3984 388.098 l 5
74.3984 388.098 m 4
EndSplineSet
Validated: 1
EndChar

StartChar: V
Encoding: 86 86 22
Width: 486
VWidth: 0
Flags: W
HStem: 0 21G<210.846 297.896> 0 21G<210.846 297.896> 410.904 20G<20.75 99.5998 409.145 465.25>
LayerCount: 2
Fore
SplineSet
219.062 0 m 5xa0
 94.25 303.812 l 5
 20.75 430.904 l 5
 91.4541 430.904 l 5
 247.158 48.6084 l 5
 292.562 127.108 l 5
 417.361 430.904 l 5
 465.25 430.904 l 5
 289.75 0 l 5
 219.062 0 l 5xa0
219.062 0 m 4
EndSplineSet
Validated: 1
EndChar

StartChar: W
Encoding: 87 87 23
Width: 674
VWidth: 0
Flags: W
HStem: 0 21G<211.083 298.136 398.578 485.646> 0 21G<211.083 298.136 398.578 485.646> 410.904 20G<21 99.848 208.391 287.332 409.381 465.5 596.88 653>
LayerCount: 2
Fore
SplineSet
21 430.904 m 5xa0
 91.7031 430.904 l 5
 247.391 48.6084 l 5
 292.799 127.108 l 5
 323.703 202.312 l 5
 282 303.812 l 5
 208.391 430.904 l 5
 279.188 430.904 l 5
 348.096 261.7 l 5
 417.596 430.904 l 5
 465.5 430.904 l 5
 372.299 202.108 l 5
 434.799 48.6084 l 5
 480.299 127.108 l 5
 605.096 430.904 l 5
 653 430.904 l 5
 477.5 0 l 5
 406.799 0 l 5
 348.096 142.812 l 5
 290 0 l 5
 219.299 0 l 5
 94.5 303.812 l 5
 21 430.904 l 5xa0
21 430.904 m 4
EndSplineSet
Validated: 1
EndChar

StartChar: X
Encoding: 88 88 24
Width: 288
VWidth: 0
Flags: W
HStem: 0 21G<20.8984 99.7426 210.976 267.102> 0 21G<20.8984 99.7426 210.976 267.102> 410.904 20G<20.8984 99.7426 210.976 267.102>
VStem: 20.8984 246.203
LayerCount: 2
Fore
SplineSet
20.8984 430.904 m 5xb0
 91.6016 430.904 l 5
 155.102 274.904 l 5
 219.193 430.904 l 5
 267.102 430.904 l 5
 179.398 215.404 l 5
 267.102 0 l 5
 219.193 0 l 5
 155.102 156 l 5
 91.6016 0 l 5
 20.8984 0 l 5
 94.3984 127.108 l 5
 130.693 215.404 l 5
 94.3984 303.812 l 5
 20.8984 430.904 l 5xb0
20.8984 430.904 m 4
EndSplineSet
Validated: 1
EndChar

StartChar: Y
Encoding: 89 89 25
Width: 288
VWidth: 0
Flags: W
HStem: 0 21G<20.8984 99.7472> 0 21G<20.8984 99.7472> 410.904 20G<20.8984 99.7426 210.976 267.102>
VStem: 20.8984 246.203
LayerCount: 2
Fore
SplineSet
20.8984 430.904 m 5xb0
 91.6016 430.904 l 5
 155.102 274.904 l 5
 219.193 430.904 l 5
 267.102 430.904 l 5
 91.6016 0 l 5
 20.8984 0 l 5
 94.3984 127.108 l 5
 130.693 215.404 l 5
 94.3984 303.812 l 5
 20.8984 430.904 l 5xb0
20.8984 430.904 m 4
EndSplineSet
Validated: 1
EndChar

StartChar: Z
Encoding: 90 90 26
Width: 297
VWidth: 0
Flags: W
HStem: 0 42<115.836 275.867> 388.812 42.0918<21.1328 209.041>
VStem: 21.1328 253.107
LayerCount: 2
Fore
SplineSet
21.1328 430.904 m 5
 274.24 430.904 l 5
 115.836 42 l 5
 275.867 42 l 5
 275.867 0 l 5
 28.041 0 l 5
 101.541 127.108 l 5
 209.041 388.812 l 5
 21.1328 388.812 l 5
 21.1328 430.904 l 5
21.1328 430.904 m 4
EndSplineSet
Validated: 1
EndChar

StartChar: a
Encoding: 97 97 27
Width: 395
VWidth: 0
Flags: W
HStem: 0 21G<21.1484 96.7833 316.847 373.852> 0 21G<21.1484 96.7833 316.847 373.852> 108.903 43.6885<150.744 262.352> 315.199 20G<168.032 245.496> 315.199 20G<168.032 245.496>
LayerCount: 2
Fore
SplineSet
176.244 335.199 m 5xb0
 237.352 335.199 l 5
 373.852 0 l 5
 325.057 0 l 5
 280.352 108.903 l 5
 132.944 108.903 l 5
 88.6484 0 l 5
 21.1484 0 l 5
 81.1484 103.592 l 5
 176.244 335.199 l 5xb0
202.352 279.092 m 5
 150.744 152.592 l 5
 262.352 152.592 l 5
 229.852 231.592 l 5
 202.352 279.092 l 5
202.352 279.092 m 4
EndSplineSet
Validated: 1
EndChar

StartChar: b
Encoding: 98 98 28
Width: 194
VWidth: 0
Flags: W
HStem: 0 40.4033<72.0156 119.433> 145.5 41<72.0156 113.396> 295.199 41.7041<72.0156 113.372>
VStem: 30.3115 41.7041<40.4033 145.5 186.5 295.199>
LayerCount: 2
Fore
SplineSet
21.0156 336.903 m 5
 92.6074 336.903 l 6
 128.231 336.016 157.328 306.155 164.812 267.592 c 4
 171.188 233.247 163.688 194.371 142.5 169.403 c 5
 167.031 147.172 176.716 107.855 171.704 72.5 c 4
 165.968 34.5439 144.296 3.65527 100.5 0 c 6
 21.0156 0 l 5
 30.3115 83.7959 l 5
 30.3115 253.592 l 5
 21.0156 336.903 l 5
72.0156 295.199 m 5
 72.0156 186.5 l 5
 100.312 186.5 l 5
 112.124 199.327 120.42 218.56 120.42 240.699 c 4
 120.42 263 112.107 282.403 100.216 295.199 c 5
 72.0156 295.199 l 5
107.92 145.592 m 5
 72.0156 145.5 l 5
 72.0156 40.4033 l 5
 107.92 40.4033 l 5
 119.388 52.7959 127.42 71.5273 127.42 93.0918 c 4
 127.42 114.544 119.328 133.172 107.92 145.592 c 5
107.92 145.592 m 4
EndSplineSet
Validated: 33
EndChar

StartChar: c
Encoding: 99 99 29
Width: 216
VWidth: 0
Flags: W
HStem: -1.99902 46.2949<109.868 190.228> 290.796 45<106.617 190.228>
LayerCount: 2
Fore
SplineSet
147.933 335.796 m 6
 148.024 335.796 l 5
 195.228 335.296 l 5
 190.228 290.796 l 5
 124.132 290.796 l 5
 95.1318 262.388 76.0244 218.017 76.0244 167.796 c 4
 76.0244 117.312 95.2725 72.6729 124.524 44.2959 c 5
 190.228 44.2959 l 5
 195.228 0.000976562 l 5
 148.132 -1.99902 l 5
 147.836 -1.99902 l 6
 -29.0674 -0.25293 -13.96 335.765 147.933 335.796 c 6
147.933 335.796 m 4
EndSplineSet
Validated: 33
EndChar

StartChar: d
Encoding: 100 100 30
Width: 239
VWidth: 0
Flags: W
HStem: -1.7959 46.2969<73.9277 128.784> 290.903 45.0977<73.9277 132.096>
VStem: 30.3154 43.6123<44.501 290.903>
LayerCount: 2
Fore
SplineSet
90.7236 336.001 m 6
 252.628 335.968 267.724 -0.0478516 90.8154 -1.7959 c 6
 90.5205 -1.7959 l 5
 21.1123 0.000976562 l 5
 30.3154 82.1084 l 5
 30.3154 253.296 l 5
 21.1123 335.501 l 5
 90.7236 336.001 l 6
73.9277 290.903 m 5
 73.9277 44.501 l 5
 114.224 44.501 l 5
 143.412 72.876 162.612 117.468 162.612 167.903 c 4
 162.612 218.06 143.567 262.483 114.612 290.903 c 5
 73.9277 290.903 l 5
73.9277 290.903 m 4
EndSplineSet
Validated: 33
EndChar

StartChar: e
Encoding: 101 101 31
Width: 163
VWidth: 0
Flags: W
HStem: 0 44.6992<74.6006 141.304> 141.296 53.9033<85.0178 141.196> 141.403 45.5<74.6006 130.871> 291.092 44.6074<74.6006 141.288>
VStem: 21.6963 119.607<0 44.6992 291.092 335.699> 31.0078 110.28<20.6042 44.6992 141.403 186.903 291.092 315.119> 31.0078 43.5928<44.6992 141.403 186.903 291.092>
LayerCount: 2
Fore
SplineSet
21.6963 335.699 m 5xb8
 141.288 335.699 l 5
 141.288 291.092 l 5xb4
 74.6006 291.092 l 5
 74.6006 186.903 l 5xb2
 141.288 195.199 l 5
 141.196 141.296 l 5xd4
 74.6006 141.403 l 5
 74.6006 44.6992 l 5xb2
 141.304 44.6992 l 5
 141.304 0 l 5
 21.6963 0 l 5xb8
 31.0078 83 l 5
 31.0078 252.796 l 5xb2
 21.6963 335.699 l 5xb8
21.6963 335.699 m 4x98
EndSplineSet
Validated: 1
EndChar

StartChar: f
Encoding: 102 102 32
Width: 162
VWidth: 0
Flags: W
HStem: 0 21G<23.4441 74.1074> 0 21G<23.4441 74.1074> 141.296 53.9033<84.5116 140.704> 141.403 45.5<74.1074 130.376> 291.092 44.6074<74.0918 140.796>
VStem: 21.2041 52.9033<0.0917969 62.5007> 30.5 43.6074<20.4993 141.403 186.903 291.092>
LayerCount: 2
Fore
SplineSet
21.2041 335.699 m 5x5c
 140.796 335.699 l 5
 140.796 291.092 l 5
 74.0918 291.092 l 5
 74.0918 186.903 l 5x5c
 140.796 195.199 l 5
 140.704 141.296 l 5x2c
 74.1074 141.403 l 5x1a
 74.1074 0.0917969 l 5
 21.2041 0 l 5x5c
 30.5 83 l 5
 30.5 252.796 l 5x5a
 21.2041 335.699 l 5x5c
21.2041 335.699 m 4
EndSplineSet
Validated: 1
EndChar

StartChar: g
Encoding: 103 103 33
Width: 217
VWidth: 0
Flags: W
HStem: 0.000976562 46.2949<110.015 146.482> 139.593 44.6074<115.391 146.482> 292.796 45<106.77 190.391>
VStem: 115.391 74.5918<139.593 184.2> 146.482 43.5<46.2959 139.593>
LayerCount: 2
Fore
SplineSet
148.08 337.796 m 6xe8
 148.188 337.796 l 5
 195.482 337.296 l 5
 190.391 292.796 l 5
 124.283 292.796 l 5
 95.2832 264.388 76.1875 220.017 76.1875 169.796 c 4
 76.1875 119.312 95.4395 74.6553 124.688 46.2959 c 5
 146.482 46.2959 l 5
 146.482 139.593 l 5xe8
 115.391 139.593 l 5
 115.391 184.2 l 5
 189.982 184.2 l 5xf0
 189.982 50.0928 l 5
 196.08 0.000976562 l 5
 147.982 0.000976562 l 6
 -28.9199 1.74707 -13.8125 337.765 148.08 337.796 c 6xe8
148.08 337.796 m 4
EndSplineSet
Validated: 33
EndChar

StartChar: h
Encoding: 104 104 34
Width: 198
VWidth: 0
Flags: W
HStem: 0 21G<21.0547 73.6642 123.742 176.945> 0 21G<21.0547 73.6642 123.742 176.945> 134.699 43.3008<73.7432 123.854> 315.699 20G<21.0547 73.5786 123.945 176.945> 315.699 20G<21.0547 73.5786 123.945 176.945>
VStem: 21.0547 52.5<0 62.5885 273.184 335.699> 30.2588 43.4844<19.7074 134.699 178 316.015> 123.945 53<0 62.5073 273.265 335.699> 123.945 43.7051<20.4928 134.699 178 315.23>
LayerCount: 2
Fore
SplineSet
21.0547 335.699 m 5xb4
 73.5547 335.699 l 5xb4
 73.7432 178 l 5
 123.945 178 l 5xb280
 123.945 335.699 l 5
 176.945 335.699 l 5xb1
 167.65 252.796 l 5
 167.65 83 l 5xb080
 176.945 0 l 5
 123.742 0 l 5
 123.854 134.699 l 5
 73.7432 134.699 l 5xb3
 73.6504 0 l 5
 21.0547 0 l 5xb4
 30.2588 82.2959 l 5
 30.2588 253.5 l 5xb2
 21.0547 335.699 l 5xb4
21.0547 335.699 m 4
EndSplineSet
Validated: 1
EndChar

StartChar: i
Encoding: 105 105 35
Width: 105
VWidth: 0
Flags: W
HStem: 0 21G<21.5996 83.4004> 0 21G<21.5996 83.4004> 303.407 51.8887<28.1963 75.5996>
VStem: 21.7881 53.8115<303.407 355.296> 30.9004 43.2959<20.5092 274.076 303.407 343.268>
LayerCount: 2
Fore
SplineSet
21.5996 294.608 m 5xa8
 83.4004 294.608 l 5
 74.1963 212.296 l 5
 74.1963 82.2041 l 5
 83.4004 0 l 5
 21.5996 0 l 5
 30.9004 82.9072 l 5
 30.9004 211.608 l 5
 21.5996 294.608 l 5xa8
21.5996 294.608 m 4
21.7881 355.296 m 5x30
 75.5996 355.296 l 5
 75.5996 303.407 l 5
 28.1963 303.407 l 5
 21.7881 355.296 l 5x30
21.7881 355.296 m 4
EndSplineSet
Validated: 1
EndChar

StartChar: j
Encoding: 106 106 36
Width: 188
VWidth: 0
Flags: W
HStem: 0 44.6992<75.0537 113.945> 315.699 20G<113.945 166.758> 315.699 20G<113.945 166.758>
VStem: 31.4453 43.6084<44.6992 191.364> 113.945 43.5<44.6992 315.112>
LayerCount: 2
Fore
SplineSet
113.945 335.699 m 5xd8
 166.758 335.699 l 5
 157.445 252.796 l 5
 157.445 0 l 5
 31.4453 0 l 5
 31.4453 134.903 l 5
 21.2422 217.199 l 5
 75.0537 217.092 l 5
 75.0537 44.6992 l 5
 113.945 44.6992 l 5
 113.945 335.699 l 5xd8
113.945 335.699 m 4
EndSplineSet
Validated: 1
EndChar

StartChar: k
Encoding: 107 107 37
Width: 239
VWidth: 0
Flags: W
HStem: -0.0927734 21.0918G<21.0566 82.9434 142.289 217.943> -0.0927734 21.0918G<21.0566 82.9434 142.289 217.943> 315.703 19.2959G<21.0566 82.9434 142.293 217.943> 315.703 19.2959G<21.0566 82.9434 142.293 217.943>
VStem: 30.3516 43.2969<20.4691 315.21>
LayerCount: 2
Fore
SplineSet
21.0566 335.703 m 5x08
 82.9434 335.703 l 5
 73.6484 252.703 l 5
 73.6484 82.9072 l 5
 82.9434 -0.000976562 l 5
 21.0566 -0.000976562 l 5
 30.3516 82.9072 l 5
 30.3516 252.703 l 5
 21.0566 335.703 l 5x08
150.443 334.999 m 5xa8
 217.943 334.999 l 5
 157.648 230.703 l 5
 131.648 167.407 l 5
 157.648 104.106 l 5
 217.943 -0.0927734 l 5
 150.443 -0.0927734 l 5
 82.1484 167.407 l 5
 150.443 334.999 l 5xa8
150.443 334.999 m 4
EndSplineSet
Validated: 1
EndChar

StartChar: l
Encoding: 108 108 38
Width: 183
VWidth: 0
Flags: W
HStem: 0 43.5<71.3457 160.047> 315.296 20G<22.9531 66.4375> 315.296 20G<22.9531 66.4375>
VStem: 23.1426 43.2949<43.5 335.296>
LayerCount: 2
Fore
SplineSet
22.9531 335.296 m 5xd0
 66.4375 335.296 l 5
 66.4375 83.1992 l 5
 71.3457 43.5 l 5
 160.047 43.5 l 5
 160.047 0 l 5
 23.1426 0 l 5
 22.9531 335.296 l 5xd0
22.9531 335.296 m 4
EndSplineSet
Validated: 1
EndChar

StartChar: m
Encoding: 109 109 39
Width: 284
VWidth: 0
Flags: W
HStem: 0 20.5967G<21.2959 73.7959 210.204 262.704> 0 20.5967G<21.2959 73.7959 210.204 262.704> 316 20G<21.2959 81.6865 202.316 262.704> 316 20G<21.2959 81.6865 202.316 262.704>
VStem: 30.5918 43.2041<20.4728 209.097> 210.204 43.2959<19.3739 208.796>
LayerCount: 2
Fore
SplineSet
21.2959 336 m 5xac
 73.7959 336 l 5
 142.092 162.893 l 5
 210.204 335.597 l 5
 262.704 335.597 l 5
 253.5 253.296 l 5
 253.5 81.8926 l 5
 262.704 -0.311523 l 5
 210.204 -0.40332 l 5
 210.204 208.796 l 5
 164.5 96.3926 l 5
 119.704 96.3926 l 5
 73.7959 209.097 l 5
 73.7959 0 l 5
 21.2959 0 l 5
 30.5918 82.8926 l 5
 30.5918 253 l 5
 21.2959 336 l 5xac
21.2959 336 m 4
EndSplineSet
Validated: 1
EndChar

StartChar: n
Encoding: 110 110 40
Width: 244
VWidth: 0
Flags: W
HStem: -0.5 21G<21.1484 73.7441 150.805 222.852> -0.5 21G<21.1484 73.7441 150.805 222.852> 316 20G<21.1484 79.8824 169.744 222.352> 316 20G<21.1484 79.8824 169.744 222.352>
VStem: 30.4473 43.2969<20.4953 208.797> 169.744 43.3115<89.3281 315.501>
LayerCount: 2
Fore
SplineSet
169.744 336 m 5xac
 222.352 336 l 5
 213.056 253 l 5
 213.056 82.9043 l 5
 222.852 -0.5 l 5
 158.947 -0.5 l 5
 73.7441 208.797 l 5
 73.7441 0 l 5
 21.1484 0 l 5
 30.4473 82.9043 l 5
 30.4473 253 l 5
 21.1484 335.904 l 5
 71.7441 335.904 l 5
 166.148 103.904 l 5
 169.744 89.3281 l 5
 169.744 336 l 5xac
169.744 336 m 4
EndSplineSet
Validated: 1
EndChar

StartChar: o
Encoding: 111 111 41
Width: 217
VWidth: 0
Flags: W
HStem: 0 44.6123<73.9004 143.1> 291.112 44.5918<73.9004 143.1>
VStem: 30.3037 43.5967<44.6123 291.112> 143.1 43.5<44.6123 291.112>
LayerCount: 2
Fore
SplineSet
21.0996 335.704 m 5
 195.9 335.704 l 5
 186.6 252.801 l 5
 186.6 82.9082 l 5
 195.9 0 l 5
 21.0996 0 l 5
 30.3037 82.3008 l 5
 30.3037 253.408 l 5
 21.0996 335.704 l 5
73.9004 291.112 m 5
 73.9004 44.6123 l 5
 143.1 44.6123 l 5
 143.1 291.112 l 5
 73.9004 291.112 l 5
73.9004 291.112 m 4
EndSplineSet
Validated: 1
EndChar

StartChar: p
Encoding: 112 112 42
Width: 222
VWidth: 0
Flags: W
HStem: 0 21G<20.9609 82.8691> 0 21G<20.9609 82.8691> 70.9082 46.2041<74.8691 129.98> 290 45.7041<77.7607 127.868>
VStem: 30.2607 43.5<117.112 290>
LayerCount: 2
Fore
SplineSet
20.9609 335.704 m 5xb8
 99.665 335.704 l 6
 229.353 335.673 240.133 72.3008 99.8525 70.9082 c 6
 74.8691 70.9082 l 5
 82.8691 0 l 5
 20.9609 0 l 5
 30.2607 83 l 5
 30.2607 252.801 l 5
 20.9609 335.704 l 5xb8
77.7607 290 m 5
 73.7607 252.801 l 5
 73.7607 117.112 l 5
 114.461 117.112 l 5
 134.245 137.188 147.665 168.269 147.665 203.704 c 4
 147.665 238.94 134.385 269.893 114.761 290 c 5
 77.7607 290 l 5
77.7607 290 m 4
EndSplineSet
Validated: 33
EndChar

StartChar: q
Encoding: 113 113 43
Width: 237
VWidth: 0
Flags: W
HStem: 0 44.7051<73.7969 105.608> 291.113 44.5918<73.7969 143>
VStem: 30.2002 43.5967<44.7051 291.113> 143 43.6084<44.7051 291.113>
LayerCount: 2
Fore
SplineSet
21 335.705 m 5
 195.904 335.705 l 5
 186.608 252.816 l 5
 186.608 83 l 5
 195.904 0 l 5
 156 0 l 5
 216 -103.684 l 5
 148.608 -103.684 l 5
 105.608 0 l 5
 21 0 l 5
 30.2002 82.3164 l 5
 30.2002 253.5 l 5
 21 335.705 l 5
73.7969 291.113 m 5
 73.7969 44.7051 l 5
 143 44.7051 l 5
 143 291.113 l 5
 73.7969 291.113 l 5
73.7969 291.113 m 4
EndSplineSet
Validated: 1
EndChar

StartChar: r
Encoding: 114 114 44
Width: 228
VWidth: 0
Flags: W
HStem: -0.204102 21G<21.2041 71.2041 132.212 206.796> -0.204102 21G<21.2041 71.2041 132.212 206.796> 149.296 37.8008<71.2041 88.9649> 294.796 38.7041<71.2041 123.819>
VStem: 21.2041 50<0 62.8233> 30.2959 40.9082<18.7734 149.296 187.097 293.971> 131.908 43.0918<187.695 294.199>
LayerCount: 2
Fore
SplineSet
21.2041 333.5 m 5xba
 103.908 333.5 l 6
 126.796 333.269 144.484 322.796 156.204 307.204 c 4
 167.924 291.597 173.968 271.097 175 250.097 c 4
 176.048 229.112 172.064 207.548 163.204 189.597 c 4
 155.156 173.296 142.72 160.252 126.408 153.704 c 5
 147.796 101.704 l 5
 206.796 -0.204102 l 5
 142.204 -0.204102 l 5
 122.22 49.752 101.484 99.3926 81.4082 149.296 c 5
 71.2041 149.296 l 5xb6
 71.2041 0 l 5
 21.2041 0 l 5xba
 30.2959 81.5967 l 5
 30.2959 251.893 l 6xb6
 27.2676 279.097 24.252 306.296 21.2041 333.5 c 5xba
71.2041 294.796 m 5
 71.2041 187.097 l 5
 111.908 187.097 l 5
 123.736 199.752 131.908 218.796 131.908 240.796 c 4
 131.908 262.876 123.704 282.156 111.796 294.796 c 5
 71.2041 294.796 l 5
71.2041 294.796 m 4
EndSplineSet
Validated: 33
EndChar

StartChar: s
Encoding: 115 115 45
Width: 210
VWidth: 0
Flags: W
HStem: 0 43.0918<32.127 131.659> 145 44.5<78.299 132.732> 294.092 44<79.407 165.844>
LayerCount: 2
Fore
SplineSet
96.5469 338.092 m 6
 96.6426 338.092 l 5
 170.734 337.796 l 5
 165.844 294.092 l 5
 89.5469 294.092 l 5
 78.3584 281.704 70.4385 263.141 70.4385 241.796 c 4
 70.4385 220.296 78.3428 201.876 89.6426 189.5 c 5
 114.923 189.5 l 6
 216.643 188.484 210.158 -0.359375 114.831 -0.408203 c 6
 27.127 0 l 5
 32.127 43.0918 l 5
 121.627 43.0918 l 5
 132.547 55.2207 140.234 73.248 140.234 94.0918 c 4
 140.234 115.064 132.627 132.908 121.627 145 c 5
 96.4385 145 l 6
 -7.16895 146.032 -0.545898 338.064 96.5469 338.092 c 6
96.5469 338.092 m 4
EndSplineSet
Validated: 33
EndChar

StartChar: t
Encoding: 116 116 46
Width: 263
VWidth: 0
Flags: W
HStem: -0.000976562 21G<105.006 148.506> -0.000976562 21G<105.006 148.506> 291.704 43.5<46.7446 105.006 153.398 242.102>
VStem: 105.006 43.5<-0.000976562 291.704>
LayerCount: 2
Fore
SplineSet
20.8984 335.204 m 5xb0
 242.102 335.204 l 5
 242.102 291.704 l 5
 153.398 291.704 l 5
 148.506 252.112 l 5
 148.506 -0.000976562 l 5
 105.006 -0.000976562 l 5
 105.006 291.704 l 5
 103.193 291.704 l 5
 20.8984 281.499 l 5
 20.8984 335.204 l 5xb0
20.8984 335.204 m 4
EndSplineSet
Validated: 1
EndChar

StartChar: u
Encoding: 117 117 47
Width: 187
VWidth: 0
Flags: W
HStem: 0 44.7041<73.5479 112.452> 315.704 20G<20.752 73.5479 112.452 166.248> 315.704 20G<20.752 73.5479 112.452 166.248>
VStem: 29.9521 43.5957<44.7041 316.045> 112.452 43.5957<44.7041 309.914>
LayerCount: 2
Fore
SplineSet
29.9521 0 m 5xd8
 29.9521 253.5 l 5
 20.752 335.704 l 5
 73.5479 335.704 l 5
 73.5479 44.7041 l 5
 112.452 44.7041 l 5
 112.452 335.704 l 5
 166.248 335.704 l 5
 156.048 253.5 l 5
 156.048 0 l 5
 29.9521 0 l 5xd8
29.9521 0 m 4
EndSplineSet
Validated: 1
EndChar

StartChar: v
Encoding: 118 118 48
Width: 395
VWidth: 0
Flags: W
HStem: -0.000976562 21G<168.033 245.496> -0.000976562 21G<168.033 245.496> 315.204 20G<21.1484 96.7965 316.835 373.852> 315.204 20G<21.1484 96.7965 316.835 373.852>
LayerCount: 2
Fore
SplineSet
176.244 -0.000976562 m 5xa0
 81.1484 231.612 l 5
 21.1484 335.204 l 5
 88.6484 335.204 l 5
 202.352 56.1123 l 5
 229.852 103.612 l 5
 325.057 335.204 l 5
 373.852 335.204 l 5
 237.352 -0.000976562 l 5
 176.244 -0.000976562 l 5xa0
176.244 -0.000976562 m 4
EndSplineSet
Validated: 1
EndChar

StartChar: w
Encoding: 119 119 49
Width: 535
VWidth: 0
Flags: W
HStem: -0.000976562 21G<167.74 245.182 308.341 385.793> -0.000976562 21G<167.74 245.182 308.341 385.793> 315.204 20G<20.8516 96.4047 161.352 237.101 316.443 373.557 457.036 514.148> 315.204 20G<20.8516 96.4047 161.352 237.101 316.443 373.557 457.036 514.148>
LayerCount: 2
Fore
SplineSet
20.8516 335.204 m 5xa0
 88.2598 335.204 l 5
 201.965 55.999 l 5
 229.852 104.407 l 5
 251.852 157.815 l 5
 221.76 230.999 l 5
 161.352 335.204 l 5
 228.947 335.204 l 5
 276.648 218.204 l 5
 324.648 335.204 l 5
 373.557 335.204 l 5
 301.148 157.612 l 5
 342.557 56.1123 l 5
 370.352 103.999 l 5
 465.244 335.204 l 5
 514.148 335.204 l 5
 377.648 -0.000976562 l 5
 316.541 -0.000976562 l 5
 276.648 97.2998 l 5
 237.041 -0.000976562 l 5
 175.947 -0.000976562 l 5
 81.1484 230.999 l 5
 20.8516 335.204 l 5xa0
20.8516 335.204 m 4
EndSplineSet
Validated: 1
EndChar

StartChar: x
Encoding: 120 120 50
Width: 246
VWidth: 0
Flags: W
HStem: -0.000976562 21G<21 96.6331 167.887 225> -0.000976562 21G<21 96.6331 167.887 225> 315.204 20G<21 96.6417 167.878 225> 315.204 20G<21 96.6417 167.878 225>
VStem: 21 204
LayerCount: 2
Fore
SplineSet
21 335.204 m 5xa8
 88.5 335.204 l 5
 132.096 228.112 l 5
 176.096 335.204 l 5
 225 335.204 l 5
 156.8 167.612 l 5
 225 -0.000976562 l 5
 176.096 -0.000976562 l 5
 132.096 107.204 l 5
 88.5 -0.000976562 l 5
 21 -0.000976562 l 5
 81 103.612 l 5
 107.3 167.612 l 5
 81 231.612 l 5
 21 335.204 l 5xa8
21 335.204 m 4
EndSplineSet
Validated: 1
EndChar

StartChar: y
Encoding: 121 121 51
Width: 246
VWidth: 0
Flags: W
HStem: -0.000976562 21G<21.0459 96.5984> -0.000976562 21G<21.0459 96.5984> 315.204 20G<21.0459 96.6132 167.925 224.954> 315.204 20G<21.0459 96.6132 167.925 224.954>
VStem: 21.0459 203.908
LayerCount: 2
Fore
SplineSet
21.0459 335.204 m 5xa8
 88.4541 335.204 l 5
 132.143 228.112 l 5
 176.143 335.204 l 5
 224.954 335.204 l 5
 88.4541 -0.000976562 l 5
 21.0459 -0.000976562 l 5
 80.9541 103.612 l 5
 107.342 167.612 l 5
 80.9541 231.612 l 5
 21.0459 335.204 l 5xa8
21.0459 335.204 m 4
EndSplineSet
Validated: 1
EndChar

StartChar: z
Encoding: 122 122 52
Width: 247
VWidth: 0
Flags: W
HStem: -0.000976562 43.5<106.99 224.193> 291.612 43.5918<21.1016 159.102>
VStem: 21.1016 204.797<274.44 291.612>
LayerCount: 2
Fore
SplineSet
21.1016 335.204 m 5
 225.898 335.204 l 5
 106.99 43.499 l 5
 224.193 43.499 l 5
 224.193 -0.000976562 l 5
 21.8984 -0.000976562 l 5
 82.1934 104.407 l 5
 159.102 291.612 l 5
 21.1016 291.612 l 5
 21.1016 335.204 l 5
21.1016 335.204 m 4
EndSplineSet
Validated: 1
EndChar

StartChar: zero
Encoding: 48 48 53
Width: 206
VWidth: 0
Flags: W
HStem: 0.112305 43.5918<65.71 128.898> 386.112 43.6836<72.8057 128.898>
VStem: 23.71 42<43.7041 385.334> 128.898 42.1074<43.501 386.112>
LayerCount: 2
Fore
SplineSet
23.71 0.112305 m 5
 23.6016 429.796 l 5
 182.398 429.796 l 5
 171.006 327.909 l 5
 171.006 101.704 l 5
 182.398 0.000976562 l 5
 23.71 0.112305 l 5
128.898 43.501 m 5
 128.898 386.112 l 5
 72.8057 386.112 l 5
 65.71 328.409 l 5
 65.71 43.7041 l 5
 128.898 43.501 l 5
128.898 43.501 m 4
EndSplineSet
Validated: 1
EndChar

StartChar: one
Encoding: 49 49 54
Width: 109
VWidth: 0
Flags: WO
HStem: 0 21G<22.1934 86.8066> 0 21G<22.1934 86.8066>
VStem: 33.6016 41.7969<39.2991 390.015>
LayerCount: 2
Fore
SplineSet
22.1934 429.312 m 5xa0
 86.8066 429.312 l 5
 75.3984 327.612 l 5
 75.3984 101.704 l 5
 86.8066 0 l 5
 22.1934 0 l 5
 33.6016 101.704 l 5
 33.6016 327.612 l 5
 22.1934 429.312 l 5xa0
22.1934 429.312 m 4
EndSplineSet
Validated: 1
EndChar

StartChar: two
Encoding: 50 50 55
Width: 264
VWidth: 0
Flags: W
HStem: 0 42<86.8574 197.227> 253.392 42.1406<139.857 188.154> 348.984 81.252<66.8574 108.857> 387.876 42.3604<108.857 188.154>
VStem: 66.8574 42<348.984 385.596> 188.154 42<298.371 387.876>
LayerCount: 2
Fore
SplineSet
66.8574 430.236 m 5xec
 230.154 430.236 l 5
 230.154 354.892 l 5
 242.75 253.188 l 5
 139.857 253.392 l 5
 86.8574 42 l 5
 140.782 42 l 5
 242.482 54.6123 l 5
 242.482 0 l 5
 21.25 0 l 5
 101.298 295.532 l 5
 188.154 295.532 l 5
 188.154 387.876 l 5xdc
 108.857 385.596 l 5
 108.857 348.984 l 5
 66.8574 348.984 l 5
 66.8574 430.236 l 5xec
66.8574 430.236 m 4xec
EndSplineSet
Validated: 1
EndChar

StartChar: three
Encoding: 51 51 56
Width: 244
VWidth: 0
Flags: W
HStem: 0.000976562 42<66.2845 157.307> 259.501 42.0957<117.21 151.71> 350.253 80.0918<30.3984 72.3984> 386.845 43.5<72.3984 151.71>
VStem: 30.3984 42<350.253 386.845> 151.71 42<304.483 386.845>
LayerCount: 2
Fore
SplineSet
21.1016 0.000976562 m 5xdc
 21.1016 54.5967 l 5
 122.807 42.001 l 5
 157.307 42.001 l 5
 102.602 175.097 l 5
 29.1016 302.204 l 5
 151.71 301.597 l 5
 151.71 386.845 l 5
 72.3984 386.845 l 5xdc
 72.3984 350.253 l 5
 30.3984 350.253 l 5
 30.3984 430.345 l 5xec
 193.71 430.345 l 5
 193.71 361.001 l 5
 206.307 259.296 l 5
 117.21 259.501 l 5
 205.807 42.001 l 5
 222.898 0.000976562 l 5
 21.1016 0.000976562 l 5xdc
21.1016 0.000976562 m 4
EndSplineSet
Validated: 1
EndChar

StartChar: four
Encoding: 52 52 57
Width: 277
VWidth: 0
Flags: W
HStem: 0 21G<169.51 224.102> 0 21G<169.51 224.102> 123.204 42.0918<86.1016 181.807 223.898 256.102> 410.5 20G<138.23 217.102>
VStem: 169.51 54.5918<0 56.5391> 181.807 54.5918<209.758 266.204> 181.807 42.0918<46.2482 123.204 165.408 221.854>
LayerCount: 2
Fore
SplineSet
146.398 430.5 m 5xb8
 217.102 430.5 l 5
 143.602 303.408 l 5
 86.1016 165.296 l 5
 181.807 165.408 l 5xb2
 181.807 266.204 l 5
 236.398 266.204 l 5xb4
 223.898 165.408 l 5
 256.102 165.408 l 5
 256.102 123.408 l 5
 223.898 123.408 l 5xb2
 224.102 0 l 5
 169.51 0 l 5
 182.102 101.704 l 5
 182.102 123.204 l 5
 20.8984 123.204 l 5
 146.398 430.5 l 5xb8
146.398 430.5 m 4
EndSplineSet
Validated: 1
EndChar

StartChar: five
Encoding: 53 53 58
Width: 264
VWidth: 0
Flags: W
HStem: 0 80.1123<66.8457 108.846> 0 43.5<108.846 188.158> 133.548 42.1562<139.846 188.158> 387.096 42<86.8457 197.233>
VStem: 66.8457 42<43.5 80.1123> 188.158 42<43.5 130.743>
LayerCount: 2
Fore
SplineSet
66.8457 0 m 5xbc
 66.8457 80.1123 l 5
 108.846 80.1123 l 5xbc
 108.846 43.5 l 5
 188.158 43.5 l 5
 188.158 133.548 l 5
 101.297 133.548 l 5
 21.25 429.096 l 5
 242.485 429.096 l 5
 242.485 374.484 l 5
 140.781 387.096 l 5
 86.8457 387.096 l 5
 139.846 175.704 l 5
 242.75 175.908 l 5
 230.158 74.2041 l 5
 230.158 0 l 5x7c
 66.8457 0 l 5xbc
66.8457 0 m 4
EndSplineSet
Validated: 1
EndChar

StartChar: six
Encoding: 54 54 59
Width: 191
VWidth: 0
Flags: W
HStem: 0 43.7041<76.9004 118.4> 207.892 43.5<90.6963 125.492> 388.296 43.5<76.9004 165.9>
VStem: 23.4004 144.199<0 62.6326 388.296 431.796> 34.7881 42.1123<43.7041 388.296> 90.6963 76.7959<207.892 251.392> 125.492 42.1074<44.4508 207.892>
LayerCount: 2
Fore
SplineSet
23.4004 431.796 m 5xf0
 165.9 431.796 l 5
 165.9 388.296 l 5
 76.9004 388.296 l 5
 76.9004 43.7041 l 5
 118.4 43.7041 l 5
 125.492 101.392 l 5
 125.492 207.892 l 5xea
 90.6963 207.892 l 5
 90.6963 251.392 l 5
 167.492 251.5 l 5xe4
 167.6 0 l 5
 23.4004 0 l 5xf0
 34.7881 101.892 l 5
 34.7881 330.096 l 5xe8
 23.4004 431.796 l 5xf0
23.4004 431.796 m 4xf0
EndSplineSet
Validated: 1
EndChar

StartChar: seven
Encoding: 55 55 60
Width: 295
VWidth: 0
Flags: W
HStem: 0 21G<27.8496 105.582> 0 21G<27.8496 105.582> 388.796 42.1123<20.9463 208.85>
VStem: 20.9463 253.107<371.723 388.796>
LayerCount: 2
Fore
SplineSet
20.9463 430.908 m 5xb0
 274.054 430.908 l 5
 97.3818 0 l 5
 27.8496 0 l 5
 101.35 127.096 l 5
 208.85 388.796 l 5
 20.9463 388.796 l 5
 20.9463 430.908 l 5xb0
20.9463 430.908 m 4
EndSplineSet
Validated: 1
EndChar

StartChar: eight
Encoding: 56 56 61
Width: 212
VWidth: 0
Flags: W
HStem: 0 43.7041<99.0918 140.344> 387.392 43.7041<71.6562 112.893>
VStem: 22.5479 42<254.096 386.512> 56.748 42.3438<43.7041 210.392> 112.893 42.3555<253.892 387.392> 147.452 42.0957<44.5841 210.188>
LayerCount: 2
Fore
SplineSet
22.4521 431.096 m 5xe0
 166.641 431.096 l 5
 155.248 329.188 l 5
 155.248 253.892 l 5xe8
 189.452 253.892 l 5
 189.548 0 l 5
 45.3438 0 l 5
 56.748 101.908 l 5
 56.748 210.392 l 5xd4
 22.5479 210.392 l 5
 22.4521 431.096 l 5xe0
71.6562 387.392 m 5
 64.5479 329.688 l 5
 64.5479 254.096 l 5xe8
 99.0918 254.096 l 5
 99.0918 43.7041 l 5
 140.344 43.7041 l 5
 147.452 101.408 l 5
 147.452 210.188 l 5xd4
 112.893 210.188 l 5
 112.893 387.392 l 5
 71.6562 387.392 l 5
71.6562 387.392 m 4
EndSplineSet
Validated: 1
EndChar

StartChar: nine
Encoding: 57 57 62
Width: 191
VWidth: 0
Flags: W
HStem: 0 43.5<25.1016 114.102> 180.408 43.5<65.4902 100.285> 388.112 43.6836<72.6016 114.102>
VStem: 23.3984 144.203<0 43.5 369.278 431.796> 23.4902 76.7949<180.408 223.908> 23.4902 42<223.908 387.209> 114.102 42.0918<43.5 388.112>
LayerCount: 2
Fore
SplineSet
167.602 0 m 5xf0
 25.1016 0 l 5
 25.1016 43.5 l 5
 114.102 43.5 l 5
 114.102 388.112 l 5
 72.6016 388.112 l 5
 65.4902 330.408 l 5
 65.4902 223.908 l 5xe6
 100.285 223.908 l 5
 100.285 180.408 l 5xe8
 23.4902 180.296 l 5xe4
 23.3984 431.796 l 5
 167.602 431.796 l 5xf0
 156.193 329.908 l 5
 156.193 101.704 l 5xe2
 167.602 0 l 5xf0
167.602 0 m 4xf0
EndSplineSet
Validated: 1
EndChar

StartChar: Aacute
Encoding: 193 193 63
Width: 486
VWidth: 0
Flags: W
HStem: 0 21G<20.75 99.5807 409.134 465.25> 0 21G<20.75 99.5807 409.134 465.25> 145.205 42.1992<167.75 340.342> 404.297 53.4082<300.547 316.842> 404.297 42<189.939 208.139>
LayerCount: 2
Fore
SplineSet
316.842 457.705 m 5x30
 316.842 404.297 l 5
 300.547 404.297 l 5x30
 465.25 0 l 5
 417.342 0 l 5
 357.75 145.205 l 5
 150.547 145.205 l 5
 91.4395 0 l 5
 20.75 0 l 5
 94.25 127.109 l 5
 208.139 404.297 l 5
 189.939 404.297 l 5
 189.939 446.297 l 5
 215.139 446.297 l 5xa8
 316.842 457.705 l 5x30
247.139 382.297 m 5
 167.75 187.404 l 5
 340.342 187.404 l 5
 292.547 303.797 l 5
 247.139 382.297 l 5
247.139 382.297 m 4
EndSplineSet
Validated: 1
EndChar

StartChar: Adieresis
Encoding: 196 196 64
Width: 486
VWidth: 0
Flags: W
HStem: 0 21G<20.75 99.5929 409.137 465.25> 0 21G<20.75 99.5929 409.137 465.25> 145.205 42.1992<167.75 340.346> 404.5 53.2051<194.75 208.25 300.55 313.453>
VStem: 188.142 54.6084<430.904 457.705> 258.846 54.6074<430.904 457.705>
LayerCount: 2
Fore
SplineSet
188.142 457.705 m 5xbc
 242.75 457.705 l 5
 242.75 430.904 l 5
 262.142 430.904 l 5
 258.846 457.705 l 5
 313.453 457.705 l 5
 313.453 404.5 l 5
 300.55 404.5 l 5
 465.25 0 l 5
 417.346 0 l 5
 357.75 145.205 l 5
 150.55 145.205 l 5
 91.4531 0 l 5
 20.75 0 l 5
 94.25 127.109 l 5
 208.25 404.5 l 5
 194.75 404.5 l 5
 188.142 457.705 l 5xbc
247.142 382.297 m 5
 167.75 187.404 l 5
 340.346 187.404 l 5
 292.55 303.797 l 5
 247.142 382.297 l 5
247.142 382.297 m 4
EndSplineSet
Validated: 1
EndChar

StartChar: Agrave
Encoding: 192 192 65
Width: 486
VWidth: 0
Flags: W
HStem: 0 21G<20.75 99.5933 409.137 465.25> 0 21G<20.75 99.5933 409.137 465.25> 145.205 42.1992<167.75 340.346> 404.297 53.4082<189.955 208.158> 404.297 42<300.547 316.846>
LayerCount: 2
Fore
SplineSet
189.955 457.705 m 5xb0
 291.658 446.297 l 5
 316.846 446.297 l 5
 316.846 404.297 l 5
 300.547 404.297 l 5x28
 465.25 0 l 5
 417.346 0 l 5
 357.75 145.205 l 5
 150.547 145.205 l 5
 91.4541 0 l 5
 20.75 0 l 5
 94.25 127.109 l 5
 208.158 404.297 l 5
 189.955 404.297 l 5
 189.955 457.705 l 5xb0
247.158 382.297 m 5
 167.75 187.404 l 5
 340.346 187.404 l 5
 292.547 303.797 l 5
 247.158 382.297 l 5
247.158 382.297 m 4
EndSplineSet
Validated: 1
EndChar

StartChar: Acircumflex
Encoding: 194 194 66
Width: 486
VWidth: 0
Flags: W
HStem: 0 21G<20.75 99.5929 409.137 465.25> 0 21G<20.75 99.5929 409.137 465.25> 145.205 42.1992<167.75 340.346> 404.297 53.4082<189.953 208.953 299.846 316.846>
LayerCount: 2
Fore
SplineSet
189.953 457.705 m 5xb0
 316.846 457.705 l 5
 316.846 404.297 l 5
 299.846 406.205 l 5
 465.25 0 l 5
 417.346 0 l 5
 357.75 145.205 l 5
 150.55 145.205 l 5
 91.4531 0 l 5
 20.75 0 l 5
 94.25 127.109 l 5
 208.953 406.404 l 5
 189.953 404.297 l 5
 189.953 457.705 l 5xb0
247.157 382.297 m 5
 167.75 187.404 l 5
 340.346 187.404 l 5
 292.55 303.797 l 5
 247.157 382.297 l 5
247.157 382.297 m 4
EndSplineSet
Validated: 1
EndChar

StartChar: Edieresis
Encoding: 203 203 67
Width: 185
VWidth: 0
Flags: W
HStem: 0 43.5<74.75 163.75> 188.404 54.7041<107.114 163.658> 188.5 43.6084<74.75 131.386> 388.108 70.3916<74.75 84.4541 103.861 155.158> 388.108 43.5<84.4541 103.861 155.158 163.75>
VStem: 29.8613 54.5928<431.608 458.5> 32.6582 42.0918<43.5 188.5 232.108 388.108> 103.861 51.2969<431.608 458.5>
LayerCount: 2
Fore
SplineSet
29.8613 458.5 m 5x95
 84.4541 458.5 l 5x95
 84.4541 431.608 l 5
 103.861 431.608 l 5x8d
 100.562 458.5 l 5
 155.158 458.5 l 5x95
 155.158 431.608 l 5
 163.75 431.608 l 5
 163.75 388.108 l 5x8d
 74.75 388.108 l 5
 74.75 232.108 l 5xb3
 163.75 243.108 l 5
 163.658 188.404 l 5xc3
 74.75 188.5 l 5
 74.75 43.5 l 5
 163.75 43.5 l 5
 163.75 0 l 5
 21.25 0 l 5
 32.6582 101.704 l 5
 32.6582 329.904 l 5
 21.25 431.608 l 5
 33.1582 431.608 l 5xab
 29.8613 458.5 l 5x95
29.8613 458.5 m 4
EndSplineSet
Validated: 1
EndChar

StartChar: Eacute
Encoding: 201 201 68
Width: 185
VWidth: 0
Flags: W
HStem: 0 43.5<74.75 163.75> 188.404 54.7051<107.114 163.658> 188.5 43.6094<74.75 131.386> 388.109 58.1875<74.75 124.359> 437.705 20G<61.9531 163.685>
VStem: 32.6582 131.092<188.5 232.109 431.609 446.297> 32.6582 42.0918<75.7782 188.5 232.109 355.831>
LayerCount: 2
Fore
SplineSet
163.658 457.705 m 5x8a
 163.75 388.109 l 5x94
 74.75 388.109 l 5
 74.75 232.109 l 5xb2
 163.75 243.109 l 5
 163.658 188.404 l 5xc4
 74.75 188.5 l 5
 74.75 43.5 l 5xa2
 163.75 43.5 l 5
 163.75 0 l 5xa4
 21.25 0 l 5
 32.6582 101.705 l 5
 32.6582 329.904 l 5
 21.25 431.609 l 5
 36.75 431.609 l 5
 36.75 446.297 l 5
 61.9531 446.297 l 5xb2
 163.658 457.705 l 5x8a
163.658 457.705 m 4x88
EndSplineSet
Validated: 1
EndChar

StartChar: Egrave
Encoding: 200 200 69
Width: 185
VWidth: 0
Flags: W
HStem: 0 43.5<74.75 163.75> 188.404 54.7051<107.098 163.643> 188.5 43.6094<74.75 131.371> 388.109 58.2031<76.0553 163.734> 437.705 20G<36.8418 138.546>
VStem: 32.6426 131.092<188.5 232.109 431.609 446.312> 32.6426 42.0918<76.7016 188.5 232.109 354.908>
LayerCount: 2
Fore
SplineSet
36.8418 457.705 m 5xaa
 138.546 446.312 l 5
 163.734 446.312 l 5
 163.734 388.109 l 5x94
 74.7344 388.109 l 5
 74.7344 232.109 l 5xb2
 163.734 243.109 l 5
 163.643 188.404 l 5xc4
 74.75 188.5 l 5
 74.75 43.5 l 5
 163.75 43.5 l 5
 163.75 0 l 5
 21.25 0 l 5
 32.6426 101.705 l 5
 32.6426 329.904 l 5
 21.25 431.609 l 5
 36.8418 431.609 l 5
 36.8418 457.705 l 5xaa
36.8418 457.705 m 4x88
EndSplineSet
Validated: 1
EndChar

StartChar: Ecircumflex
Encoding: 202 202 70
Width: 185
VWidth: 0
Flags: W
HStem: 0 43.5<74.75 163.75> 188.404 54.7051<107.114 163.643> 188.5 43.6094<74.75 131.386> 388.109 69.5957<74.75 163.643>
VStem: 32.6426 131.107<188.5 232.109 431.609 457.705> 32.6426 42.1074<75.8821 188.5 232.109 355.727>
LayerCount: 2
Fore
SplineSet
36.75 457.705 m 5xb4
 163.643 457.705 l 5
 163.75 388.109 l 5xb8
 74.75 388.109 l 5
 74.75 232.109 l 5xb4
 163.75 243.109 l 5
 163.643 188.404 l 5xd8
 74.75 188.5 l 5
 74.75 43.5 l 5xb4
 163.75 43.5 l 5
 163.75 0 l 5xb8
 21.25 0 l 5
 32.6426 101.705 l 5
 32.6426 329.904 l 5
 21.25 431.609 l 5
 36.75 431.609 l 5
 36.75 457.705 l 5xb4
36.75 457.705 m 4
EndSplineSet
Validated: 1
EndChar

StartChar: Oacute
Encoding: 211 211 71
Width: 257
VWidth: 0
Flags: W
HStem: 0 43.5<74.3496 182.65> 388.092 58.2041<74.3496 152.647> 437.704 20G<90.2422 191.945>
VStem: 32.2422 42.1074<43.5 388.092> 182.65 42.0918<43.5 388.092>
LayerCount: 2
Fore
SplineSet
191.945 457.704 m 5xb8
 191.945 431.592 l 5
 236.15 431.592 l 5
 224.742 329.903 l 5
 224.742 101.704 l 5
 236.15 0 l 5
 20.8496 0 l 5
 32.2422 101.704 l 5
 32.2422 329.903 l 5
 20.8496 431.592 l 5
 65.0381 431.592 l 5
 65.0381 446.296 l 5
 90.2422 446.296 l 5xd8
 191.945 457.704 l 5xb8
74.3496 388.092 m 5
 74.3496 43.5 l 5
 182.65 43.5 l 5
 182.65 388.092 l 5
 74.3496 388.092 l 5
74.3496 388.092 m 4
EndSplineSet
Validated: 1
EndChar

StartChar: Ograve
Encoding: 210 210 72
Width: 257
VWidth: 0
Flags: W
HStem: 0 43.5<74.3516 182.648> 388.092 58.2041<104.355 182.648> 437.704 20G<65.0557 166.76>
VStem: 32.2598 42.0918<43.5 388.092> 182.648 42.1113<43.5 388.092>
LayerCount: 2
Fore
SplineSet
65.0557 457.704 m 5xb8
 166.76 446.296 l 5
 191.96 446.296 l 5xd8
 191.96 431.592 l 5
 236.148 431.592 l 5
 224.76 329.903 l 5
 224.76 101.704 l 5
 236.148 0 l 5
 20.8516 0 l 5
 32.2598 101.704 l 5
 32.2598 329.903 l 5
 20.8516 431.592 l 5
 65.0557 431.592 l 5
 65.0557 457.704 l 5xb8
182.648 388.092 m 5
 74.3516 388.092 l 5
 74.3516 43.5 l 5
 182.648 43.5 l 5
 182.648 388.092 l 5
182.648 388.092 m 4
EndSplineSet
Validated: 1
EndChar

StartChar: Ocircumflex
Encoding: 212 212 73
Width: 257
VWidth: 0
Flags: W
HStem: 0 43.5<74.3496 182.65> 388.092 69.6123<74.3496 182.65>
VStem: 32.2422 42.1074<43.5 388.092> 182.65 42.0918<43.5 388.092>
LayerCount: 2
Fore
SplineSet
65.0381 457.704 m 5
 191.945 457.704 l 5
 191.945 431.592 l 5
 236.15 431.592 l 5
 224.742 329.903 l 5
 224.742 101.704 l 5
 236.15 0 l 5
 20.8496 0 l 5
 32.2422 101.704 l 5
 32.2422 329.903 l 5
 20.8496 431.592 l 5
 65.0381 431.592 l 5
 65.0381 457.704 l 5
74.3496 388.092 m 5
 74.3496 43.5 l 5
 182.65 43.5 l 5
 182.65 388.092 l 5
 74.3496 388.092 l 5
74.3496 388.092 m 4
EndSplineSet
Validated: 1
EndChar

StartChar: Odieresis
Encoding: 214 214 74
Width: 257
VWidth: 0
Flags: W
HStem: 0 43.5<74.3984 182.603> 388.092 43.5<120.506 139.803>
VStem: 32.3066 42.0918<43.5 388.092> 65.8984 54.6074<431.592 457.704> 139.803 51.4072<431.592 457.704> 182.603 42.1074<43.5 388.092>
LayerCount: 2
Fore
SplineSet
65.8984 457.704 m 5xd0
 120.506 457.704 l 5
 120.506 431.592 l 5
 139.803 431.592 l 5
 136.603 457.704 l 5
 191.21 457.704 l 5
 191.21 431.592 l 5xd8
 236.102 431.592 l 5
 224.71 329.903 l 5
 224.71 101.704 l 5
 236.102 0 l 5
 20.8984 0 l 5
 32.3066 101.704 l 5
 32.3066 329.903 l 5xe4
 20.8984 431.592 l 5
 69.1025 431.592 l 5
 65.8984 457.704 l 5xd0
74.3984 388.092 m 5xe4
 74.3984 43.5 l 5
 182.603 43.5 l 5
 182.603 388.092 l 5
 74.3984 388.092 l 5xe4
74.3984 388.092 m 4
EndSplineSet
Validated: 1
EndChar

StartChar: Udieresis
Encoding: 220 220 75
Width: 218
VWidth: 0
Flags: W
HStem: 0 43.5<74.5 142.393> 404.5 53.2041<53 101 123.704 171.704>
VStem: 32.3926 42.1074<43.5 348.692> 53 48<404.5 457.704> 123.704 48<404.5 457.704> 142.393 42.1074<43.5 343.156>
LayerCount: 2
Fore
SplineSet
46.3926 457.704 m 5xd0
 101 457.704 l 5
 101 404.5 l 5
 53 404.5 l 5
 46.3926 457.704 l 5xd0
117.092 457.704 m 5
 171.704 457.704 l 5
 171.704 404.5 l 5
 123.704 404.5 l 5xc8
 117.092 457.704 l 5
21 387.903 m 5
 74.5 387.903 l 5
 74.5 43.5 l 5
 142.393 43.5 l 5
 142.393 387.903 l 5
 197 387.903 l 5
 184.5 286.204 l 5
 184.5 0 l 5
 32.3926 0 l 5
 32.3926 286.204 l 5xe4
 21 387.903 l 5
21 387.903 m 4
EndSplineSet
Validated: 1
EndChar

StartChar: Ucircumflex
Encoding: 219 219 76
Width: 218
VWidth: 0
Flags: W
HStem: 0 43.5<75.5918 143.592> 404.296 53.4082<45.5918 108.042 109.96 172.5>
VStem: 33.5918 42<43.5 342.835> 143.592 42<43.5 348.701>
LayerCount: 2
Fore
SplineSet
45.5918 457.704 m 5
 172.5 457.704 l 5
 172.5 404.296 l 5
 109 411.403 l 5
 45.5918 404.296 l 5
 45.5918 457.704 l 5
21 388 m 1
 75.5918 388 l 1
 75.5918 43.5 l 1
 143.592 43.5 l 1
 143.592 388 l 1
 197 388 l 1
 185.592 286.296 l 1
 185.592 0 l 1
 33.5918 0 l 1
 33.5918 286.296 l 1
 21 388 l 1
21 388 m 0
EndSplineSet
Validated: 1
EndChar

StartChar: Uacute
Encoding: 218 218 77
Width: 218
VWidth: 0
Flags: W
HStem: 0 43.5<74.4541 142.454> 404.296 53.4082<110.049 172.454> 404.296 42<45.5459 133.155>
VStem: 32.4541 42<43.5 348.108> 142.454 42<43.5 342.74>
LayerCount: 2
Fore
SplineSet
172.454 457.704 m 5xd8
 172.454 404.296 l 5xd8
 45.5459 404.296 l 5
 45.5459 446.296 l 5
 70.75 446.296 l 5xb8
 172.454 457.704 l 5xd8
20.9541 387.903 m 5
 74.4541 387.903 l 5
 74.4541 43.5 l 5
 142.454 43.5 l 5
 142.454 387.903 l 5
 197.046 387.903 l 5
 184.454 286.204 l 5
 184.454 0 l 5
 32.4541 0 l 5
 32.4541 286.204 l 5
 20.9541 387.903 l 5
20.9541 387.903 m 4
EndSplineSet
Validated: 1
EndChar

StartChar: Ugrave
Encoding: 217 217 78
Width: 218
VWidth: 0
Flags: W
HStem: 0 43.5<75.5459 143.546> 404.296 53.4082<45.5459 107.951> 404.296 42<84.845 172.454>
VStem: 33.5459 42<43.5 342.74> 143.546 42.0918<43.5 348.606>
LayerCount: 2
Fore
SplineSet
45.5459 457.704 m 5xd8
 147.25 446.296 l 5
 172.454 446.296 l 5
 172.454 404.296 l 5xb8
 45.5459 404.296 l 5
 45.5459 457.704 l 5xd8
20.9541 387.903 m 5
 75.5459 387.903 l 5
 75.5459 43.5 l 5
 143.546 43.5 l 5
 143.546 387.903 l 5
 197.046 387.903 l 5
 185.638 286.204 l 5
 185.638 0 l 5
 33.5459 0 l 5
 33.5459 286.204 l 5
 20.9541 387.903 l 5
20.9541 387.903 m 4
EndSplineSet
Validated: 1
EndChar

StartChar: Iacute
Encoding: 205 205 79
Width: 169
VWidth: 0
Flags: W
HStem: 0 21G<52.1582 116.75> 0 21G<52.1582 116.75> 404.296 53.4082<85.5491 147.954> 404.296 42<21.0459 108.655>
VStem: 63.5459 41.8154<39.1921 348.713>
LayerCount: 2
Fore
SplineSet
147.954 457.704 m 5x28
 147.954 404.296 l 5x28
 21.0459 404.296 l 5
 21.0459 446.296 l 5
 46.25 446.296 l 5x18
 147.954 457.704 l 5x28
116.75 387.903 m 5
 105.361 286.204 l 5
 105.361 101.704 l 5
 116.75 0 l 5
 52.1582 0 l 5x88
 63.5459 101.704 l 5
 63.5459 286.204 l 5
 52.1582 387.903 l 5
 116.75 387.903 l 5
116.75 387.903 m 4
EndSplineSet
Validated: 1
EndChar

StartChar: Igrave
Encoding: 204 204 80
Width: 169
VWidth: 0
Flags: W
HStem: 0 21G<52.2441 116.852> 0 21G<52.2441 116.852> 404.296 53.4082<21.0566 83.449> 404.296 42<60.3478 147.943>
VStem: 63.6484 41.7949<39.2991 348.606>
LayerCount: 2
Fore
SplineSet
21.0566 457.704 m 5x28
 122.74 446.296 l 5
 147.943 446.296 l 5
 147.943 404.296 l 5x18
 21.0566 404.296 l 5
 21.0566 457.704 l 5x28
52.2441 387.903 m 5
 116.852 387.903 l 5
 105.443 286.204 l 5
 105.443 101.704 l 5
 116.852 0 l 5
 52.2441 0 l 5x88
 63.6484 101.704 l 5
 63.6484 286.204 l 5
 52.2441 387.903 l 5
52.2441 387.903 m 4
EndSplineSet
Validated: 1
EndChar

StartChar: Icircumflex
Encoding: 206 206 81
Width: 169
VWidth: 0
Flags: W
HStem: 0 21G<52.25 116.842> 0 21G<52.25 116.842> 404.296 53.4082<21.0469 83.4948 85.4129 147.953>
VStem: 63.6543 41.7988<39.2777 348.627>
LayerCount: 2
Fore
SplineSet
21.0469 457.704 m 5x30
 147.953 457.704 l 5
 147.953 404.296 l 5
 84.4531 411.403 l 5
 21.0469 404.296 l 5
 21.0469 457.704 l 5x30
52.25 387.903 m 5
 116.842 387.903 l 5
 105.453 286.204 l 5
 105.453 101.704 l 5
 116.842 0 l 5
 52.25 0 l 5xb0
 63.6543 101.704 l 5
 63.6543 286.204 l 5
 52.25 387.903 l 5
52.25 387.903 m 4
EndSplineSet
Validated: 1
EndChar

StartChar: Idieresis
Encoding: 207 207 82
Width: 167
VWidth: 0
Flags: W
HStem: 0 21G<51.2119 115.805> 0 21G<51.2119 115.805> 404.531 53.1992<27.46 75.46 98.1484 146.148>
VStem: 27.46 48<404.531 457.73> 62.5996 41.8008<39.2774 348.689> 98.1484 48<404.531 457.73>
LayerCount: 2
Fore
SplineSet
51.2119 387.967 m 5xa8
 115.805 387.967 l 5
 104.4 286.264 l 5
 104.4 101.703 l 5
 115.805 0 l 5
 51.2119 0 l 5
 62.5996 101.703 l 5
 62.5996 286.264 l 5
 51.2119 387.967 l 5xa8
51.2119 387.967 m 4
20.8516 457.73 m 5
 75.46 457.73 l 5
 75.46 404.531 l 5
 27.46 404.531 l 5x30
 20.8516 457.73 l 5
91.5566 457.73 m 5
 146.148 457.73 l 5
 146.148 404.531 l 5
 98.1484 404.531 l 5x24
 91.5566 457.73 l 5
91.5566 457.73 m 4
EndSplineSet
Validated: 1
EndChar

StartChar: germandbls
Encoding: 223 223 83
Width: 244
VWidth: 0
Flags: W
HStem: 0 43.5918<89.126 168.266> 231.393 42.2959<133.326 168.266> 289 44.5918<133.326 167.374> 387.393 44.5<74.5303 167.374>
VStem: 32.5303 42<39.2717 387.393> 89.126 44.2002<273.688 289> 168.266 42<43.5 221.99 336.785 387.393>
LayerCount: 2
Fore
SplineSet
32.5303 431.893 m 5
 209.471 431.893 l 5
 209.471 390.592 l 5
 221.971 289.092 l 5
 133.326 289 l 5
 133.326 273.688 l 5
 222.874 273.688 l 5
 210.266 171.893 l 5
 210.266 0 l 5
 89.126 0 l 5
 89.126 43.5918 l 5
 168.266 43.5 l 5
 168.266 231.393 l 5
 89.126 231.393 l 5
 89.126 333.592 l 5
 167.374 333.592 l 5
 167.374 387.393 l 5
 74.5303 387.393 l 5
 74.5303 0 l 5
 21.126 0 l 5
 32.5303 101.688 l 5
 32.5303 431.893 l 5
32.5303 431.893 m 4
EndSplineSet
Validated: 1
EndChar

StartChar: dollar
Encoding: 36 36 84
Width: 250
VWidth: 0
Flags: W
HStem: 0 41.5957<34.8965 94.3965> 193.393 42.9023<89.2386 104.1 145.896 165.385> 392.203 42.5<155.691 198.896>
VStem: 104.1 41.7969<41.5957 193.393 236.703 390.908>
LayerCount: 2
Fore
SplineSet
92.6914 449.393 m 5
 157.289 449.408 l 5
 155.691 434.703 l 5
 203.691 434.5 l 5
 198.896 392.203 l 5
 150.896 392.203 l 5
 145.896 347.703 l 5
 145.896 236.295 l 5
 257.02 226.188 252.725 23.1875 155.396 1.5 c 5
 157.289 -15.7969 l 5
 92.6914 -15.7969 l 5
 94.3965 -0.205078 l 5
 30.0996 0 l 5
 34.8965 41.5957 l 5
 99.0996 41.5957 l 5
 104.1 85.8926 l 5
 104.1 194 l 5
 -6.96484 206.172 -2.77539 408.924 94.5996 432.596 c 5
 92.6914 449.393 l 5
99.3047 390.908 m 5
 82.3633 372.768 70.9883 345.5 70.9883 314.5 c 4
 70.9883 282.564 82.9277 254.783 100.691 236.703 c 5
 104.1 236.703 l 5
 104.1 347.703 l 5
 99.3047 390.908 l 5
145.896 193.393 m 5
 145.896 85.8926 l 5
 150.896 41.5957 l 5
 151.1 41.5957 l 5
 168.316 59.3438 179.988 86.5312 179.988 117.596 c 4
 179.988 148.812 168.332 175.688 150.988 193.393 c 5
 145.896 193.393 l 5
145.896 193.393 m 4
EndSplineSet
Validated: 33
EndChar

StartChar: question
Encoding: 63 63 85
Width: 221
VWidth: 0
Flags: W
HStem: -0.000976562 101.705<35.0957 77.0957> 256.063 42.2949<75.8916 143.892> 351.515 80.1094<22.5801 64.5801> 388.124 43.5<64.5801 143.892>
VStem: 22.5 53.3916<-0.000976562 56.5211 134.327 196.822> 22.5801 42<351.515 388.124> 33.8916 42<49.9579 101.704 184.285 256.063> 143.892 42<301.003 388.124>
LayerCount: 2
Fore
SplineSet
77.0957 -0.000976562 m 5xc9
 22.5 -0.000976562 l 5
 35.0957 101.704 l 5
 77.0957 101.704 l 5
 77.0957 -0.000976562 l 5xc9
77.0957 -0.000976562 m 4
22.5801 431.624 m 5xe5
 185.892 431.624 l 5
 185.892 357.468 l 5
 198.5 255.763 l 5
 75.8916 256.063 l 5xd3
 75.8916 134.327 l 5
 22.5 134.327 l 5xd9
 33.8916 236.03 l 5
 33.8916 298.358 l 5xd3
 143.892 298.063 l 5
 143.892 388.124 l 5
 64.5801 388.124 l 5xd5
 64.5801 351.515 l 5
 22.5801 351.515 l 5
 22.5801 431.624 l 5xe5
22.5801 431.624 m 4xe5
EndSplineSet
Validated: 1
EndChar

StartChar: at
Encoding: 64 64 86
Width: 295
VWidth: 0
Flags: W
HStem: -0.114258 43.7051<149 190.5> 207.794 43.5918<141.908 190.5 232.611 273.796> 387.386 43.8008<74.6113 190.5>
VStem: 32.6113 42<39.2864 387.386> 99.7959 42.1123<44.3377 207.794> 190.5 42.1113<43.5908 207.794 251.294 387.386>
LayerCount: 2
Fore
SplineSet
32.6113 431.187 m 5
 244 430.886 l 5
 232.611 329.187 l 5
 232.611 251.294 l 5
 273.796 251.294 l 5
 273.796 207.794 l 5
 232.611 207.794 l 5
 232.611 101.794 l 5
 244 -0.114258 l 5
 99.7959 -0.114258 l 5
 99.9082 251.386 l 5
 190.5 251.294 l 5
 190.5 387.386 l 5
 74.6113 387.386 l 5
 74.6113 -0.000976562 l 5
 21.2041 -0.000976562 l 5
 32.6113 101.687 l 5
 32.6113 431.187 l 5
141.908 207.794 m 5
 141.908 101.294 l 5
 149 43.5908 l 5
 190.5 43.5908 l 5
 190.5 207.794 l 5
 141.908 207.794 l 5
141.908 207.794 m 4
EndSplineSet
Validated: 1
EndChar

StartChar: period
Encoding: 46 46 87
Width: 107
VWidth: 0
Flags: W
HStem: 0 101.688<38.8047 80.8047>
VStem: 26.1953 54.6094<0 56.4516> 38.8047 42<45.2369 101.688>
LayerCount: 2
Fore
SplineSet
80.8047 0 m 5xc0
 26.1953 0 l 5xc0
 38.8047 101.688 l 5
 80.8047 101.688 l 5xa0
 80.8047 0 l 5xc0
80.8047 0 m 4
EndSplineSet
Validated: 1
EndChar

StartChar: exclam
Encoding: 33 33 88
Width: 102
VWidth: 0
Flags: W
HStem: 0 101.7<36.3066 78.3066> 411.076 20G<35.1016 77.1016>
VStem: 23.6934 53.4082<0 56.4406 134.344 196.736> 35.1016 42<50.0405 101.7 184.376 431.076>
LayerCount: 2
Fore
SplineSet
78.3066 0 m 5xe0
 23.6934 0 l 5
 36.3066 101.7 l 5
 78.3066 101.7 l 5
 78.3066 0 l 5xe0
78.3066 0 m 4
35.1016 431.076 m 5xd0
 77.1016 431.076 l 5xd0
 77.1016 134.344 l 5
 23.6934 134.344 l 5xe0
 35.1016 236.027 l 5
 35.1016 431.076 l 5xd0
35.1016 431.076 m 4
EndSplineSet
Validated: 1
EndChar

StartChar: comma
Encoding: 44 44 89
Width: 193
VWidth: 0
Flags: W
HStem: -72.542 127.45
VStem: 45.7461 123.706
LayerCount: 2
Fore
SplineSet
119.548 54.9082 m 1
 169.452 54.6133 l 1
 116.45 -72.542 l 5
 45.7461 -72.542 l 5
 97.0479 0 l 1
 119.548 54.9082 l 1
119.548 54.9082 m 0
EndSplineSet
Validated: 524289
EndChar

StartChar: semicolon
Encoding: 59 59 90
Width: 190
VWidth: 0
Flags: W
HStem: 100.613 101.688<122.368 164.368>
VStem: 109.771 54.5977<145.797 202.301> 122.368 42<100.613 157.117>
LayerCount: 2
Fore
SplineSet
164.368 202.301 m 5xc0
 164.368 100.613 l 5
 122.368 100.613 l 5xa0
 109.771 202.301 l 5
 164.368 202.301 l 5xc0
164.368 202.301 m 4xc0
118.056 54.9082 m 5
 167.944 54.6133 l 5
 92.7393 -127.092 l 5
 22.0557 -127.092 l 5
 95.5557 0 l 5
 118.056 54.9082 l 5
118.056 54.9082 m 4
EndSplineSet
Validated: 1
EndChar

StartChar: colon
Encoding: 58 58 91
Width: 105
VWidth: 0
Flags: W
HStem: 0 101.705<37.7979 79.7979> 139.924 101.705<25.2021 67.2021>
VStem: 25.2021 42<139.924 196.446> 37.7979 42<45.183 101.705>
LayerCount: 2
Fore
SplineSet
25.2021 241.629 m 5xe0
 79.7979 241.629 l 5xd0
 67.2021 139.924 l 5
 25.2021 139.924 l 5
 25.2021 241.629 l 5xe0
25.2021 241.629 m 4xe0
79.7979 0 m 5xd0
 25.2021 0 l 5xe0
 37.7979 101.705 l 5
 79.7979 101.705 l 5
 79.7979 0 l 5xd0
79.7979 0 m 4xd0
EndSplineSet
Validated: 1
EndChar

StartChar: equal
Encoding: 61 61 92
Width: 357
VWidth: 0
Flags: W
HStem: 0 21G<27.5 129.204 229.408 331.107> 0 21G<27.5 129.204 229.408 331.107> 11.4062 41.7969<66.7991 291.81> 167.016 41.7949<65.1898 290.191>
VStem: 27.5 303.607
LayerCount: 2
Fore
SplineSet
331.107 64.6113 m 5x38
 331.107 0 l 5x98
 229.408 11.4062 l 5
 129.204 11.4062 l 5x38
 27.5 0 l 5x98
 27.5 64.6113 l 5
 129.204 53.2031 l 5
 229.408 53.2031 l 5
 331.107 64.6113 l 5x38
331.107 64.6113 m 4
329.484 220.219 m 5
 329.484 155.611 l 5
 227.796 167.016 l 5
 127.592 167.016 l 5
 25.8926 155.611 l 5
 25.8926 220.219 l 5
 127.592 208.811 l 5
 227.796 208.811 l 5
 329.484 220.219 l 5
329.484 220.219 m 4
EndSplineSet
Validated: 1
EndChar

StartChar: numbersign
Encoding: 35 35 93
Width: 350
VWidth: 0
Flags: W
HStem: 0 21G<86.4062 151.002> 0 21G<86.4062 151.002> 53.9072 41.7959<145.002 204.799> 209.499 41.8008<145.094 205.002>
VStem: 97.7988 41.7949<98.9072 206.499> 210.406 41.6875<98.7031 206.3>
LayerCount: 2
Fore
SplineSet
198.906 305.203 m 5xbc
 263.594 305.203 l 5
 257.906 255.111 l 5
 326.002 262.703 l 5
 326.002 198.111 l 5
 252.406 206.3 l 5
 252.094 203.499 l 5
 252.094 103.299 l 5
 252.594 98.7031 l 5
 327.594 107.111 l 5
 327.594 42.5 l 5
 258.094 50.2988 l 5
 263.594 1.61133 l 5
 198.906 1.61133 l 5
 204.799 53.9072 l 5
 145.002 53.9072 l 5
 151.002 0 l 5
 86.4062 0 l 5
 92.002 50.1113 l 5
 24.002 42.5 l 5
 24.002 107.111 l 5
 97.502 98.9072 l 5
 97.7988 101.703 l 5
 97.7988 201.907 l 5
 97.2988 206.499 l 5
 22.4062 198.111 l 5
 22.4062 262.703 l 5
 91.9062 254.907 l 5
 86.4062 303.611 l 5
 151.002 303.611 l 5
 145.094 251.3 l 5
 205.002 251.3 l 5
 198.906 305.203 l 5xbc
140.502 209.499 m 5
 139.594 201.907 l 5
 139.594 101.703 l 5
 140.299 95.7031 l 5
 209.502 95.7031 l 5
 210.406 103.299 l 5
 210.406 203.499 l 5
 209.707 209.499 l 5
 140.502 209.499 l 5
140.502 209.499 m 4
EndSplineSet
Validated: 1
EndChar

StartChar: Ccedilla
Encoding: 199 199 94
Width: 258
VWidth: 0
Flags: W
HStem: -2.2041 45.7031<134.22 186.029> 388.095 44.1074<129.967 231.918>
LayerCount: 2
Fore
SplineSet
182.621 432.202 m 6
 236.824 431.595 l 5
 231.918 388.095 l 5
 147.324 388.095 l 5
 105.701 348.622 78.7324 286.294 78.7324 216.095 c 4
 78.7324 145.53 105.918 82.9072 147.918 43.499 c 5
 204.732 43.499 l 5
 204.824 43.7021 l 5
 231.918 43.499 l 5
 236.824 -0.000976562 l 5
 236.732 -0.000976562 l 5
 179.529 -138.298 l 5
 108.824 -138.298 l 5
 182.324 -11.2041 l 5
 186.029 -2.09277 l 5
 182.621 -2.2041 l 5
 -43.0352 0.0478516 -21.9863 432.155 182.621 432.202 c 6
182.621 432.202 m 4
EndSplineSet
Validated: 33
EndChar

StartChar: backslash
Encoding: 92 92 95
Width: 288
VWidth: 0
Flags: W
HStem: 0 21G<210.981 267.1> 0 21G<210.981 267.1> 410.891 20G<20.9004 99.7455>
VStem: 20.9004 246.199
LayerCount: 2
Fore
SplineSet
219.196 0 m 5xb0
 94.4004 303.799 l 5
 20.9004 430.891 l 5
 91.5996 430.891 l 5
 267.1 0 l 5
 219.196 0 l 5xb0
219.196 0 m 4
EndSplineSet
Validated: 1
EndChar

StartChar: bracketleft
Encoding: 91 91 96
Width: 154
VWidth: 0
Flags: W
HStem: -0.000976562 43.5<75.4141 132.086> 388.091 43.5<75.4141 132.086>
VStem: 21.9141 110.172<-0.000976562 43.499 388.091 431.591> 33.3184 42.0957<43.499 388.091>
LayerCount: 2
Fore
SplineSet
21.9141 431.591 m 5xe0
 132.086 431.591 l 5
 132.086 388.091 l 5xe0
 75.4141 388.091 l 5
 75.4141 43.499 l 5xd0
 132.086 43.499 l 5
 132.086 -0.000976562 l 5
 21.9141 -0.000976562 l 5xe0
 33.3184 101.687 l 5
 33.3184 329.886 l 5xd0
 21.9141 431.591 l 5xe0
21.9141 431.591 m 4
EndSplineSet
Validated: 1
EndChar

StartChar: bracketright
Encoding: 93 93 97
Width: 154
VWidth: 0
Flags: W
HStem: -0.000976562 43.5<21.9141 78.5859> 388.091 43.5<21.9141 78.5859>
VStem: 21.9141 110.172<-0.000976562 43.499 388.091 431.591> 78.5859 42.1123<43.499 388.091>
LayerCount: 2
Fore
SplineSet
132.086 431.591 m 5xe0
 120.698 329.886 l 5
 120.698 101.687 l 5xd0
 132.086 -0.000976562 l 5
 21.9141 -0.000976562 l 5
 21.9141 43.499 l 5xe0
 78.5859 43.499 l 5
 78.5859 388.091 l 5xd0
 21.9141 388.091 l 5
 21.9141 431.591 l 5
 132.086 431.591 l 5xe0
132.086 431.591 m 4xe0
EndSplineSet
Validated: 1
EndChar

StartChar: section
Encoding: 167 167 98
Width: 221
VWidth: 0
Flags: W
HStem: 0 80.1084<22.6934 64.6934> 0 43.5<64.6934 143.99> 119.597 42.2959<75.9902 143.99> 283.393 42.2041<76.9902 144.99> 350.517 80.1074<156.301 198.301> 385.969 44.6553<76.9902 156.301>
VStem: 22.6934 42<43.5 80.1084> 33.9902 42<161.893 234.38 332.35 385.969> 144.99 42<43.5 113.039 211.195 283.597> 156.301 42<350.517 385.969>
LayerCount: 2
Fore
SplineSet
34.9902 430.624 m 5x75
 198.301 430.624 l 5
 198.301 350.517 l 5
 156.301 350.517 l 5x3940
 156.301 385.969 l 5x3540
 76.9902 385.969 l 5
 76.9902 325.597 l 5
 186.99 325.893 l 5
 186.99 263.597 l 5
 198.602 162.188 l 5
 185.99 60.4844 l 5
 185.99 0 l 5x7480
 22.6934 0 l 5
 22.6934 80.1084 l 5
 64.6934 80.1084 l 5xb280
 64.6934 43.5 l 5x7280
 143.99 43.5 l 5
 143.99 119.893 l 5
 33.9902 119.597 l 5
 33.9902 181.893 l 5
 22.3984 283.297 l 5
 34.9902 384.984 l 5
 34.9902 430.624 l 5x75
144.99 283.597 m 5x3180
 75.9902 283.393 l 5
 75.9902 161.893 l 5
 144.99 162.097 l 5
 144.99 283.597 l 5x3180
144.99 283.597 m 4
EndSplineSet
Validated: 1
EndChar

StartChar: paragraph
Encoding: 182 182 99
Width: 259
VWidth: 0
Flags: W
HStem: -0.000976562 21G<184.57 237.962> -0.000976562 21G<184.57 237.962> 410.456 20G<33.6504 163.93 184.57 226.569>
VStem: 33.6504 130.279<202.165 430.456> 121.93 53.3926<-1.15527 61.3347> 121.93 42<38.0579 157.204> 184.57 41.999<39.2069 430.456>
LayerCount: 2
Fore
SplineSet
226.569 430.456 m 5xa2
 226.569 101.688 l 5
 237.962 -0.000976562 l 5
 184.57 -0.000976562 l 5
 184.57 430.456 l 5
 226.569 430.456 l 5xa2
226.569 430.456 m 4
175.322 -1.15527 m 5x2a
 121.93 -1.15527 l 5x2a
 121.93 157.204 l 5x26
 21.0381 156.907 l 5
 33.6504 258.612 l 5
 33.6504 430.456 l 5
 163.93 430.456 l 5x32
 163.93 100.548 l 5x26
 175.322 -1.15527 l 5x2a
175.322 -1.15527 m 4
EndSplineSet
Validated: 1
EndChar

StartChar: cent
Encoding: 162 162 100
Width: 283
VWidth: 0
Flags: W
HStem: -0.000976562 21G<144.336 208.945> -0.000976562 21G<144.336 208.945> 46.9033 46.2988<110.268 149.632 203.541 256.836> 339.702 44.7969<107.025 149.632 203.633 256.836> 411.606 20G<144.336 208.945>
VStem: 155.74 41.8008<93.2021 339.702>
LayerCount: 2
Fore
SplineSet
144.336 431.606 m 5xbc
 208.945 431.606 l 5
 203.633 384.499 l 5
 261.836 384.202 l 5
 256.836 339.702 l 5
 198.633 339.702 l 5
 197.541 329.903 l 5
 197.541 101.702 l 5
 198.541 93.2021 l 5
 256.836 93.2021 l 5
 261.836 48.9033 l 5
 203.541 47.9033 l 5
 208.945 -0.000976562 l 5
 144.336 -0.000976562 l 5
 149.632 46.9033 l 5
 148.239 46.9033 l 6
 -28.6807 48.6553 -13.5723 384.671 148.336 384.702 c 6
 149.632 384.702 l 5
 144.336 431.606 l 5xbc
124.54 339.702 m 5
 95.54 311.294 76.4277 266.919 76.4277 216.702 c 4
 76.4277 166.214 95.6797 121.56 124.928 93.2021 c 5
 154.74 93.2021 l 5
 155.74 101.702 l 5
 155.74 329.903 l 5
 154.633 339.702 l 5
 124.54 339.702 l 5
124.54 339.702 m 4
EndSplineSet
Validated: 33
EndChar

StartChar: hyphen
Encoding: 45 45 101
Width: 253
VWidth: 0
Flags: W
HStem: 177.851 54.5918<25.0293 81.5602> 190.442 54.5957<171.449 227.971> 190.442 42<70.1878 182.788>
VStem: 25.0293 202.941<190.442 232.442>
LayerCount: 2
Fore
SplineSet
227.971 245.038 m 5x50
 227.971 190.442 l 5x50
 126.719 190.442 l 5x30
 25.0293 177.851 l 5
 25.0293 232.442 l 5x90
 126.266 232.442 l 5x30
 227.971 245.038 l 5x50
227.971 245.038 m 4
EndSplineSet
Validated: 1
EndChar

StartChar: underscore
Encoding: 95 95 102
Width: 486
VWidth: 0
Flags: W
HStem: 0 41.8008<66.4734 419.528>
LayerCount: 2
Fore
SplineSet
458.805 53.2051 m 5
 458.805 -11.3867 l 5
 357.104 0 l 5
 128.9 0 l 5
 27.1953 -11.3867 l 5
 27.1953 53.2051 l 5
 128.9 41.8008 l 5
 357.104 41.8008 l 5
 458.805 53.2051 l 5
458.805 53.2051 m 4
EndSplineSet
Validated: 1
EndChar

StartChar: quotesingle
Encoding: 39 39 103
Width: 151
VWidth: 0
Flags: W
HStem: 323.114 108.795<77.4004 82.4004>
VStem: 23.6953 103.609
LayerCount: 2
Fore
SplineSet
82.4004 323.114 m 5
 23.6953 323.114 l 5
 54.9004 377.001 l 5
 77.4004 431.909 l 5
 127.305 431.614 l 5
 82.4004 323.114 l 5
82.4004 323.114 m 4
EndSplineSet
Validated: 1
EndChar

StartChar: uni00B5
Encoding: 181 181 104
Width: 324
VWidth: 0
Flags: W
HStem: 0 43.5<180.5 248.408> 411.608 20G<127 180.5 248.408 303>
VStem: 138.408 42.0918<52.3115 392.31> 248.408 42.0918<43.5 386.86>
LayerCount: 2
Fore
SplineSet
127 431.608 m 1
 180.5 431.608 l 1
 180.5 43.5 l 1
 248.408 43.5 l 1
 248.408 431.608 l 1
 303 431.608 l 1
 290.5 329.907 l 1
 290.5 0 l 1
 167 0 l 1
 91.7041 -181.688 l 1
 21 -181.688 l 1
 94.5 -54.5928 l 1
 138.408 52.3115 l 1
 138.408 329.907 l 1
 127 431.608 l 1
127 431.608 m 0
EndSplineSet
Validated: 1
EndChar

StartChar: ampersand
Encoding: 38 38 105
Width: 380
VWidth: 0
Flags: W
HStem: 0.3125 43.5<75.1943 191.103> 179.908 43.5<75.1943 123.806> 387.607 43.7051<75.1943 116.694> 491.204 42<124.585 191.507 241.007 358.306>
VStem: 33.1025 42.0918<43.8125 179.908 223.408 387.607> 123.806 42<223.408 386.704> 191.103 42<43.8125 484.352> 191.507 49.5<434.583 491.204>
LayerCount: 2
Fore
SplineSet
79.3984 533.204 m 1xfd
 358.306 533.204 l 1
 358.306 491.204 l 1
 241.007 491.204 l 1xfd
 233.603 431.312 l 1
 233.103 0 l 1
 21.6943 0.3125 l 1
 33.1025 102 l 1
 33.1025 329.408 l 1
 21.6943 431.312 l 1
 165.898 431.312 l 1
 165.806 179.812 l 1
 75.1943 179.908 l 1
 75.1943 43.8125 l 1
 191.103 43.8125 l 1xfe
 191.507 430.204 l 1
 191.507 491.204 l 1
 181.103 491.204 l 1
 79.3984 478.607 l 1
 79.3984 533.204 l 1xfd
75.1943 387.607 m 1
 75.1943 223.408 l 1
 123.806 223.408 l 1
 123.806 329.908 l 1
 116.694 387.607 l 1
 75.1943 387.607 l 1
75.1943 387.607 m 0
EndSplineSet
Validated: 1
EndChar

StartChar: sterling
Encoding: 163 163 106
Width: 346
VWidth: 0
Flags: W
HStem: 0 42<139.11 256.406> 163 41.7949<131.702 285.505> 387.795 43.5<131.61 199.61>
VStem: 89.7979 41.9043<46.042 159.295 208.5 387.795> 199.502 54.7002<240.388 296.835> 199.61 42<285.46 387.795>
LayerCount: 2
Fore
SplineSet
89.6104 431.295 m 5xf4
 241.61 431.295 l 5
 241.61 342 l 5xf4
 254.202 240.295 l 5
 199.502 240.388 l 5xf8
 199.61 387.795 l 5
 131.61 387.795 l 5
 131.702 204.795 l 1
 223.11 204.795 l 1
 324.798 216.184 l 1
 324.798 151.592 l 1
 223.11 163 l 1
 131.702 163 l 1
 131.702 101.888 l 1
 139.11 42 l 1
 256.406 42 l 1
 256.406 0 l 1
 89.9062 0 l 1
 89.7979 159.295 l 1
 21.2021 151.592 l 1
 21.2021 216.184 l 1
 89.7979 208.5 l 1
 89.6104 431.295 l 5xf4
89.6104 431.295 m 4
EndSplineSet
Validated: 1
EndChar

StartChar: yen
Encoding: 165 165 107
Width: 296
VWidth: 0
Flags: W
HStem: 0 21G<122.111 186.703> 0 21G<122.111 186.703>
VStem: 133.5 41.8115<127.705 166.312>
LayerCount: 2
Fore
SplineSet
21 433.5 m 5xa0
 91.7031 433.5 l 5
 155.203 277.5 l 5
 219.312 433.5 l 5
 267.203 433.5 l 5
 182.111 224.705 l 5
 180.408 209.312 l 5
 275 219.908 l 5
 275 155.312 l 5
 175.611 166.408 l 5
 175.312 163.812 l 5
 175.312 127.5 l 5
 275 138.705 l 5
 275 74.1084 l 5
 177.203 85.1084 l 5
 186.703 0 l 5
 122.111 0 l 5
 131.611 84.9082 l 5
 35.4082 74.1084 l 5
 35.4082 138.705 l 5
 133.5 127.705 l 5
 133.5 163.812 l 5
 133.203 166.312 l 5
 35.4082 155.312 l 5
 35.4082 219.908 l 5
 128.408 209.5 l 5
 126.203 229.312 l 5
 94.5 306.408 l 5
 21 433.5 l 5xa0
21 433.5 m 4
EndSplineSet
Validated: 1
EndChar

StartChar: copyright
Encoding: 169 169 108
Width: 382
VWidth: 0
Flags: W
HStem: -93.248 43.5<74.6318 360.868> 0 45.1074<192.145 306.024> 291.607 44.8008<188.906 272.524> 390.812 43.5<74.6318 306.024>
VStem: 32.5244 42.1074<-49.748 390.812> 306.024 42<45.7281 390.812>
LayerCount: 2
Fore
SplineSet
32.5244 434.312 m 5
 348.024 434.312 l 5
 348.024 102.812 l 5
 360.632 0 l 5
 230.116 0 l 6
 53.1963 1.76367 68.3203 336.376 230.225 336.408 c 6
 277.524 336.408 l 5
 272.524 291.607 l 5
 206.412 291.607 l 5
 177.428 263.204 158.32 218.812 158.32 168.607 c 4
 158.32 118.124 177.568 73.4678 206.82 45.1074 c 5
 306.024 45.1074 l 5
 306.024 390.812 l 5
 74.6318 390.812 l 5
 74.6318 -49.748 l 5
 360.868 -49.748 l 5
 360.868 -93.248 l 5
 21.1318 -93.248 l 5
 32.5244 8.43555 l 5
 32.5244 434.312 l 5
32.5244 434.312 m 4
EndSplineSet
Validated: 33
EndChar

StartChar: registered
Encoding: 174 174 109
Width: 449
VWidth: 0
Flags: W
HStem: -93.5 43.5<74.5488 427.951> -0.294922 45.0918<323.049 373.156> 199.109 37.5957<173.049 197.344> 393 38.9082<173.049 247.721> 459.312 43.5<74.5488 373.156>
VStem: 32.4512 42.0977<-50 459.312> 131.344 41.7051<39.2139 199.109 236.705 392.695> 373.156 42<45.3545 459.312>
LayerCount: 2
Fore
SplineSet
32.4512 502.812 m 5
 415.156 502.812 l 5
 415.156 102.5 l 5
 427.748 -0.294922 l 5
 278.451 -0.294922 l 5
 197.344 199 l 5
 173.049 199.109 l 5
 173.049 0 l 5
 119.951 0 l 5
 131.344 101.705 l 5
 131.344 330.205 l 5
 119.951 431.908 l 5
 222.951 431.908 l 6
 337.576 430.765 337.141 229.393 244.748 201.812 c 5
 275.656 126.797 l 5
 323.049 44.7969 l 5
 373.156 44.7969 l 5
 373.156 459.312 l 5
 74.5488 459.312 l 5
 74.5488 -50 l 5
 427.951 -50 l 5
 427.951 -93.5 l 5
 21.0488 -93.5 l 5
 32.4512 8.20508 l 5
 32.4512 502.812 l 5
173.049 393 m 5
 173.049 236.705 l 5
 236.844 236.705 l 5
 254.797 254.845 266.844 282.797 266.844 314.705 c 4
 266.844 346.748 254.703 374.893 236.656 393 c 5
 173.049 393 l 5
173.049 393 m 4
EndSplineSet
Validated: 33
EndChar

StartChar: Thorn
Encoding: 222 222 110
Width: 219
VWidth: 0
Flags: W
HStem: 0 21G<21.1953 85.8047> 0 21G<21.1953 85.8047> 64 43.5<78.6035 144.305> 324.108 43.5<78.6035 144.305> 411.608 20G<21.1953 85.8047>
VStem: 32.6035 41.7969<107.5 324.108> 144.305 42.0957<107.5 324.108>
LayerCount: 2
Fore
SplineSet
21.1953 431.608 m 5xbe
 85.8047 431.608 l 5
 78.6035 367.608 l 5
 197.805 367.608 l 5
 186.4 265.907 l 5
 186.4 165.704 l 5
 197.805 64 l 5
 78.6035 64 l 5
 85.8047 0 l 5
 21.1953 0 l 5
 32.6035 101.704 l 5
 32.6035 329.907 l 5
 21.1953 431.608 l 5xbe
74.4004 324.108 m 5
 74.4004 107.5 l 5
 144.305 107.5 l 5
 144.305 324.108 l 5
 74.4004 324.108 l 5
74.4004 324.108 m 4
EndSplineSet
Validated: 1
EndChar

StartChar: guillemotleft
Encoding: 171 171 111
Width: 220
VWidth: 0
Flags: W
HStem: 0 21G<100.592 179.443> 0 21G<100.592 179.443> 410.904 20G<100.596 179.443>
VStem: 20.9434 178.113
LayerCount: 2
Fore
SplineSet
150.057 303.871 m 5x30
 199.057 303.764 l 5
 162.756 215.371 l 5
 198.852 127.672 l 5
 149.756 127.672 l 5
 114.057 215.371 l 5
 150.057 303.871 l 5x30
150.057 303.871 m 4
179.443 430.904 m 5
 105.943 303.812 l 5
 69.6484 215.404 l 5
 105.943 127.107 l 5
 179.443 0 l 5
 108.744 0 l 5xb0
 20.9434 215.404 l 5
 108.744 430.904 l 5
 179.443 430.904 l 5
179.443 430.904 m 4
EndSplineSet
Validated: 1
EndChar

StartChar: guillemotright
Encoding: 187 187 112
Width: 220
VWidth: 0
Flags: W
HStem: 0 21G<40.5547 119.41> 0 21G<40.5547 119.41> 410.892 20G<40.5547 119.406>
VStem: 21.1465 177.908
LayerCount: 2
Fore
SplineSet
69.9453 303.86 m 5x30
 105.945 215.36 l 5
 70.2422 127.655 l 5
 21.1465 127.655 l 5
 57.2422 215.36 l 5
 20.9453 303.769 l 5
 69.9453 303.86 l 5x30
69.9453 303.86 m 4
40.5547 430.892 m 5
 111.258 430.892 l 5
 199.055 215.392 l 5
 111.258 0 l 5
 40.5547 0 l 5xb0
 114.055 127.097 l 5
 150.365 215.392 l 5
 114.055 303.8 l 5
 40.5547 430.892 l 5
40.5547 430.892 m 4
EndSplineSet
Validated: 1
EndChar

StartChar: onehalf
Encoding: 189 189 113
Width: 338
VWidth: 0
Flags: W
HStem: 0 37<240.062 312.415> 126.703 37.0928<262.562 272.471> 174.5 56.7031<211.857 248.857> 193 38.2031<248.857 272.471> 410.903 20G<27.1094 77.2969 211.222 267.346>
VStem: 33.7012 36.9082<200.203 430.903> 211.857 37<174.5 193> 272.471 37<163.796 193.703>
LayerCount: 2
Fore
SplineSet
211.857 231.203 m 5xef
 309.471 231.203 l 5
 309.471 186.5 l 5
 316.857 126.607 l 5
 262.562 126.703 l 5
 240.062 37 l 5
 255.857 37 l 5
 315.674 44.4033 l 5
 315.674 0 l 5
 186.562 0 l 5
 230.971 163.796 l 5
 272.471 163.796 l 5
 272.471 193.703 l 5
 248.857 193 l 5xdf
 248.857 174.5 l 5
 211.857 174.5 l 5
 211.857 231.203 l 5xef
211.857 231.203 m 4xef
219.438 430.903 m 5
 267.346 430.903 l 5
 91.8457 0 l 5
 21.1426 0 l 5
 94.6426 127.092 l 5
 219.438 430.903 l 5
219.438 430.903 m 4
27.1094 430.903 m 5
 77.2969 430.903 l 5
 70.6094 371.203 l 5
 70.6094 260 l 5
 77.2969 200.203 l 5
 27.1094 200.203 l 5
 33.7012 259.107 l 5
 33.7012 372 l 5
 27.1094 430.903 l 5
27.1094 430.903 m 4
EndSplineSet
Validated: 1
EndChar

StartChar: threequarters
Encoding: 190 190 114
Width: 362
VWidth: 0
Flags: W
HStem: 0 21G<53.9062 132.755 280.938 325.342> 0 21G<53.9062 132.755 280.938 325.342> 61.5918 37.1084<260.25 288.142 326.25 341.25> 201.484 37<26.015 86.9541> 376.685 56<27.3574 64.3574> 394.984 37.7002<64.3574 88.0459>
VStem: 27.3574 37<376.685 394.984> 88.0459 37<368.28 394.984> 280.938 44.4043<0 56.5003> 288.142 38.1084<6.50174 61.5918 98.7002 98.7002>
LayerCount: 2
Fore
SplineSet
252.201 430.889 m 5xb3
 300.109 430.889 l 5
 124.609 0 l 5
 53.9062 0 l 5
 127.406 127.092 l 5
 252.201 430.889 l 5xb3
252.201 430.889 m 4
273.046 231.297 m 5
 327.642 231.297 l 5
 284.342 156.5 l 5
 260.25 98.7002 l 5
 288.142 98.7002 l 5
 288.142 149.092 l 5
 332.438 149.092 l 5
 326.25 98.7002 l 5xb340
 341.25 98.7002 l 5
 341.25 61.7002 l 5
 325.142 61.7002 l 5
 325.342 0 l 5
 280.938 0 l 5xb380
 288.233 58.8887 l 5
 288.233 61.5918 l 5
 203.733 61.5918 l 5
 273.046 231.297 l 5
273.046 231.297 m 4
22.75 201.484 m 5
 22.75 245.889 l 5
 82.5459 238.484 l 5
 86.9541 238.484 l 5
 64.25 293.576 l 5
 20.75 368.685 l 5
 88.0459 368.28 l 5
 88.0459 394.984 l 5
 64.3574 394.984 l 5x37
 64.3574 376.685 l 5
 27.3574 376.685 l 5
 27.3574 432.685 l 5x3b
 125.046 432.685 l 5x37
 125.046 390.185 l 5
 132.357 331.185 l 5
 90.6543 331.28 l 5
 143.454 201.484 l 5
 22.75 201.484 l 5
22.75 201.484 m 4
EndSplineSet
Validated: 1
EndChar

StartChar: onequarter
Encoding: 188 188 115
Width: 341
VWidth: 0
Flags: W
HStem: 0 21G<20.8203 99.669 259.885 304.271> 0 21G<20.8203 99.669 259.885 304.271> 61.6113 37.0918<239.18 267.088 305.18 320.18> 410.908 20G<26.7715 76.9766 210.9 267.023>
VStem: 33.3848 36.8867<200.203 430.908> 259.885 44.3867<0 56.5266> 267.088 38.0918<7.6963 61.6113 98.7031 98.7031>
LayerCount: 2
Fore
SplineSet
251.977 231.3 m 5xbc
 306.588 231.3 l 5
 263.271 156.5 l 5
 239.18 98.7031 l 5
 267.088 98.7031 l 5
 267.088 149.111 l 5
 311.385 149.111 l 5
 305.18 98.7031 l 5xba
 320.18 98.7031 l 5
 320.18 61.7031 l 5
 304.088 61.7031 l 5
 304.271 0 l 5
 259.885 0 l 5
 267.18 58.9082 l 5
 267.18 61.6113 l 5
 182.68 61.6113 l 5
 251.977 231.3 l 5xbc
251.977 231.3 m 4
219.116 430.908 m 5
 267.023 430.908 l 5
 91.5234 0 l 5
 20.8203 0 l 5
 94.3203 127.111 l 5
 219.116 430.908 l 5
219.116 430.908 m 4
26.7715 430.908 m 5
 76.9766 430.908 l 5
 70.2715 371.203 l 5
 70.2715 260 l 5
 76.9766 200.203 l 5
 26.7715 200.203 l 5
 33.3848 259.111 l 5
 33.3848 372 l 5
 26.7715 430.908 l 5
26.7715 430.908 m 4
EndSplineSet
Validated: 1
EndChar

StartChar: multiply
Encoding: 215 215 116
Width: 204
VWidth: 0
Flags: W
HStem: 90 231.407
VStem: 20.9004 162.199
LayerCount: 2
Fore
SplineSet
20.9004 321.407 m 5
 75.4922 321.407 l 5
 101.992 256.407 l 5
 128.492 321.407 l 5
 183.1 321.407 l 5
 139.9 246.8 l 5
 123.1 205.703 l 5
 139.9 164.596 l 5
 183.1 90 l 5
 128.492 90 l 5
 101.992 155.096 l 5
 75.4922 90 l 5
 20.9004 90 l 5
 64.0996 164.596 l 5
 80.9922 205.703 l 5
 64.0996 246.8 l 5
 20.9004 321.407 l 5
20.9004 321.407 m 4
EndSplineSet
Validated: 1
EndChar

StartChar: asterisk
Encoding: 42 42 117
Width: 274
VWidth: 0
Flags: W
HStem: 297.705 36.8926<21.6484 108.352 165.648 252.352>
VStem: 21.6484 230.703
LayerCount: 2
Fore
SplineSet
55.8516 431.909 m 5
 110.443 431.909 l 5
 136.943 366.909 l 5
 163.443 431.909 l 5
 218.057 431.909 l 5
 174.852 357.302 l 5
 165.557 334.598 l 5
 192.557 334.598 l 5
 252.352 341.302 l 5
 252.352 291.098 l 5
 193.443 297.705 l 5
 165.648 297.705 l 5
 174.852 275.098 l 5
 218.057 200.502 l 5
 163.443 200.502 l 5
 136.943 265.598 l 5
 110.443 200.502 l 5
 55.8516 200.502 l 5
 99.0566 275.098 l 5
 108.352 297.705 l 5
 80.5566 297.705 l 5
 21.6484 291.098 l 5
 21.6484 341.302 l 5
 81.3516 334.598 l 5
 108.352 334.598 l 5
 99.0566 357.302 l 5
 55.8516 431.909 l 5
55.8516 431.909 m 4
EndSplineSet
Validated: 1
EndChar

StartChar: quotedbl
Encoding: 34 34 118
Width: 243
VWidth: 0
Flags: W
HStem: 323.721 108.797
VStem: 23.5312 195.938
LayerCount: 2
Fore
SplineSet
174.576 323.721 m 5
 115.871 323.721 l 5
 147.076 377.613 l 5
 169.576 432.518 l 5
 219.469 432.221 l 5
 174.576 323.721 l 5
174.576 323.721 m 4
82.2324 323.409 m 5
 23.5312 323.426 l 5
 54.7324 377.317 l 5
 77.2324 432.221 l 5
 127.125 431.909 l 5
 82.2324 323.409 l 5
82.2324 323.409 m 4
EndSplineSet
Validated: 1
EndChar

StartChar: less
Encoding: 60 60 119
Width: 200
VWidth: 0
Flags: W
HStem: 0 21G<100.399 179.25> 0 21G<100.399 179.25> 410.904 20G<100.402 179.25>
VStem: 20.75 158.5
LayerCount: 2
Fore
SplineSet
179.25 430.904 m 1xb0
 105.75 303.812 l 1
 69.4551 215.404 l 1
 105.75 127.107 l 1
 179.25 0 l 1
 108.551 0 l 1
 20.75 215.404 l 1
 108.551 430.904 l 1
 179.25 430.904 l 1xb0
179.25 430.904 m 0
EndSplineSet
Validated: 1
EndChar

StartChar: greater
Encoding: 62 62 120
Width: 200
VWidth: 0
Flags: W
HStem: 0 21G<20.75 99.6054> 0 21G<20.75 99.6054> 410.892 20G<20.75 99.6013>
VStem: 20.75 158.5
LayerCount: 2
Fore
SplineSet
20.75 430.892 m 1xb0
 91.4531 430.892 l 1
 179.25 215.392 l 1
 91.4531 0 l 1
 20.75 0 l 1
 94.25 127.097 l 1
 130.561 215.392 l 1
 94.25 303.8 l 1
 20.75 430.892 l 1xb0
20.75 430.892 m 0
EndSplineSet
Validated: 1
EndChar

StartChar: bar
Encoding: 124 124 121
Width: 107
VWidth: 0
Flags: W
HStem: 0 21G<32.7438 85.8516> 0 21G<32.7438 85.8516>
VStem: 32.7559 41.6875<40.9707 391.63>
LayerCount: 2
Fore
SplineSet
21.1484 432 m 5xa0
 74.2559 432 l 5
 74.4434 101.704 l 5
 85.8516 0 l 5
 32.7559 0 l 5
 32.5566 330.297 l 5
 21.1484 432 l 5xa0
21.1484 432 m 4
EndSplineSet
Validated: 1
EndChar

StartChar: brokenbar
Encoding: 166 166 122
Width: 107
VWidth: 0
Flags: W
HStem: 0 21G<32.73 85.8516> 0 21G<32.73 85.8516>
VStem: 21.1484 53.0918<369.483 432> 32.6484 41.7959<41.1135 179.797 252.204 391.391> 32.7402 53.1113<0 62.4103>
LayerCount: 2
Fore
SplineSet
21.1484 432 m 5x20
 74.2402 432 l 5
 74.3516 252.204 l 5
 32.5361 252.204 l 5
 32.5361 330.297 l 5
 21.1484 432 l 5x20
32.6484 179.797 m 5x90
 74.4443 179.797 l 5
 74.4443 101.704 l 5x90
 85.8516 0 l 5
 32.7402 0 l 5x88
 32.6484 179.797 l 5x90
32.6484 179.797 m 4
EndSplineSet
Validated: 1
EndChar

StartChar: AE
Encoding: 198 198 123
Width: 582
VWidth: 0
Flags: W
HStem: 0 43.5<471.554 560.554> 145.204 42.2002<168.446 341.054> 188.404 54.7041<503.917 560.446> 188.5 43.6084<471.554 528.19> 388.108 43.4834<471.554 560.554>
VStem: 429.446 42.1074<92.2041 188.5 232.108 388.108>
LayerCount: 2
Fore
SplineSet
418.054 431.592 m 5xdc
 560.554 431.608 l 5
 560.554 388.108 l 5
 471.554 388.108 l 5
 471.554 232.108 l 5xdc
 560.554 243.108 l 5
 560.446 188.404 l 5xec
 471.554 188.5 l 5
 471.554 43.5 l 5
 560.554 43.5 l 5
 560.554 0 l 5
 418.054 0 l 5
 358.446 145.204 l 5
 151.242 145.204 l 5
 92.1504 0 l 5
 21.4463 0 l 5
 94.9463 127.092 l 5
 219.742 430.904 l 5
 290.446 430.904 l 5
 428.35 92.2041 l 5
 429.446 101.704 l 5
 429.446 329.904 l 5
 418.054 431.592 l 5xdc
247.85 382.296 m 5
 168.446 187.404 l 5
 341.054 187.404 l 5
 293.242 303.796 l 5
 247.85 382.296 l 5
247.85 382.296 m 4
EndSplineSet
Validated: 1
EndChar

StartChar: OE
Encoding: 338 338 124
Width: 367
VWidth: 0
Flags: W
HStem: 0 44.9072<134.717 207.821 262.226 345.321> 189.812 54.7041<288.685 345.226> 189.907 43.6084<256.321 312.958> 389.516 44.8916<130.467 207.617 262.025 345.321>
VStem: 213.525 42.7959<45.7031 189.907 233.516 389.516>
LayerCount: 2
Fore
SplineSet
183.117 434.407 m 6xb8
 345.321 433.016 l 5
 345.321 389.516 l 5
 262.025 389.516 l 5
 256.321 338.312 l 5
 256.321 233.516 l 5xb8
 345.321 244.516 l 5
 345.226 189.812 l 5xd8
 256.321 189.907 l 5
 256.321 97.7031 l 5
 262.226 44.9072 l 5
 345.321 44.9072 l 5
 345.321 1.40723 l 5
 183.117 0 l 5
 -42.5381 2.25195 -21.4746 434.375 183.117 434.407 c 6xb8
147.821 390.312 m 5
 106.197 350.828 79.2256 288.5 79.2256 218.312 c 4
 79.2256 147.752 106.414 85.1279 148.43 45.7031 c 5
 207.821 45.7031 l 5
 213.525 96.9072 l 5
 213.525 337.5 l 5
 207.617 390.312 l 5
 147.821 390.312 l 5
147.821 390.312 m 4
EndSplineSet
Validated: 33
EndChar

StartChar: acircumflex
Encoding: 226 226 125
Width: 395
VWidth: 0
Flags: W
HStem: 0 21G<21.1504 96.8049 316.827 373.85> 0 21G<21.1504 96.8049 316.827 373.85> 108.904 43.5957<150.758 262.35> 302.5 52.7051<152.445 163.35 250.258 259.65>
VStem: 152.445 107.205<303.705 355.205>
LayerCount: 2
Fore
SplineSet
152.445 355.205 m 5xb8
 259.65 355.205 l 5
 259.65 302.5 l 5
 250.258 303.5 l 5
 373.85 0 l 5
 325.054 0 l 5
 280.258 108.904 l 5
 133.054 108.904 l 5
 88.6504 0 l 5
 21.1504 0 l 5
 81.1504 103.608 l 5
 163.35 303.705 l 5
 152.445 302.5 l 5
 152.445 355.205 l 5xb8
202.35 279 m 5
 150.758 152.5 l 5
 262.35 152.5 l 5
 229.85 231.5 l 5
 202.35 279 l 5
202.35 279 m 4
EndSplineSet
Validated: 1
EndChar

StartChar: aacute
Encoding: 225 225 126
Width: 395
VWidth: 0
Flags: W
HStem: 0 21G<21.1484 96.7113 316.751 373.852> 0 21G<21.1484 96.7113 316.751 373.852> 108.903 43.5967<150.76 262.26> 303.203 43.5<152.46 163.148>
VStem: 152.46 107.097<303.203 346.703>
LayerCount: 2
Fore
SplineSet
259.557 355.903 m 5xb8
 259.557 303.203 l 5
 250.26 303.203 l 5
 373.852 0 l 5
 324.96 0 l 5
 280.26 108.903 l 5
 132.96 108.903 l 5
 88.5566 0 l 5
 21.1484 0 l 5
 81.0566 103.607 l 5
 163.148 303.203 l 5
 152.46 303.203 l 5
 152.46 346.703 l 5
 177.352 346.703 l 5
 259.557 355.903 l 5xb8
202.26 279.107 m 5
 150.76 152.5 l 5
 262.26 152.5 l 5
 230.148 230.903 l 5
 202.26 279.107 l 5
202.26 279.107 m 4
EndSplineSet
Validated: 1
EndChar

StartChar: agrave
Encoding: 224 224 127
Width: 395
VWidth: 0
Flags: W
HStem: 0 21G<21.1562 96.6984 316.742 373.844> 0 21G<21.1562 96.6984 316.742 373.844> 108.904 43.5957<150.748 262.248> 303.205 43.5<250.248 259.543>
VStem: 152.451 107.092<303.205 346.705>
LayerCount: 2
Fore
SplineSet
152.451 355.205 m 5xb8
 158.748 355.205 l 5
 159.043 355.205 l 5
 234.656 346.705 l 5
 259.543 346.705 l 5
 259.543 303.205 l 5
 250.248 303.205 l 5
 373.844 0 l 5
 324.951 0 l 5
 280.248 108.904 l 5
 132.951 108.904 l 5
 88.543 0 l 5
 21.1562 0 l 5
 81.043 103.608 l 5
 163.156 303.205 l 5
 152.451 303.205 l 5
 152.451 355.205 l 5xb8
202.248 279.108 m 5
 150.748 152.5 l 5
 262.248 152.5 l 5
 230.156 230.904 l 5
 202.248 279.108 l 5
202.248 279.108 m 4
EndSplineSet
Validated: 1
EndChar

StartChar: adieresis
Encoding: 228 228 128
Width: 395
VWidth: 0
Flags: W
HStem: 0 21G<21.1504 96.7061 316.736 373.85> 0 21G<21.1504 96.7061 316.736 373.85> 108.904 43.5967<150.646 262.242> 303.313 51.8926<156.742 163.15 250.35 257.038>
VStem: 150.242 49.7959<335.108 355.206> 208.85 48.1885<335.108 355.206>
LayerCount: 2
Fore
SplineSet
150.242 355.206 m 5xbc
 200.038 355.206 l 5
 200.038 335.108 l 5
 211.445 335.108 l 5
 208.85 355.206 l 5
 257.038 355.206 l 5
 257.038 303.313 l 5
 250.35 303.313 l 5
 373.85 0 l 5
 324.945 0 l 5
 280.242 108.904 l 5
 132.945 108.904 l 5
 88.5537 0 l 5
 21.1504 0 l 5
 81.0381 103.607 l 5
 163.15 303.313 l 5
 156.742 303.313 l 5
 150.242 355.206 l 5xbc
202.242 279.108 m 5
 150.646 152.501 l 5
 262.242 152.501 l 5
 230.15 230.905 l 5
 202.242 279.108 l 5
202.242 279.108 m 4
EndSplineSet
Validated: 1
EndChar

StartChar: edieresis
Encoding: 235 235 129
Width: 163
VWidth: 0
Flags: W
HStem: 0 44.6875<74.4902 141.307> 141.295 53.8926<84.925 141.193> 141.392 45.5<74.4902 130.855> 291.096 64.7959<74.4902 77.3984 89.6016 134.79> 291.096 44.5918<77.3984 89.6016 134.79 141.29>
VStem: 30.9902 43.5<44.6875 141.392 186.892 291.096 335.688 355.892> 89.6016 45.1885<335.688 355.892>
LayerCount: 2
Fore
SplineSet
28.1016 355.892 m 5x96
 77.3984 355.892 l 5x96
 77.3984 335.688 l 5
 89.6016 335.688 l 5x8e
 87.1016 355.892 l 5
 134.79 355.892 l 5x96
 134.79 335.688 l 5
 141.29 335.688 l 5
 141.29 291.096 l 5x8e
 74.4902 291.096 l 5
 74.4902 186.892 l 5xb6
 141.29 195.188 l 5
 141.193 141.295 l 5xc6
 74.4902 141.392 l 5
 74.4902 44.6875 l 5
 141.307 44.6875 l 5
 141.307 0 l 5
 21.6934 0 l 5
 30.9902 83 l 5
 30.9902 252.795 l 5
 21.6934 335.688 l 5
 30.6016 335.688 l 5xae
 28.1016 355.892 l 5x96
28.1016 355.892 m 4
EndSplineSet
Validated: 1
EndChar

StartChar: eacute
Encoding: 233 233 130
Width: 163
VWidth: 0
Flags: W
HStem: -0.000976562 44.6875<74.6104 141.298> 141.296 53.8906<85.0069 141.202> 141.392 45.5<74.6104 130.885> 291.095 55.7012<74.5938 121.524>
VStem: 31.002 110.296<141.392 186.892 335.687 346.796> 31.002 43.5918<48.2668 141.392 186.892 287.482>
LayerCount: 2
Fore
SplineSet
141.202 355.999 m 5xb4
 141.298 291.095 l 5xb8
 74.5938 291.095 l 5
 74.5938 186.892 l 5xb4
 141.298 195.187 l 5
 141.202 141.296 l 5xd8
 74.6104 141.392 l 5
 74.6104 44.6865 l 5
 141.298 44.6865 l 5
 141.298 -0.000976562 l 5xb8
 21.7021 -0.000976562 l 5
 31.002 82.999 l 5
 31.002 252.796 l 5
 21.7021 335.687 l 5
 34.1104 335.687 l 5
 34.1104 346.796 l 5
 59.002 346.796 l 5
 141.202 355.999 l 5xb4
141.202 355.999 m 4
EndSplineSet
Validated: 1
EndChar

StartChar: egrave
Encoding: 232 232 131
Width: 163
VWidth: 0
Flags: W
HStem: -0.000976562 44.5957<74.5 141.296> 141.296 53.7988<84.9541 141.204> 141.392 45.4043<74.5 130.842> 291.095 55.5918<74.5 141.296>
VStem: 30.9043 110.392<141.392 186.796 335.687 346.687> 30.9043 43.5957<48.1926 141.392 186.796 287.494>
LayerCount: 2
Fore
SplineSet
34.0918 355.999 m 5xb4
 117 346.687 l 5
 141.296 346.687 l 5
 141.296 291.095 l 5xb8
 74.5 291.095 l 5
 74.5 186.796 l 5xb4
 141.296 195.095 l 5
 141.204 141.296 l 5xd8
 74.5 141.392 l 5
 74.5 44.5947 l 5xb4
 141.296 44.5947 l 5
 141.296 -0.000976562 l 5xb8
 21.7041 -0.000976562 l 5
 30.9043 82.2959 l 5
 30.9043 253.392 l 5
 21.7041 335.687 l 5
 34.0918 335.687 l 5
 34.0918 355.999 l 5xb4
34.0918 355.999 m 4
EndSplineSet
Validated: 1
EndChar

StartChar: ecircumflex
Encoding: 234 234 132
Width: 163
VWidth: 0
Flags: W
HStem: -0.000976562 44.5977<74.5957 141.296> 141.296 53.8008<85.048 141.204> 141.392 45.4043<74.5957 130.844> 291.097 64.1992<74.5957 141.204>
VStem: 31 110.296<141.392 186.796 335.688 355.296> 31 43.5957<48.1388 141.392 186.796 287.611>
LayerCount: 2
Fore
SplineSet
34.0957 355.296 m 5xb4
 141.204 355.296 l 5
 141.296 291.097 l 5xb8
 74.5957 291.097 l 5
 74.5957 186.796 l 5xb4
 141.296 195.097 l 5
 141.204 141.296 l 5xd8
 74.5957 141.392 l 5
 74.5957 44.5967 l 5xb4
 141.296 44.5967 l 5
 141.296 -0.000976562 l 5xb8
 21.7041 -0.000976562 l 5
 31 82.999 l 5
 31 252.796 l 5
 21.7041 335.688 l 5
 34.0957 335.688 l 5
 34.0957 355.296 l 5xb4
34.0957 355.296 m 4
EndSplineSet
Validated: 1
EndChar

StartChar: igrave
Encoding: 236 236 133
Width: 149
VWidth: 0
Flags: W
HStem: 0 21G<43.6553 105.454> 0 21G<43.6553 105.454> 303.2 43.5<41.0101 128.046>
VStem: 20.9541 107.092<303.2 346.7> 52.8428 43.4082<19.7007 275.199>
LayerCount: 2
Fore
SplineSet
20.9541 356 m 5x30
 27.5459 355.2 l 5
 103.843 346.7 l 5
 128.046 346.7 l 5
 128.046 303.2 l 5
 20.9541 303.2 l 5
 20.9541 356 l 5x30
105.454 294.903 m 5
 96.251 212.592 l 5
 96.251 82.2959 l 5
 105.454 0 l 5
 43.6553 0 l 5
 52.8428 82.2959 l 5
 52.8428 212.592 l 5xa8
 43.6553 294.903 l 5
 105.454 294.903 l 5
105.454 294.903 m 4
EndSplineSet
Validated: 1
EndChar

StartChar: iacute
Encoding: 237 237 134
Width: 149
VWidth: 0
Flags: W
HStem: -0.000976562 21G<43.5459 105.342> -0.000976562 21G<43.5459 105.342> 303.204 43.5<20.9541 107.99>
VStem: 20.9541 107.092<303.204 346.704> 52.75 43.4082<19.7104 275.2>
LayerCount: 2
Fore
SplineSet
128.046 355.999 m 5x30
 128.046 303.204 l 5
 20.9541 303.204 l 5
 20.9541 346.704 l 5
 45.1582 346.704 l 5
 121.454 355.204 l 5
 128.046 355.999 l 5x30
43.5459 294.907 m 5
 105.342 294.907 l 5
 96.1582 212.61 l 5
 96.1582 82.3115 l 5
 105.342 -0.000976562 l 5
 43.5459 -0.000976562 l 5
 52.75 82.3115 l 5
 52.75 212.61 l 5xa8
 43.5459 294.907 l 5
43.5459 294.907 m 4
EndSplineSet
Validated: 1
EndChar

StartChar: icircumflex
Encoding: 238 238 135
Width: 149
VWidth: 0
Flags: W
HStem: 0 21G<43.6582 105.454> 0 21G<43.6582 105.454> 302.5 52.8125<20.9541 128.046>
VStem: 20.9541 107.092<308.5 355.312> 52.8418 43.4082<19.7113 274.997>
LayerCount: 2
Fore
SplineSet
43.6582 294.704 m 5xa8
 105.454 294.704 l 5
 96.25 212.408 l 5
 96.25 82.3125 l 5
 105.454 0 l 5
 43.6582 0 l 5
 52.8418 82.3125 l 5
 52.8418 212.408 l 5
 43.6582 294.704 l 5xa8
43.6582 294.704 m 4
20.9541 355.312 m 5x30
 128.046 355.312 l 5
 128.046 302.5 l 5
 74.5459 308.5 l 5
 20.9541 302.5 l 5
 20.9541 355.312 l 5x30
20.9541 355.312 m 4
EndSplineSet
Validated: 1
EndChar

StartChar: idieresis
Encoding: 239 239 136
Width: 149
VWidth: 0
Flags: W
HStem: 0 21G<43.9746 105.85> 0 21G<43.9746 105.85> 303.372 51.9072<27.5547 71.1172 85.0703 127.898>
VStem: 27.5547 43.5625<303.372 355.279> 53.1934 43.3613<20.4809 274.423> 85.0703 42.8281<303.372 355.279>
LayerCount: 2
Fore
SplineSet
43.9746 294.904 m 5xa8
 105.85 294.904 l 5
 96.5547 211.952 l 5
 96.5547 82.9521 l 5
 105.85 0 l 5
 43.9746 0 l 5
 53.1934 82.2793 l 5
 53.1934 212.624 l 5
 43.9746 294.904 l 5xa8
43.9746 294.904 m 4
78.6172 355.279 m 5
 127.898 355.279 l 5
 127.898 303.372 l 5
 85.0703 303.372 l 5x24
 78.6172 355.279 l 5
78.6172 355.279 m 4
21.1016 355.279 m 5
 71.1172 355.279 l 5
 71.1172 303.372 l 5
 27.5547 303.372 l 5x30
 21.1016 355.279 l 5
21.1016 355.279 m 4
EndSplineSet
Validated: 1
EndChar

StartChar: ae
Encoding: 230 230 137
Width: 464
VWidth: 0
Flags: W
HStem: 0 44.5957<375.602 442.398> 108.893 43.7031<151.197 262.807> 141.301 53.7949<385.398 442.289> 141.393 45.5<375.602 432.602> 291.096 44.5918<375.602 442.398>
VStem: 331.994 43.6074<103.893 141.393 186.893 291.096>
LayerCount: 2
Fore
SplineSet
322.807 335.688 m 5xcc
 442.398 335.688 l 5
 442.398 291.096 l 5
 375.602 291.096 l 5
 375.602 186.893 l 5x9c
 442.398 195.096 l 5
 442.289 141.301 l 5xac
 375.602 141.393 l 5x9c
 375.602 44.5957 l 5
 442.398 44.5957 l 5
 442.398 0 l 5
 325.494 0 l 5
 280.697 108.893 l 5
 133.398 108.893 l 5
 89.1016 0 l 5
 21.6016 0 l 5
 81.6016 103.596 l 5
 81.8066 104 l 5
 176.697 335.188 l 5
 237.807 335.188 l 5
 331.994 103.893 l 5
 331.994 253.393 l 5
 322.807 335.688 l 5xcc
202.807 279.096 m 5
 151.197 152.596 l 5
 262.807 152.596 l 5xcc
 230.307 231.596 l 5
 202.807 279.096 l 5
202.807 279.096 m 4
EndSplineSet
Validated: 1
EndChar

StartChar: oe
Encoding: 339 339 138
Width: 298
VWidth: 0
Flags: W
HStem: 0 45.1396<110.718 161.887 213.482 276.387> 141.844 53.7959<220.106 276.278> 141.951 45.3926<209.687 265.967> 291.64 44.5<107.15 161.778 213.278 276.387>
VStem: 165.574 44.1123<45.748 141.951 187.344 291.64>
LayerCount: 2
Fore
SplineSet
148.778 337.248 m 6xb8
 276.387 336.14 l 5
 276.387 291.64 l 5
 213.278 291.64 l 5
 209.687 259.248 l 5
 209.687 187.344 l 5xb8
 276.387 195.64 l 5
 276.278 141.844 l 5xd8
 209.687 141.951 l 5
 209.687 78.748 l 5
 213.482 45.1396 l 5
 276.387 45.1396 l 5
 276.387 0 l 5
 148.687 0 l 6
 -28.2217 1.74805 -13.1299 337.199 148.778 337.248 c 6xb8
124.887 292.248 m 5
 95.8867 263.844 76.7783 219.451 76.7783 169.248 c 4
 76.7783 118.764 96.123 74.1074 125.387 45.748 c 5
 161.887 45.748 l 5
 165.574 78.8438 l 5
 165.574 257.951 l 5
 161.778 292.248 l 5
 124.887 292.248 l 5
124.887 292.248 m 4
EndSplineSet
Validated: 33
EndChar

StartChar: Ntilde
Encoding: 209 209 139
Width: 293
VWidth: 0
Flags: W
HStem: -0.59668 21G<21.0566 74.1484 193.096 271.943> -0.59668 21G<21.0566 74.1484 193.096 271.943> 411.903 20G<21.0566 82.2882> 462.092 54.6113<45.0234 101.476> 474.703 54.5918<191.43 247.961> 474.703 42<90.2765 202.802>
VStem: 32.4434 41.7051<39.181 311.5> 218.24 41.7031<92.3115 392.707>
LayerCount: 2
Fore
SplineSet
247.961 529.295 m 5x2b
 247.961 474.703 l 5x2b
 146.729 474.703 l 5x27
 45.0234 462.092 l 5
 45.0234 516.703 l 5x33
 146.271 516.703 l 5x27
 247.961 529.295 l 5x2b
247.961 529.295 m 4
218.24 432 m 5
 271.352 432 l 5
 259.943 330.312 l 5
 259.943 101.703 l 5
 271.943 -0.59668 l 5
 201.24 -0.59668 l 5xa3
 74.1484 311.5 l 5
 74.1484 0 l 5
 21.0566 0 l 5
 32.4434 101.703 l 5
 32.4434 330.203 l 5
 21.0566 431.903 l 5
 74.1484 431.903 l 5
 198.443 126.5 l 5
 218.24 92.3115 l 5
 218.24 432 l 5
218.24 432 m 4
EndSplineSet
Validated: 1
EndChar

StartChar: degree
Encoding: 176 176 140
Width: 147
VWidth: 0
Flags: W
HStem: 282.929 37.7949<62.3955 77.9912> 394.019 37.8906<64.9912 77.9912>
VStem: 25.3955 37<320.724 394.019> 77.9912 37<320.632 394.019>
LayerCount: 2
Fore
SplineSet
64.9912 394.019 m 5
 62.3955 373.019 l 5
 62.3955 320.724 l 5
 77.9912 320.632 l 5
 77.9912 394.019 l 5
 64.9912 394.019 l 5
25.3037 431.909 m 5
 121.696 431.909 l 5
 114.991 372.019 l 5
 114.991 342.632 l 5
 121.696 282.929 l 5
 25.3955 282.929 l 5
 25.3037 431.909 l 5
EndSplineSet
Validated: 1
EndChar

StartChar: ordfeminine
Encoding: 170 170 141
Width: 247
VWidth: 0
Flags: W
HStem: 121.909 54.5938<22.0293 78.5602> 134.503 54.6113<168.519 224.971> 134.503 42<67.2035 179.718> 200.114 37.7949<107.578 140.971>
VStem: 140.971 37.6992<237.909 332.675>
LayerCount: 2
Fore
SplineSet
144.873 431.909 m 5x18
 178.67 431.909 l 5
 178.67 200.114 l 5
 49.6699 200.114 l 5
 144.873 431.909 l 5x18
140.873 332.675 m 5
 107.578 237.909 l 5
 140.971 237.909 l 5
 140.873 332.675 l 5
140.873 332.675 m 4
224.971 189.114 m 5x58
 224.971 134.503 l 5x58
 123.734 134.503 l 5x38
 22.0293 121.909 l 5
 22.0293 176.503 l 5x98
 123.266 176.503 l 5x38
 224.971 189.114 l 5x58
224.971 189.114 m 4
EndSplineSet
Validated: 1
EndChar

StartChar: uni00B2
Encoding: 178 178 142
Width: 175
VWidth: 0
Flags: W
HStem: 200.705 37<75.8516 148.276> 327.409 37.0957<98.3516 108.24> 375.205 56.7041<47.6484 84.6484> 393.705 38.2041<84.6484 108.24>
VStem: 47.6484 37<375.205 393.705> 108.24 37<364.505 394.409>
LayerCount: 2
Fore
SplineSet
47.6484 431.909 m 5xec
 145.24 431.909 l 5
 145.24 387.205 l 5
 152.648 327.301 l 5
 98.3516 327.409 l 5
 75.8516 237.705 l 5
 91.6484 237.705 l 5
 151.444 245.097 l 5
 151.444 200.705 l 5
 22.3516 200.705 l 5
 66.7402 364.505 l 5
 108.24 364.505 l 5
 108.24 394.409 l 5
 84.6484 393.705 l 5xdc
 84.6484 375.205 l 5
 47.6484 375.205 l 5
 47.6484 431.909 l 5xec
47.6484 431.909 m 4xec
EndSplineSet
Validated: 1
EndChar

StartChar: uni00B3
Encoding: 179 179 143
Width: 168
VWidth: 0
Flags: W
HStem: 200.705 37<27.8163 88.8516> 375.909 56<29.2559 66.2559> 394.205 37.7041<66.2559 89.9434>
VStem: 29.2559 37<375.909 394.205> 89.9434 37<367.505 394.205>
LayerCount: 2
Fore
SplineSet
24.6484 200.705 m 5xb8
 24.6484 245.097 l 5
 84.4434 237.705 l 5
 88.8516 237.705 l 5
 66.1484 292.801 l 5
 22.6484 367.909 l 5
 89.9434 367.505 l 5
 89.9434 394.205 l 5
 66.2559 394.205 l 5xb8
 66.2559 375.909 l 5
 29.2559 375.909 l 5
 29.2559 431.909 l 5xd8
 126.943 431.909 l 5
 126.943 389.409 l 5
 134.256 330.409 l 5
 92.5527 330.505 l 5
 145.352 200.705 l 5
 24.6484 200.705 l 5xb8
24.6484 200.705 m 4
EndSplineSet
Validated: 1
EndChar

StartChar: ccedilla
Encoding: 231 231 144
Width: 216
VWidth: 0
Flags: W
HStem: 292.3 45<106.693 190.142>
LayerCount: 2
Fore
SplineSet
147.845 337.3 m 6
 195.249 336.8 l 5
 190.142 292.3 l 5
 123.937 292.3 l 5
 94.9541 263.892 75.9365 219.517 75.9365 169.3 c 4
 75.9365 118.812 95.1885 74.1719 124.437 45.7998 c 5
 187.108 45.7998 l 5
 192.437 1.2041 l 5
 149.546 -102.5 l 5
 82.0459 -102.5 l 5
 141.345 0 l 5
 -28.626 9.8916 -12.0303 337.269 147.845 337.3 c 6
147.845 337.3 m 4
EndSplineSet
Validated: 33
EndChar

StartChar: oacute
Encoding: 243 243 145
Width: 217
VWidth: 0
Flags: W
HStem: 0 44.6123<73.8574 143.047> 291 55.7041<73.8574 141.575>
VStem: 30.25 43.6074<44.6123 291> 143.047 43.6113<44.6123 291>
LayerCount: 2
Fore
SplineSet
162.047 356 m 5
 162.047 335.704 l 5
 195.953 335.704 l 5
 186.658 252.704 l 5
 186.658 82.9082 l 5
 195.953 0 l 5
 21.0469 0 l 5
 30.25 82.2041 l 5
 30.25 253.408 l 5
 21.0469 335.704 l 5
 54.8574 335.704 l 5
 54.8574 346.704 l 5
 79.1582 346.704 l 5
 162.047 356 l 5
73.8574 291 m 5
 73.8574 44.6123 l 5
 143.047 44.6123 l 5
 143.047 291 l 5
 73.8574 291 l 5
73.8574 291 m 4
EndSplineSet
Validated: 1
EndChar

StartChar: ograve
Encoding: 242 242 146
Width: 217
VWidth: 0
Flags: W
HStem: 0 44.6123<73.8594 143.049> 291.112 55.5918<75.3587 143.049>
VStem: 30.252 43.6074<44.6123 291.112> 143.049 43.6074<44.6123 291.112>
LayerCount: 2
Fore
SplineSet
54.8594 356 m 5
 137.859 346.704 l 5
 162.049 346.704 l 5
 162.049 335.704 l 5
 195.951 335.704 l 5
 186.656 252.704 l 5
 186.656 82.9082 l 5
 195.951 0 l 5
 21.0488 0 l 5
 30.252 82.3164 l 5
 30.252 253.408 l 5
 21.0488 335.704 l 5
 54.8594 335.704 l 5
 54.8594 356 l 5
73.8594 291.112 m 5
 73.8594 44.6123 l 5
 143.049 44.6123 l 5
 143.049 291.112 l 5
 73.8594 291.112 l 5
73.8594 291.112 m 4
EndSplineSet
Validated: 1
EndChar

StartChar: ocircumflex
Encoding: 244 244 147
Width: 217
VWidth: 0
Flags: W
HStem: 0 44.6133<73.9541 143.158> 291.113 64.2041<73.9541 143.158>
VStem: 30.3574 43.5967<44.6133 291.113> 143.158 43.5918<44.6133 291.113>
LayerCount: 2
Fore
SplineSet
54.9541 355.317 m 5
 162.158 355.317 l 5
 162.158 335.706 l 5
 195.954 335.706 l 5
 186.75 253.408 l 5
 186.75 82.3164 l 5
 195.954 0 l 5
 21.0459 0 l 5
 30.3574 82.9082 l 5
 30.3574 252.705 l 5
 21.0459 335.706 l 5
 54.9541 335.706 l 5
 54.9541 355.317 l 5
73.9541 291.113 m 5
 73.9541 44.6133 l 5
 143.158 44.6133 l 5
 143.158 291.113 l 5
 73.9541 291.113 l 5
73.9541 291.113 m 4
EndSplineSet
Validated: 1
EndChar

StartChar: odieresis
Encoding: 246 246 148
Width: 217
VWidth: 0
Flags: W
HStem: 0 44.6133<73.998 143.094> 291.113 44.5928<103.406 116.498>
VStem: 30.4062 43.5918<44.6133 291.113> 57.2021 46.2041<335.706 355.317> 116.498 45.0957<335.706 355.317> 143.094 43.6084<44.6133 291.113>
LayerCount: 2
Fore
SplineSet
54.7939 355.317 m 5xd0
 103.406 355.317 l 5
 103.406 335.706 l 5
 116.498 335.706 l 5
 114.094 355.317 l 5
 161.594 355.317 l 5
 161.594 335.706 l 5xd8
 195.906 335.706 l 5
 195.202 329.001 l 5
 186.702 252.705 l 5
 186.702 82.9082 l 5
 195.906 0 l 5
 21.0938 0 l 5
 30.4062 82.9082 l 5
 30.4062 252.705 l 5xe4
 21.0938 335.706 l 5
 57.2021 335.706 l 5
 54.7939 355.317 l 5xd0
73.998 291.113 m 5xe4
 73.998 44.6133 l 5
 143.094 44.6133 l 5
 143.094 291.113 l 5
 73.998 291.113 l 5xe4
73.998 291.113 m 4
EndSplineSet
Validated: 1
EndChar

StartChar: eth
Encoding: 240 240 149
Width: 357
VWidth: 0
Flags: W
HStem: 0 44.5<133.806 202.738> 389.108 44.0967<129.553 199.238>
LayerCount: 2
Fore
SplineSet
125.535 560.312 m 1
 196.238 560.312 l 1
 336.238 216.608 l 1
 248.443 0 l 1
 182.207 0 l 2
 -43.4492 2.25195 -22.4023 433.156 182.207 433.205 c 1
 199.238 432.705 l 1
 199.035 433.205 l 1
 125.535 560.312 l 1
146.91 389.108 m 1
 105.283 349.641 78.3145 287.297 78.3145 217.108 c 0
 78.3145 146.549 105.502 83.9238 147.502 44.5 c 1
 202.738 44.5 l 1
 251.238 128.312 l 1
 287.535 216.608 l 1
 251.238 305 l 1
 202.643 389.108 l 1
 146.91 389.108 l 1
146.91 389.108 m 0
EndSplineSet
Validated: 33
EndChar

StartChar: uniE995
Encoding: 59797 59797 150
Width: 360
VWidth: 0
Flags: W
HStem: 0 43.5918<186.892 293.596> 411.592 20G<287.988 337>
VStem: 293.596 43.4043<43.5918 300.392>
LayerCount: 2
Fore
SplineSet
296.203 431.592 m 5
 337 431.592 l 5
 337 0 l 5
 168.892 0 l 5
 93.6875 -181.704 l 5
 23 -181.704 l 5
 96.5 -54.6084 l 5
 296.203 431.592 l 5
293.188 300.392 m 5
 186.892 43.5918 l 5
 293.596 43.5918 l 5
 293.188 300.392 l 5
293.188 300.392 m 4
EndSplineSet
Validated: 1
EndChar

StartChar: uniE996
Encoding: 59798 59798 151
Width: 218
VWidth: 0
Flags: W
HStem: 0 21G<21 74.5 142.389 197> 0 21G<21 74.5 142.389 197> 183.592 42.2959<74.5 142.389> 388.092 43.5<74.5 142.389>
VStem: 21 53.5<0 62.4994> 32.3887 42.1113<39.1842 183.592 225.888 388.092> 142.389 54.6113<0 56.9428> 142.389 42.1113<44.7408 183.592 225.888 388.092>
LayerCount: 2
Fore
SplineSet
32.3887 431.592 m 5xb4
 184.5 431.592 l 5
 184.5 101.684 l 5xb5
 197 0 l 5
 142.389 0 l 5xb2
 142.389 183.592 l 5
 74.5 183.592 l 5xb5
 74.5 0 l 5
 21 0 l 5xb8
 32.3887 101.684 l 5
 32.3887 431.592 l 5xb4
74.5 388.092 m 5
 74.5 225.888 l 5
 142.389 225.888 l 5
 142.389 388.092 l 5
 74.5 388.092 l 5
74.5 388.092 m 4
EndSplineSet
Validated: 1
EndChar

StartChar: uniE997
Encoding: 59799 59799 152
Width: 218
VWidth: 0
Flags: W
HStem: 0 43.5<74.4082 142.408> 166.204 42.1074<74.4082 142.408> 222.908 42.0918<74.4082 142.408> 387.608 44<74.4082 142.408>
VStem: 32.4082 42<43.5 166.204 208.312 222.908 265 387.608> 142.408 42<43.5 163.335 267.878 387.608>
LayerCount: 2
Fore
SplineSet
21 431.608 m 5
 184.408 431.108 l 5
 184.408 324.408 l 5
 197 222.72 l 5
 74.4082 222.908 l 5
 74.4082 208.312 l 5
 197 208.5 l 5
 184.408 106.796 l 5
 184.408 0 l 5
 32.4082 0 l 5
 32.4082 329.908 l 5
 21 431.608 l 5
74.4082 387.608 m 5
 74.4082 265 l 5
 142.408 265 l 5
 142.408 387.608 l 5
 74.4082 387.608 l 5
74.4082 166.204 m 5
 74.4082 43.5 l 5
 142.408 43.5 l 5
 142.408 166.204 l 5
 74.4082 166.204 l 5
74.4082 166.204 m 4
EndSplineSet
Validated: 1
EndChar

StartChar: uniE998
Encoding: 59800 59800 153
Width: 218
VWidth: 0
Flags: W
HStem: 0 43.5<74.3916 142.392> 231.231 42<74.3916 142.392> 411.592 20G<21 74.3916>
VStem: 21 53.3916<369.096 431.592> 32.3916 42<43.5 231.231 273.231 392.384> 142.392 42<43.5 228.295>
LayerCount: 2
Fore
SplineSet
21 431.592 m 5xf4
 74.3916 431.592 l 5xf4
 74.3916 273.231 l 5
 197 273.527 l 5
 184.392 171.84 l 5
 184.392 0 l 5
 32.3916 0 l 5
 32.3916 329.888 l 5xec
 21 431.592 l 5xf4
74.3916 231.231 m 5xec
 74.3916 43.5 l 5
 142.392 43.5 l 5
 142.392 231.231 l 5
 74.3916 231.231 l 5xec
74.3916 231.231 m 4
EndSplineSet
Validated: 1
EndChar

StartChar: uniE999
Encoding: 59801 59801 154
Width: 258
VWidth: 0
Flags: W
HStem: 0 43.5<74.8516 183.148> 324.092 43.5<74.8516 183.148> 411.592 20G<21.3516 74.8516>
VStem: 21.3516 53.5<369.165 431.592> 32.7559 42.0957<43.5 324.092 367.592 392.314> 183.148 42.1074<43.5 324.092>
LayerCount: 2
Fore
SplineSet
74.8516 431.592 m 1xf4
 74.8516 367.592 l 1xec
 236.648 367.592 l 1
 225.256 265.888 l 1
 225.256 101.684 l 1
 236.648 0 l 1
 21.3516 0 l 1xf4
 32.7559 101.684 l 1
 32.7559 329.888 l 1xec
 21.3516 431.592 l 1
 74.8516 431.592 l 1xf4
183.148 324.092 m 1
 74.8516 324.092 l 1
 74.8516 43.5 l 1
 183.148 43.5 l 1
 183.148 324.092 l 1
183.148 324.092 m 0
EndSplineSet
Validated: 1
EndChar

StartChar: uniE99A
Encoding: 59802 59802 155
Width: 187
VWidth: 0
Flags: W
HStem: 0 43.5<75.75 164.75> 388.092 43.5<75.75 164.75>
VStem: 22.25 142.5<0 43.5 388.092 431.592> 33.6543 42.0957<43.5 388.092>
LayerCount: 2
Fore
SplineSet
22.25 431.592 m 5xe0
 164.75 431.592 l 5
 164.75 388.092 l 5xe0
 75.75 388.092 l 5
 75.75 43.5 l 5xd0
 164.75 43.5 l 5
 164.75 0 l 5
 22.25 0 l 5xe0
 33.6543 101.684 l 5
 33.6543 329.888 l 5xd0
 22.25 431.592 l 5xe0
22.25 431.592 m 4
EndSplineSet
Validated: 1
EndChar

StartChar: uniE99B
Encoding: 59803 59803 156
Width: 258
VWidth: 0
Flags: W
HStem: 0 43.5<74.8516 183.148> 324.112 43.5<74.8516 183.148> 411.612 20G<183.148 236.648>
VStem: 32.7598 42.0918<43.5 324.112> 183.148 53.5<369.1 431.612> 183.148 42.1113<43.5 324.112 367.612 392.42>
LayerCount: 2
Fore
SplineSet
183.148 431.612 m 5xf8
 236.648 431.612 l 5xf8
 225.26 329.908 l 5
 225.26 101.704 l 5xf4
 236.648 0 l 5xf8
 21.3516 0 l 5
 32.7598 101.704 l 5
 32.7598 265.908 l 5
 21.3516 367.612 l 5
 183.148 367.612 l 5xf4
 183.148 431.612 l 5xf8
74.8516 324.112 m 5
 74.8516 43.5 l 5
 183.148 43.5 l 5
 183.148 324.112 l 5xf4
 74.8516 324.112 l 5
74.8516 324.112 m 4
EndSplineSet
Validated: 1
EndChar

StartChar: uniE99C
Encoding: 59804 59804 157
Width: 244
VWidth: 0
Flags: W
HStem: 0 42<86.6943 177.733> 259.5 42.0918<92.3066 126.807> 350.248 80.0957<171.602 213.602> 386.844 43.5<92.3066 171.602>
VStem: 50.3066 42<304.553 386.844> 171.602 42<350.248 386.844>
LayerCount: 2
Fore
SplineSet
222.898 0 m 5xdc
 21.1016 0 l 5
 38.1943 42 l 5
 126.807 259.5 l 5
 37.6943 259.296 l 5
 50.3066 361 l 5
 50.3066 430.344 l 5xdc
 213.602 430.344 l 5
 213.602 350.248 l 5
 171.602 350.248 l 5xec
 171.602 386.844 l 5
 92.3066 386.844 l 5
 92.3066 301.592 l 5
 214.898 302.188 l 5
 141.398 175.092 l 5
 86.6943 42 l 5
 121.194 42 l 5
 222.898 54.5918 l 5
 222.898 0 l 5xdc
222.898 0 m 4
EndSplineSet
Validated: 1
EndChar

StartChar: uniE99D
Encoding: 59805 59805 158
Width: 350
VWidth: 0
Flags: W
HStem: -0.0957031 41.9834<86.4082 177.398> 163.699 43.5<159.704 196.704 245.096 303.39> 259.404 42.0957<92 126.5> 350.199 80.0967<171.296 213.296> 386.796 43.5<92 171.296>
VStem: 50 42<304.357 386.796> 171.296 42<350.199 386.796> 201.608 43.4873<51.8877 163.699>
LayerCount: 2
Fore
SplineSet
50 430.296 m 1xed
 213.296 430.296 l 1
 213.296 350.199 l 1
 171.296 350.199 l 1xf6
 171.296 386.796 l 1xee
 92 386.796 l 1
 92 301.5 l 1
 214.608 302.092 l 1
 159.704 207.199 l 1
 329.204 207.199 l 1
 329.204 153.5 l 1
 246.908 163.699 l 1
 245.096 163.699 l 1
 245.096 0 l 1
 20.7959 -0.0957031 l 1
 37.9082 41.9043 l 1
 126.5 259.404 l 1
 37.4082 259.199 l 1
 50 360.888 l 1
 50 430.296 l 1xed
136.5 163.699 m 1
 86.4082 41.8877 l 1
 120.908 41.8877 l 1
 201.608 51.8877 l 1
 201.608 124.092 l 1xe5
 196.704 163.699 l 1
 136.5 163.699 l 1
136.5 163.699 m 0
EndSplineSet
Validated: 1
EndChar

StartChar: uniE99E
Encoding: 59806 59806 159
Width: 220
VWidth: 0
Flags: W
HStem: 0 43.7041<75.25 116.734> 229.704 43.5<165.842 198.266> 388.312 43.5<75.25 164.234>
VStem: 21.7344 144.203<0 62.5486 388.312 431.812> 33.1387 42.1113<43.7041 388.312> 123.842 74.4238<229.704 273.204> 123.842 42.0957<44.5762 229.704>
LayerCount: 2
Fore
SplineSet
21.7344 431.812 m 1xf0
 164.234 431.812 l 1
 164.234 388.312 l 1
 75.25 388.312 l 1
 75.25 43.7041 l 1
 116.734 43.7041 l 1
 123.842 101.403 l 1xea
 123.842 273.204 l 1
 198.266 273.204 l 1
 198.266 229.704 l 1xe4
 165.842 229.704 l 1
 165.938 0 l 1
 21.7344 0 l 1xf0
 33.1387 101.903 l 1
 33.1387 330.107 l 1xe8
 21.7344 431.812 l 1xf0
21.7344 431.812 m 0xf0
EndSplineSet
Validated: 1
EndChar

StartChar: uniE99F
Encoding: 59807 59807 160
Width: 360
VWidth: 0
Flags: W
HStem: 0 21G<23 72.0093 216.522 295.5> 0 21G<23 72.0093 216.522 295.5> 411.596 20G<23 66.3292>
VStem: 23 43.7959<131.204 431.596>
LayerCount: 2
Fore
SplineSet
266.296 613.3 m 1xb0
 337 613.3 l 1
 263.5 486.204 l 1
 169 256.096 l 1
 222 127.112 l 1
 295.5 0 l 1
 224.796 0 l 1
 144 195.3 l 1
 63.7959 0 l 1
 23 0 l 1
 23 431.596 l 1
 66.2959 431.596 l 1
 66.7959 131.204 l 1
 266.296 613.3 l 1xb0
266.296 613.3 m 0
EndSplineSet
Validated: 1
EndChar

StartChar: uniE9A0
Encoding: 59808 59808 161
Width: 333
VWidth: 0
Flags: W
HStem: 0 21G<21.1328 74.6328 142.541 197.24 257.271 311.867> 0 21G<21.1328 74.6328 142.541 197.24 257.271 311.867> 388.107 43.4883<74.6328 142.541 184.633 257.271>
VStem: 32.541 42.0918<39.2987 388.107> 142.541 42.0918<45.2346 388.107> 257.271 42<45.1821 388.107>
LayerCount: 2
Fore
SplineSet
21.1328 0 m 5xbc
 32.541 101.703 l 5
 32.541 431.596 l 5
 299.271 431.596 l 5
 299.271 101.703 l 5
 311.867 0 l 5
 257.271 0 l 5
 257.271 388.107 l 5
 184.633 388.107 l 5
 184.633 101.703 l 5
 197.24 0 l 5
 142.541 0 l 5
 142.541 388.107 l 5
 74.6328 388.107 l 5
 74.6328 0 l 5
 21.1328 0 l 5xbc
21.1328 0 m 4
EndSplineSet
Validated: 1
EndChar

StartChar: uniE9A1
Encoding: 59809 59809 162
Width: 553
VWidth: 0
Flags: W
HStem: 0 21G<20.8496 100.338 216.962 267.173> 0 21G<20.8496 100.338 216.962 267.173> 411.796 20G<211.243 261.495>
VStem: 216.962 45<131.404 302.5>
LayerCount: 2
Fore
SplineSet
461.462 613.5 m 1xb0
 532.15 613.5 l 1
 458.65 486.404 l 1
 258.962 0 l 1
 216.962 0 l 1
 217.35 302.5 l 1
 92.0537 0 l 1
 20.8496 0 l 1
 94.0537 126.608 l 1
 219.462 431.796 l 1
 261.462 431.796 l 1
 261.962 131.404 l 1
 461.462 613.5 l 1xb0
461.462 613.5 m 0
EndSplineSet
Validated: 1
EndChar

StartChar: uniE9A2
Encoding: 59810 59810 163
Width: 218
VWidth: 0
Flags: W
HStem: 0 21G<20.9678 74.4521 142.408 197.032> 0 21G<20.9678 74.4521 142.408 197.032> 388.107 43.4883<74.4521 142.408>
VStem: 32.3926 42.0596<39.3959 388.107> 142.408 42.0439<45.1193 388.107>
LayerCount: 2
Fore
SplineSet
20.9678 0 m 5xb8
 32.3926 101.72 l 5
 32.3926 431.596 l 5
 184.452 431.596 l 5
 184.452 101.72 l 5
 197.032 0 l 5
 142.408 0 l 5
 142.408 388.107 l 5
 74.4521 388.107 l 5
 74.4521 0 l 5
 20.9678 0 l 5xb8
20.9678 0 m 4
EndSplineSet
Validated: 1
EndChar

StartChar: uniE9A3
Encoding: 59811 59811 164
Width: 461
VWidth: 0
Flags: W
HStem: 0 43.6084<184.852 291.557> 388 43.5957<169.443 276.148>
VStem: 126.057 43.7949<131.204 388> 291.557 43.3867<43.6084 300.408>
LayerCount: 2
Fore
SplineSet
369.352 613.296 m 1
 440.057 613.296 l 1
 366.557 486.204 l 1
 334.943 409.296 l 1
 334.943 0 l 1
 166.852 0 l 1
 91.6484 -181.704 l 1
 20.9434 -181.704 l 1
 94.4434 -54.5918 l 1
 126.057 22.2959 l 1
 126.057 431.596 l 1
 294.148 431.596 l 1
 369.352 613.296 l 1
169.443 388 m 1
 169.852 131.204 l 1
 276.148 388 l 1
 169.443 388 l 1
291.148 300.408 m 1
 184.852 43.6084 l 1
 291.557 43.6084 l 1
 291.148 300.408 l 1
291.148 300.408 m 0
EndSplineSet
Validated: 1
EndChar

StartChar: uniE9A4
Encoding: 59812 59812 165
Width: 235
VWidth: 0
Flags: W
HStem: 0 21G<21.6719 74.7686> 0 21G<21.6719 74.7686> 199.108 37.6875<74.7686 149.261> 393.108 38.8916<74.7686 150.991>
VStem: 33.0645 41.7041<39.2135 199.108 236.796 392.786>
LayerCount: 2
Fore
SplineSet
21.6719 432 m 5xb8
 124.564 432 l 6
 247.612 430.78 238.125 198.845 124.564 198.796 c 6
 74.7686 199.108 l 5
 74.7686 0 l 5
 21.6719 0 l 5
 33.0645 101.704 l 5
 33.0645 330.296 l 5
 21.6719 432 l 5xb8
74.7686 393.108 m 5
 74.7686 236.796 l 5
 138.469 236.796 l 5
 156.408 254.94 168.469 282.893 168.469 314.796 c 4
 168.469 346.845 156.312 374.984 138.269 393.108 c 5
 74.7686 393.108 l 5
74.7686 393.108 m 4
EndSplineSet
Validated: 33
EndChar

StartChar: uniE9A5
Encoding: 59813 59813 166
Width: 258
VWidth: 0
Flags: W
HStem: 0 21G<21.3496 74.8496> 0 21G<21.3496 74.8496> 64 43.5<74.8496 183.15> 388.096 43.5127<74.8496 183.15>
VStem: 21.3496 53.5<0 62.405> 32.7578 42.0918<39.2991 64 107.5 388.096> 183.15 42.1074<107.5 388.096>
LayerCount: 2
Fore
SplineSet
74.8496 0 m 5xba
 21.3496 0 l 5xba
 32.7578 101.704 l 5
 32.7578 329.908 l 5xb6
 21.3496 431.608 l 5xba
 236.65 431.608 l 5
 225.258 329.908 l 5
 225.258 165.704 l 5
 236.65 64 l 5
 74.8496 64 l 5xb6
 74.8496 0 l 5xba
183.15 107.5 m 5
 183.15 388.096 l 5
 74.8496 388.096 l 5
 74.8496 107.5 l 5x36
 183.15 107.5 l 5
183.15 107.5 m 4
EndSplineSet
Validated: 1
EndChar

StartChar: uniE9A6
Encoding: 59814 59814 167
Width: 307
VWidth: 0
Flags: W
HStem: 0.204102 21G<21.4082 74.5 206.762 285.592> 0.204102 21G<21.4082 74.5 206.762 285.592> 199.5 38<182.408 208.197> 393.8 38.1084<102.592 209.926>
VStem: 32.7959 41.7041<39.1867 344.908>
LayerCount: 2
Fore
SplineSet
183.5 432.704 m 6xb8
 306.548 431.484 297.064 199.548 183.5 199.5 c 6
 182.408 199.5 l 5
 212.092 127.312 l 5
 285.592 0.204102 l 5
 214.908 0.204102 l 5
 74.5 344.908 l 5
 74.5 0 l 5
 21.4082 0 l 5
 32.7959 101.704 l 5
 32.7959 330.204 l 5
 21.4082 431.908 l 5
 183.5 432.704 l 6xb8
102.592 393.8 m 5
 166.796 237.5 l 5
 197.408 237.5 l 5
 215.344 255.644 227.408 283.596 227.408 315.5 c 4
 227.408 347.548 215.252 375.688 197.204 393.8 c 5
 102.592 393.8 l 5
102.592 393.8 m 4
EndSplineSet
Validated: 33
EndChar

StartChar: uniE9A7
Encoding: 59815 59815 168
Width: 334
VWidth: 0
Flags: W
HStem: 0 21G<20.9844 74.376> 0 21G<20.9844 74.376> 158.407 42<74.376 130.124> 388.096 43.5<74.376 151.516>
VStem: 20.9844 53.3916<0 62.4953> 32.376 42<39.2078 158.407 200.407 388.096> 151.516 42<203.347 388.096>
LayerCount: 2
Fore
SplineSet
32.376 431.596 m 1xb6
 193.516 431.607 l 1
 193.516 259.812 l 1
 206.124 158.107 l 1
 178.624 158.203 l 1
 239.516 9.70312 l 1
 313.016 -117.393 l 1
 242.312 -117.393 l 1
 130.124 158.312 l 1
 74.376 158.407 l 1xb6
 74.376 0 l 1
 20.9844 0 l 1xba
 32.376 101.703 l 1
 32.376 431.596 l 1xb6
74.376 388.096 m 1
 74.376 200.407 l 1
 151.516 200.407 l 1
 151.516 388.096 l 1
 74.376 388.096 l 1
74.376 388.096 m 0
EndSplineSet
Validated: 1
EndChar

StartChar: uniE9A8
Encoding: 59816 59816 169
Width: 222
VWidth: 0
Flags: W
HStem: 0 42.3115<22.0547 145.35> 156.8 43.5<77.0547 89.0547> 229.8 43.5117<131.055 145.35> 388.112 42.2959<77.0547 199.193>
VStem: 35.0547 42<200.3 385.243> 89.0547 42<200.3 229.8> 145.35 42<44.8867 229.8>
LayerCount: 2
Fore
SplineSet
199.193 430.112 m 5
 199.193 387.8 l 5
 77.0547 388.112 l 5
 77.0547 200.3 l 5
 89.0547 200.3 l 5
 89.0547 273.312 l 5
 187.35 273.312 l 5
 187.35 101.408 l 5
 199.945 -0.295898 l 5
 22.0547 0 l 5
 22.0547 42.3115 l 5
 145.35 42 l 5
 145.35 229.8 l 5
 131.055 229.8 l 5
 131.055 156.8 l 5
 35.0547 156.8 l 5
 35.0547 328.704 l 5
 22.4629 430.408 l 5
 199.193 430.112 l 5
199.193 430.112 m 4
EndSplineSet
Validated: 1
EndChar

StartChar: uniE9A9
Encoding: 59817 59817 170
Width: 222
VWidth: 0
Flags: W
HStem: 0 42.3115<22.0566 145.352> 197.284 43.7002<77.0566 145.352> 388.112 42.2959<77.0566 199.256>
VStem: 35.0566 42<240.984 385.147> 145.352 42<44.8691 197.484>
LayerCount: 2
Fore
SplineSet
22.4434 430.408 m 5
 199.256 430.112 l 5
 199.256 387.8 l 5
 77.0566 388.112 l 5
 77.0566 240.984 l 5
 187.352 240.984 l 5
 187.352 101.408 l 5
 199.943 -0.295898 l 5
 22.0566 0 l 5
 22.0566 42.3115 l 5
 145.352 42 l 5
 145.352 197.484 l 5
 35.0566 197.284 l 5
 35.0566 328.704 l 5
 22.4434 430.408 l 5
22.4434 430.408 m 4
EndSplineSet
Validated: 1
EndChar

StartChar: uniE9AA
Encoding: 59818 59818 171
Width: 288
VWidth: 0
Flags: W
HStem: 0 42.7041<86.0938 170.51> 393.296 42.0645<97.732 179.406>
VStem: 20.9062 246.188
LayerCount: 2
Fore
SplineSet
121.703 435.36 m 6
 267.094 435.36 l 5
 193.594 308.296 l 5
 165.594 239.204 l 5
 272.847 214.924 258.25 0.0322266 146.002 0 c 6
 20.9062 0 l 5
 101.703 200.5 l 5
 -2.59375 225.156 11.9385 435.312 121.703 435.36 c 6
108.703 393.296 m 5
 91.4863 375.564 79.7988 348.36 79.7988 317.296 c 4
 79.7988 286.096 91.4707 259.221 108.799 241.5 c 5
 118.203 241.5 l 5
 179.406 393.296 l 5
 108.703 393.296 l 5
149.002 198.204 m 5
 86.0938 42.7041 l 5
 159.299 42.7041 l 5
 176.891 60.8281 188.799 88.6719 188.799 120.408 c 4
 188.799 152.344 176.858 180.108 159.094 198.204 c 5
 149.002 198.204 l 5
149.002 198.204 m 4
EndSplineSet
Validated: 33
EndChar

StartChar: uniE9AB
Encoding: 59819 59819 172
Width: 362
VWidth: 0
Flags: W
HStem: 411.704 20G<20.7988 99.6401 285.783 341.201>
VStem: 20.7988 320.402
LayerCount: 2
Fore
SplineSet
20.7988 431.704 m 5
 91.498 431.704 l 5
 192.295 184.108 l 5
 293.998 431.704 l 5
 341.201 431.704 l 5
 91.498 -181.596 l 5
 20.7988 -181.596 l 5
 94.2949 -54.5 l 5
 167.998 125 l 5
 94.2949 304.608 l 5
 20.7988 431.704 l 5
20.7988 431.704 m 4
EndSplineSet
Validated: 1
EndChar

StartChar: uniE9AC
Encoding: 59820 59820 173
Width: 218
VWidth: 0
Flags: W
HStem: 0 43.5<74.3887 142.389> 231.296 42<74.3887 142.389> 390.597 41.5596<74.3887 141.404>
VStem: 32.3887 42<43.5 231.296 273.296 390.597> 141.404 54.6113<289.097 346.142> 142.389 42<43.5 221.674 336.718 390.597>
LayerCount: 2
Fore
SplineSet
183.561 432.156 m 5xf4
 183.561 390.597 l 5
 196.016 289.097 l 5
 141.404 289.097 l 5
 141.404 390.597 l 5xf8
 74.3887 390.597 l 5
 74.3887 273.296 l 5
 197 273.597 l 5
 184.389 171.908 l 5
 184.389 0 l 5
 32.3887 0 l 5
 32.3887 329.908 l 5
 21 432.156 l 5
 183.561 432.156 l 5xf4
142.389 231.296 m 5xf4
 74.3887 231.296 l 5
 74.3887 43.5 l 5
 142.389 43.5 l 5
 142.389 231.296 l 5xf4
142.389 231.296 m 4
EndSplineSet
Validated: 1
EndChar

StartChar: uniE9AD
Encoding: 59821 59821 174
Width: 218
VWidth: 0
Flags: W
HStem: 0 41.5479<76.5918 143.607> 158.548 42.3115<75.6074 143.607> 388.655 43.5<75.6074 143.607>
VStem: 21.9844 54.6074<85.9901 143.06> 33.6074 42<41.5479 95.4509 210.461 388.655> 143.607 42<41.5479 158.859 200.859 388.655>
LayerCount: 2
Fore
SplineSet
34.4355 0 m 5xec
 34.4355 41.5479 l 5
 21.9844 143.06 l 5
 76.5918 143.06 l 5
 76.5918 41.5479 l 5xf4
 143.607 41.5479 l 5
 143.607 158.859 l 5
 21 158.548 l 5
 33.6074 260.248 l 5
 33.6074 432.155 l 5
 185.607 432.155 l 5
 185.607 102.248 l 5
 197 0 l 5
 34.4355 0 l 5xec
75.6074 200.859 m 5xec
 143.607 200.859 l 5
 143.607 388.655 l 5
 75.6074 388.655 l 5
 75.6074 200.859 l 5xec
75.6074 200.859 m 4
EndSplineSet
Validated: 1
EndChar

StartChar: uniE9AE
Encoding: 59822 59822 175
Width: 429
VWidth: 0
Flags: W
HStem: -93.2998 43.5<21.0459 354.454> -0.000976562 45<77.3457 136.25> 199.108 37.7031<184.346 258.841> 393.109 38.8906<184.346 260.568> 459.5 43.6094<77.3457 354.454>
VStem: 35.3457 42<45.667 459.5> 142.642 41.7041<44.999 199.108 236.812 392.798> 354.454 42.0918<-49.7998 459.5>
LayerCount: 2
Fore
SplineSet
35.3457 503.109 m 5
 396.546 503 l 5
 396.546 8.40332 l 5
 407.954 -93.2998 l 5
 21.0459 -93.2998 l 5
 21.0459 -49.7998 l 5
 354.454 -49.7998 l 5
 354.454 459.5 l 5
 77.3457 459.5 l 5
 77.3457 44.999 l 5
 136.25 44.999 l 5
 142.642 101.7 l 5
 142.642 330.312 l 5
 131.25 432 l 5
 234.142 432 l 6
 357.189 430.781 347.718 198.843 234.142 198.796 c 6
 184.346 199.108 l 5
 184.346 -0.000976562 l 5
 22.75 -0.000976562 l 5
 35.3457 102.796 l 5
 35.3457 503.109 l 5
184.346 393.109 m 5
 184.346 236.812 l 5
 248.046 236.812 l 5
 265.986 254.935 278.046 282.889 278.046 314.812 c 4
 278.046 346.844 265.89 374.984 247.846 393.109 c 5
 184.346 393.109 l 5
184.346 393.109 m 4
EndSplineSet
Validated: 33
EndChar

StartChar: uniE9AF
Encoding: 59823 59823 176
Width: 572
VWidth: 0
Flags: W
HStem: 0 45.7031<133.996 438.003> 100.592 38.9082<212.569 270.897 348.522 406.85> 295.795 38<214.403 270.897 350.355 406.85> 390.295 44.1084<129.744 442.256>
LayerCount: 2
Fore
SplineSet
375.054 333.795 m 6
 375.149 333.795 l 5
 411.054 333.403 l 5
 406.85 295.795 l 5
 361.149 295.795 l 5
 343.241 277.655 331.149 249.688 331.149 217.795 c 4
 331.149 185.764 343.21 157.607 361.258 139.5 c 5
 406.85 139.5 l 5
 411.054 102.092 l 5
 375.35 100.592 l 5
 374.946 100.592 l 6
 251.897 101.827 261.493 333.764 375.054 333.795 c 6
375.054 333.795 m 4
239.103 333.795 m 6
 239.194 333.795 l 5
 275.103 333.403 l 5
 270.897 295.795 l 5
 225.194 295.795 l 5
 207.29 277.655 195.194 249.688 195.194 217.795 c 4
 195.194 185.764 207.258 157.607 225.306 139.5 c 5
 270.897 139.5 l 5
 275.103 102.092 l 5
 239.397 100.592 l 5
 238.993 100.592 l 6
 115.946 101.827 125.538 333.764 239.103 333.795 c 6
239.103 333.795 m 4
182.397 434.403 m 6
 389.603 434.403 l 6
 594.21 434.359 615.258 2.23145 389.603 0 c 6
 182.397 0 l 6
 -43.2588 2.23145 -22.21 434.359 182.397 434.403 c 6
147.103 390.295 m 5
 105.462 350.827 78.4932 288.5 78.4932 218.295 c 4
 78.4932 147.731 105.694 85.1074 147.694 45.7031 c 5
 424.306 45.7031 l 5
 466.306 85.1074 493.493 147.731 493.493 218.295 c 4
 493.493 288.5 466.522 350.827 424.897 390.295 c 5
 147.103 390.295 l 5
147.103 390.295 m 4
EndSplineSet
Validated: 33
EndChar

StartChar: uniE9B0
Encoding: 59824 59824 177
Width: 764
VWidth: 0
Flags: W
HStem: 0 21G<328.417 386.097 398.759 456.376> 0 21G<328.417 386.097 398.759 456.376> 316.017 20G<20.8359 81.9003 91.0391 152.299 173.023 222.928 243.323 293.24 470.756 531.823 540.959 602.225 622.948 672.867 693.243 743.164> 316.017 20G<20.8359 81.9003 91.0391 152.299 173.023 222.928 243.323 293.24 470.756 531.823 540.959 602.225 622.948 672.867 693.243 743.164>
LayerCount: 2
Fore
SplineSet
470.756 336.017 m 5x20
 523.664 336.017 l 5
 576.459 206.608 l 5
 582.068 216.408 l 5
 591.459 239.312 l 5
 577.867 272.408 l 5
 540.959 336.017 l 5
 594.057 336.017 l 5
 612.557 290.721 l 5
 631.164 336.017 l 5
 672.867 336.017 l 5
 633.367 239.221 l 5
 646.756 206.608 l 5
 652.164 216.017 l 5
 701.459 336.017 l 5
 743.164 336.017 l 5
 668.367 152.408 l 5
 627.057 152.408 l 5
 612.557 187.908 l 5
 598.057 152.408 l 5
 556.756 152.408 l 5
 507.557 272.408 l 5
 470.756 336.017 l 5x20
470.756 336.017 m 4
20.8359 336.017 m 5
 73.7402 336.017 l 5
 126.539 206.608 l 5
 132.131 216.408 l 5
 141.539 239.312 l 5
 127.928 272.408 l 5
 91.0391 336.017 l 5
 144.131 336.017 l 5
 162.631 290.721 l 5
 181.24 336.017 l 5
 222.928 336.017 l 5
 183.428 239.221 l 5
 196.836 206.608 l 5
 202.24 216.017 l 5
 251.539 336.017 l 5
 293.24 336.017 l 5
 218.428 152.408 l 5
 177.131 152.408 l 5
 162.631 187.908 l 5
 148.131 152.408 l 5
 106.836 152.408 l 5
 57.6309 272.408 l 5
 20.8359 336.017 l 5
20.8359 336.017 m 4
250.615 183.592 m 5
 303.523 183.592 l 5
 356.32 54.2051 l 5
 361.928 64 l 5
 371.32 86.9082 l 5
 357.729 120 l 5
 320.82 183.592 l 5
 373.928 183.592 l 5
 392.428 138.297 l 5
 411.023 183.592 l 5
 452.729 183.592 l 5
 413.229 86.7969 l 5
 426.615 54.2051 l 5
 432.023 63.5918 l 5
 481.32 183.592 l 5
 523.023 183.592 l 5
 448.229 0 l 5
 406.928 0 l 5
 392.428 35.5 l 5
 377.928 0 l 5
 336.615 0 l 5x80
 287.428 120 l 5
 250.615 183.592 l 5
250.615 183.592 m 4
EndSplineSet
Validated: 1
EndChar

StartChar: uniE9B1
Encoding: 59825 59825 178
Width: 369
VWidth: 0
Flags: W
HStem: 0 21.3926G<21 74.5 103.908 156.704> 0 21.3926G<21 74.5 103.908 156.704> 119.205 43.5<156.704 196.312> 291.5 44.5967<156.704 210.408> 388.097 43.5<74.5 293.312>
VStem: 32.3926 42.1074<39.2139 388.097> 103.908 52.7959<0.392578 62.8241> 113.204 43.5<20.8692 119.205 162.705 291.5> 210.408 43.5<162.705 291.5> 293.312 42<0.360352 388.097>
LayerCount: 2
Fore
SplineSet
32.3926 431.597 m 5xbdc0
 335.312 431.597 l 5
 335.312 14 l 5
 347.908 -87.5 l 5
 348 -87.6992 l 5
 280.516 -87.6992 l 5
 196.312 119.097 l 5
 156.704 119.205 l 5xbdc0
 156.704 0.392578 l 5
 103.908 0.392578 l 5xbec0
 113.204 83.3008 l 5
 113.204 336.097 l 5
 253.908 336.097 l 5
 253.908 202 l 5
 264.22 118.893 l 5
 245.72 119 l 5
 288.688 17.5967 l 5
 293.312 0.360352 l 5
 293.312 388.097 l 5
 74.5 388.097 l 5
 74.5 0 l 5
 21 0 l 5
 32.3926 101.705 l 5
 32.3926 431.597 l 5xbdc0
156.704 291.5 m 5
 156.704 162.705 l 5
 210.408 162.705 l 5
 210.408 291.5 l 5
 156.704 291.5 l 5
156.704 291.5 m 4
EndSplineSet
Validated: 1
EndChar

StartChar: uniE9B2
Encoding: 59826 59826 179
Width: 490
VWidth: 0
Flags: W
HStem: -93.2949 43.5<74.3496 469.15> 0 21G<89.3496 164.987 385.031 442.037> 0 21G<89.3496 164.987 385.031 442.037> 109.108 45.0967<219.65 329.85 397.65 414.037> 315.205 20G<236.233 313.681> 315.205 20G<236.233 313.681> 390.812 43.5<74.3496 414.037>
VStem: 32.2422 42.1074<-49.7949 390.812> 414.037 42<154.857 390.812>
LayerCount: 2
Fore
SplineSet
32.2422 434.312 m 5xdb80
 456.037 434.312 l 5
 456.037 211.908 l 5
 468.65 109.108 l 5
 397.65 109.108 l 5
 442.037 0 l 5
 393.242 0 l 5
 348.445 109.108 l 5
 201.242 109.108 l 5
 156.85 0 l 5
 89.3496 0 l 5
 149.35 103.608 l 5
 244.445 335.205 l 5
 305.537 335.205 l 5
 379.242 154.205 l 5
 414.037 154.205 l 5
 414.037 390.812 l 5
 74.3496 390.812 l 5
 74.3496 -49.7949 l 5
 469.15 -49.7949 l 5
 469.15 -93.2949 l 5
 20.8496 -93.2949 l 5
 32.2422 8.4082 l 5
 32.2422 434.312 l 5xdb80
270.554 279.108 m 5
 219.65 154.205 l 5
 329.85 154.205 l 5
 298.037 231.608 l 5
 270.554 279.108 l 5
270.554 279.108 m 4
EndSplineSet
Validated: 1
EndChar

StartChar: uniE9B3
Encoding: 59827 59827 180
Width: 382
VWidth: 0
Flags: W
HStem: -93.1885 43.5<74.6016 360.898> 0 45.1113<192.13 306.006> 141.812 54.5957<202.791 259.494> 291.611 44.7959<188.567 272.506> 390.812 43.5<74.6016 306.006>
VStem: 32.5059 42.0957<-49.6885 390.812> 306.006 41.9844<45.7453 390.812>
LayerCount: 2
Fore
SplineSet
32.5059 434.312 m 5
 347.99 434.312 l 5
 347.99 102.812 l 5
 360.602 0 l 5
 230.102 0 l 6
 53.1777 1.76758 68.29 336.376 230.194 336.407 c 6
 277.494 336.407 l 5
 272.506 291.611 l 5
 206.398 291.611 l 5
 180.398 266.14 162.446 227.859 158.99 184 c 5
 259.494 196.407 l 5
 259.494 141.812 l 5
 160.194 141.812 l 5
 165.662 102.483 182.85 68.3281 206.807 45.1113 c 5
 306.006 45.1113 l 5
 306.006 390.812 l 5
 74.6016 390.812 l 5
 74.6016 -49.6885 l 5
 360.898 -49.6885 l 5
 360.898 -93.1885 l 5
 21.1016 -93.1885 l 5
 32.5059 8.51562 l 5
 32.5059 434.312 l 5
32.5059 434.312 m 4
EndSplineSet
Validated: 33
EndChar

StartChar: uniE9B4
Encoding: 59828 59828 181
Width: 398
VWidth: 0
Flags: W
HStem: -92.9082 43.5<74.7041 376.796> -0.108398 21G<138.347 189> -0.108398 21G<138.347 189> 143 42.0918<189 283.233> 291 44.5918<189 255.704> 391.092 43.5<74.7041 321.607>
VStem: 32.6074 42.0967<-49.4082 391.092> 136.107 52.8926<0 62.3982> 145.404 43.5957<20.4016 143 185.092 291> 321.607 41.8926<196.408 391.092>
LayerCount: 2
Fore
SplineSet
32.6074 434.592 m 5xbec0
 363.5 434.592 l 5
 363.5 143 l 5
 189 143 l 5xbec0
 189 0 l 5
 136.107 -0.108398 l 5xbf40
 145.404 82.9082 l 5
 145.404 252.704 l 5xbec0
 136.107 335.592 l 5xbf40
 255.704 335.592 l 5
 255.704 291 l 5
 189 291 l 5
 189 185.092 l 5
 221 185.092 l 5
 321.607 196.408 l 5
 321.607 391.092 l 5
 74.7041 391.092 l 5
 74.7041 -49.4082 l 5
 376.796 -49.4082 l 5
 376.796 -92.9082 l 5
 21.2041 -92.9082 l 5
 32.6074 8.7959 l 5
 32.6074 434.592 l 5xbec0
32.6074 434.592 m 4
EndSplineSet
Validated: 1
EndChar

StartChar: uniE9B5
Encoding: 59829 59829 182
Width: 685
VWidth: 0
Flags: W
HStem: 0 21G<20.8516 99.6958 409.25 474.071 585.32 664.148> 0 21G<20.8516 99.6958 409.25 474.071 585.32 664.148> 145.203 42.2002<167.852 340.461> 410.903 20G<210.933 297.997 417.961 474.071 585.32 664.148>
LayerCount: 2
Fore
SplineSet
219.148 430.903 m 5xb0
 267.057 430.903 l 5
 289.852 430.903 l 5
 441.648 58.2031 l 5
 505.648 215.403 l 5
 417.961 430.903 l 5
 465.852 430.903 l 5
 529.961 274.903 l 5
 593.461 430.903 l 5
 664.148 430.903 l 5
 590.648 303.796 l 5
 554.352 215.403 l 5
 590.648 127.092 l 5
 664.148 0 l 5
 593.461 0 l 5
 529.961 156 l 5
 465.852 0 l 5
 417.461 0 l 5
 357.852 145.203 l 5
 150.648 145.203 l 5
 91.5566 0 l 5
 20.8516 0 l 5
 94.3516 127.092 l 5
 219.148 430.903 l 5xb0
247.26 382.296 m 5
 167.852 187.403 l 5
 340.461 187.403 l 5
 292.648 303.796 l 5
 247.26 382.296 l 5
247.26 382.296 m 4
EndSplineSet
Validated: 1
EndChar

StartChar: uniE9B6
Encoding: 59830 59830 183
Width: 695
VWidth: 0
Flags: W
HStem: 0.295898 21G<133.242 175.35 419.434 506.495> 0.295898 21G<133.242 175.35 419.434 506.495> 389 42.2002<66.3308 133.242 182.742 253.742>
LayerCount: 2
Fore
SplineSet
21.1504 431 m 5xa0
 300.037 431.2 l 5
 455.742 48.8887 l 5
 501.15 127.389 l 5
 625.945 431.2 l 5
 673.85 431.2 l 5
 498.35 0.295898 l 5
 427.65 0.295898 l 5
 302.85 304.092 l 5
 253.742 389 l 5
 182.742 389 l 5
 175.35 329.092 l 5
 175.35 0 l 5
 133.242 0 l 5
 133.242 389 l 5
 122.85 389 l 5
 21.1504 376.404 l 5
 21.1504 431 l 5xa0
21.1504 431 m 4
EndSplineSet
Validated: 1
EndChar

StartChar: uniE9B7
Encoding: 59831 59831 184
Width: 421
VWidth: 0
Flags: W
HStem: 0 21G<24.9521 68.1895 352.715 396.048> 0 21G<24.9521 68.1895 352.715 396.048> 411.592 20G<24.9521 73.8716 347.033 396.048>
VStem: 24.9521 43.2041<0 300.403> 352.748 43.2998<0 300.403>
LayerCount: 2
Fore
SplineSet
24.9521 431.592 m 5xb8
 65.6562 431.592 l 5
 210.452 79.0918 l 5
 355.248 431.592 l 5
 396.048 431.592 l 5
 396.048 0 l 5
 352.748 0 l 5
 352.248 300.403 l 5
 235.452 18.2031 l 5
 265.344 -54.5967 l 5
 338.844 -181.704 l 5
 268.156 -181.704 l 5
 210.452 -42.2969 l 5
 152.748 -181.704 l 5
 82.0479 -181.704 l 5
 155.548 -54.5967 l 5
 185.452 18.2031 l 5
 68.6562 300.403 l 5
 68.1562 0 l 5
 24.9521 0 l 5
 24.9521 431.592 l 5xb8
24.9521 431.592 m 4
EndSplineSet
Validated: 1
EndChar

StartChar: uniE9B8
Encoding: 59832 59832 185
Width: 685
VWidth: 0
Flags: W
HStem: 0 21G<20.8418 99.6859 409.243 474.058> 0 21G<20.8418 99.6859 409.243 474.058> 145.2 42.2041<167.842 340.454> 410.904 20G<210.941 297.989 585.308 664.158>
LayerCount: 2
Fore
SplineSet
219.158 430.904 m 5xb0
 289.842 430.904 l 5
 441.658 58.2002 l 5
 593.454 430.904 l 5
 664.158 430.904 l 5
 590.643 303.796 l 5
 465.842 0 l 5
 417.454 0 l 5
 357.842 145.2 l 5
 150.643 145.2 l 5
 91.5459 0 l 5
 20.8418 0 l 5
 94.3418 127.107 l 5
 219.158 430.904 l 5xb0
247.25 382.296 m 5
 167.842 187.404 l 5
 340.454 187.404 l 5
 292.643 303.796 l 5
 247.25 382.296 l 5
247.25 382.296 m 4
EndSplineSet
Validated: 1
EndChar

StartChar: uniE9B9
Encoding: 59833 59833 186
Width: 539
VWidth: 0
Flags: W
HStem: 0 21.625G<286.002 335 377.766 429> 0 21.625G<286.002 335 377.766 429> 170.017 54.6875<461.364 517.904> 170.112 43.5918<429 485.636> 318.704 43.5166<429 518>
VStem: 291.217 43.7832<131.221 387.688> 375.528 53.4717<0.672852 63.1966> 386.904 42.0957<39.7409 170.112 213.704 318.704>
LayerCount: 2
Fore
SplineSet
375.528 362.221 m 1x1e
 518 362.204 l 1
 518 318.704 l 1
 429 318.704 l 1
 429 213.704 l 1x1d
 518 224.704 l 1
 517.904 170.017 l 1x2d
 429 170.112 l 1x1d
 429 0.672852 l 1
 375.528 0.625 l 1x1e
 386.904 102.312 l 1
 386.904 260.532 l 1x1d
 375.528 362.221 l 1x1e
375.528 362.221 m 0x0e
21 613.312 m 1
 91.7168 613.312 l 1
 291.217 131.221 l 1
 291.625 388.312 l 1
 200.185 377.625 l 1
 200.185 442.221 l 1
 297.717 432 l 1
 329.092 432 l 1
 424.812 442.221 l 1
 424.812 377.625 l 1
 335 387.688 l 1
 335 0 l 1
 294.217 0 l 1x8c
 94.5 486.221 l 1
 21 613.312 l 1
21 613.312 m 0
EndSplineSet
Validated: 1
EndChar

StartChar: ydieresis
Encoding: 255 255 187
Width: 288
VWidth: 0
Flags: W
HStem: 0 21G<20.8984 99.7472> 0 21G<20.8984 99.7472> 404.5 53.2041<102.307 147.398 163.51 208.398> 410.903 20G<20.8984 95.0098 215.807 267.102>
VStem: 99.3984 48<422.5 457.704> 163.51 48<422.704 457.704>
LayerCount: 2
Fore
SplineSet
99.3984 457.704 m 5x2c
 147.398 457.704 l 5
 147.398 404.5 l 5
 102.307 404.5 l 5
 155.102 274.903 l 5
 208.398 404.5 l 5
 163.51 404.5 l 5
 163.51 457.704 l 5
 211.51 457.704 l 5x2c
 215.807 422.704 l 5
 219.21 430.903 l 5
 267.102 430.903 l 5
 91.6016 0 l 5
 20.8984 0 l 5
 94.3984 127.092 l 5
 130.71 215.403 l 5
 94.3984 303.796 l 5
 20.8984 430.903 l 5
 91.6016 430.903 l 5x9c
 95.0098 422.5 l 5
 99.3984 457.704 l 5x2c
99.3984 457.704 m 4
EndSplineSet
Validated: 1
EndChar

StartChar: uniE9BA
Encoding: 59834 59834 188
Width: 146
VWidth: 0
Flags: W
HStem: 0 37.7998<61.8984 77.5059> 193 37.8916<64.5059 77.5059>
VStem: 24.8984 37<37.7998 193> 77.5059 37<37.7031 193>
LayerCount: 2
Fore
SplineSet
24.8066 230.892 m 5
 121.193 230.892 l 5
 114.506 171 l 5
 114.506 59.7031 l 5
 121.193 0 l 5
 24.8984 0 l 5
 24.8066 230.892 l 5
64.5059 193 m 5
 61.8984 172 l 5
 61.8984 37.7998 l 5
 77.5059 37.7031 l 5
 77.5059 193 l 5
 64.5059 193 l 5
64.5059 193 m 4
EndSplineSet
Validated: 1
EndChar

StartChar: uniE9BB
Encoding: 59835 59835 189
Width: 98
VWidth: 0
Flags: W
HStem: 0 230.704
VStem: 30.4941 36.9043<0 230.704>
LayerCount: 2
Fore
SplineSet
23.8984 230.704 m 5
 74.1016 230.704 l 5
 67.3984 171 l 5
 67.3984 59.7998 l 5
 74.1016 0 l 5
 23.8984 0 l 5
 30.4941 58.8916 l 5
 30.4941 171.8 l 5
 23.8984 230.704 l 5
23.8984 230.704 m 4
EndSplineSet
Validated: 1
EndChar

StartChar: uniE9BC
Encoding: 59836 59836 190
Width: 174
VWidth: 0
Flags: W
HStem: 0 37<75.3516 147.776> 126.704 37.0957<97.8516 107.74> 174.5 56.7041<47.1484 84.1484> 193 38.2041<84.1484 107.74>
VStem: 47.1484 37<174.5 193> 107.74 37<163.8 193.704>
LayerCount: 2
Fore
SplineSet
47.1484 231.204 m 5xec
 144.74 231.204 l 5
 144.74 186.5 l 5
 152.148 126.596 l 5
 97.8516 126.704 l 5
 75.3516 37 l 5
 91.1484 37 l 5
 150.944 44.3916 l 5
 150.944 0 l 5
 21.8516 0 l 5
 66.2402 163.8 l 5
 107.74 163.8 l 5
 107.74 193.704 l 5
 84.1484 193 l 5xdc
 84.1484 174.5 l 5
 47.1484 174.5 l 5
 47.1484 231.204 l 5xec
47.1484 231.204 m 4xec
EndSplineSet
Validated: 1
EndChar

StartChar: uniE9BD
Encoding: 59837 59837 191
Width: 166
VWidth: 0
Flags: W
HStem: 0 37<26.8163 87.8516> 175.204 56<28.2559 65.2559> 193.5 37.7041<65.2559 88.9434>
VStem: 28.2559 37<175.204 193.5> 88.9434 37<166.8 193.5>
LayerCount: 2
Fore
SplineSet
23.6484 0 m 5xb8
 23.6484 44.3916 l 5
 83.4434 37 l 5
 87.8516 37 l 5
 65.1484 92.0957 l 5
 21.6484 167.204 l 5
 88.9434 166.8 l 5
 88.9434 193.5 l 5
 65.2559 193.5 l 5xb8
 65.2559 175.204 l 5
 28.2559 175.204 l 5
 28.2559 231.204 l 5xd8
 125.943 231.204 l 5
 125.943 188.704 l 5
 133.256 129.704 l 5
 91.5527 129.8 l 5
 144.352 0 l 5
 23.6484 0 l 5xb8
23.6484 0 m 4
EndSplineSet
Validated: 1
EndChar

StartChar: uniE9BE
Encoding: 59838 59838 192
Width: 180
VWidth: 0
Flags: W
HStem: 0 21G<98.4531 142.861> 0 21G<98.4531 142.861> 61.5957 37.1084<77.75 105.657 143.75 158.75>
VStem: 98.4531 44.4082<0 56.4956> 105.657 38.0928<6.37383 61.5957 98.7041 98.7041>
LayerCount: 2
Fore
SplineSet
90.5654 231.3 m 5xb0
 145.157 231.3 l 5
 101.861 156.5 l 5
 77.75 98.7041 l 5
 105.657 98.7041 l 5
 105.657 149.096 l 5
 149.953 149.096 l 5
 143.75 98.7041 l 5xa8
 158.75 98.7041 l 5
 158.75 61.7041 l 5
 142.657 61.7041 l 5
 142.861 0 l 5
 98.4531 0 l 5
 105.75 58.8916 l 5
 105.75 61.5957 l 5
 21.25 61.5957 l 5
 90.5654 231.3 l 5xb0
90.5654 231.3 m 4
EndSplineSet
Validated: 1
EndChar

StartChar: uniE9BF
Encoding: 59839 59839 193
Width: 175
VWidth: 0
Flags: W
HStem: 0 56.7041<47.6484 84.6484> 0 38.2041<84.6484 108.244> 67.3916 37.1084<98.3516 108.244> 194.204 37<75.8516 148.182>
VStem: 47.6484 37<38.2041 56.7041> 108.244 37<37.5 67.3916>
LayerCount: 2
Fore
SplineSet
47.6484 0 m 5xbc
 47.6484 56.7041 l 5
 84.6484 56.7041 l 5xbc
 84.6484 38.2041 l 5
 108.244 37.5 l 5
 108.244 67.3916 l 5
 66.7441 67.3916 l 5
 22.3516 231.204 l 5
 151.447 231.204 l 5
 151.447 186.8 l 5
 91.6484 194.204 l 5
 75.8516 194.204 l 5
 98.3516 104.5 l 5
 152.648 104.596 l 5
 145.244 44.7041 l 5
 145.244 0 l 5x7c
 47.6484 0 l 5xbc
47.6484 0 m 4
EndSplineSet
Validated: 1
EndChar

StartChar: uniE9C0
Encoding: 59840 59840 194
Width: 138
VWidth: 0
Flags: W
HStem: 0 33.8916<68.2041 76.7363> 104 37.7031<68.2041 79.3281> 194.203 37.6885<68.2041 112.704>
VStem: 31.1123 37.0918<33.8916 104 141.703 194.203> 79.3281 34.1719<33.8916 104>
LayerCount: 2
Fore
SplineSet
24.5 231.892 m 5
 112.704 231.892 l 5
 112.704 194.203 l 5
 68.2041 194.203 l 5
 68.2041 141.703 l 5
 113.5 141.8 l 5
 113.5 0 l 5
 24.5 0 l 5
 31.1123 59 l 5
 31.1123 173.096 l 5
 24.5 231.892 l 5
68.2041 104 m 5
 68.2041 33.8916 l 5
 76.7363 33.8916 l 5
 79.3281 55.7031 l 5
 79.3281 104 l 5
 68.2041 104 l 5
68.2041 104 m 4
EndSplineSet
Validated: 1
EndChar

StartChar: uniE9C1
Encoding: 59841 59841 195
Width: 192
VWidth: 0
Flags: W
HStem: 0 21G<21.5459 83.7492> 0 21G<21.5459 83.7492> 194.392 37<23.9541 113.954>
VStem: 23.9541 146.5
LayerCount: 2
Fore
SplineSet
23.9541 231.392 m 5xb0
 170.454 231.392 l 5
 75.5459 0 l 5
 21.5459 0 l 5
 64.75 74.5957 l 5
 113.954 194.392 l 5
 23.9541 194.392 l 5
 23.9541 231.392 l 5xb0
23.9541 231.392 m 4
EndSplineSet
Validated: 1
EndChar

StartChar: uniE9C2
Encoding: 59842 59842 196
Width: 148
VWidth: 0
Flags: W
HStem: 0 37.8906<78.4941 86.5098> 193.703 37.8926<63.8984 71.8066>
VStem: 24.3066 37<117.955 193.703> 41.3984 37.0957<37.8906 105.203> 71.8066 34.7949<143 193.703> 89.1182 34.6885<37.8906 117.672>
LayerCount: 2
Fore
SplineSet
24.1934 231.596 m 5xe0
 113.307 231.596 l 5
 106.602 171.703 l 5
 106.602 143 l 5xe8
 123.693 143 l 5
 123.807 0 l 5
 34.6934 0 l 5
 41.3984 59.8906 l 5
 41.3984 105.203 l 5xd4
 24.3066 105.203 l 5
 24.1934 231.596 l 5xe0
63.8984 193.703 m 5
 61.3066 172.703 l 5
 61.3066 117.955 l 5
 71.8066 117.955 l 5
 71.8066 193.703 l 5
 63.8984 193.703 l 5
78.4941 117.672 m 5xd4
 78.4941 37.8906 l 5
 86.5098 37.8906 l 5
 89.1182 58.8906 l 5
 89.1182 117.672 l 5
 78.4941 117.672 l 5xd4
78.4941 117.672 m 4
EndSplineSet
Validated: 1
EndChar

StartChar: uniE9C3
Encoding: 59843 59843 197
Width: 138
VWidth: 0
Flags: W
HStem: 0 37.7031<25.2969 69.7969> 90.2031 37.6885<58.6719 69.7969> 198 33.8916<61.2637 69.7969>
VStem: 24.5 34.1719<127.892 198> 69.7969 37.1074<37.7031 90.2031 127.892 198>
LayerCount: 2
Fore
SplineSet
113.5 0 m 5
 25.2969 0 l 5
 25.2969 37.7031 l 5
 69.7969 37.7031 l 5
 69.7969 90.2031 l 5
 24.5 90.0957 l 5
 24.5 231.892 l 5
 113.5 231.892 l 5
 106.904 172.892 l 5
 106.904 58.7998 l 5
 113.5 0 l 5
69.7969 127.892 m 5
 69.7969 198 l 5
 61.2637 198 l 5
 58.6719 176.203 l 5
 58.6719 127.892 l 5
 69.7969 127.892 l 5
69.7969 127.892 m 4
EndSplineSet
Validated: 1
EndChar

StartChar: uniE9C4
Encoding: 59844 59844 198
Width: 146
VWidth: 0
Flags: W
HStem: 201.018 37.7998<61.8984 77.5059> 394.018 37.8916<64.5059 77.5059>
VStem: 24.8984 37<238.817 394.018> 77.5059 37<238.721 394.018>
LayerCount: 2
Fore
SplineSet
24.8066 431.909 m 5
 121.193 431.909 l 5
 114.506 372.018 l 5
 114.506 260.721 l 5
 121.193 201.018 l 5
 24.8984 201.018 l 5
 24.8066 431.909 l 5
64.5059 394.018 m 5
 61.8984 373.018 l 5
 61.8984 238.817 l 5
 77.5059 238.721 l 5
 77.5059 394.018 l 5
 64.5059 394.018 l 5
64.5059 394.018 m 4
EndSplineSet
Validated: 1
EndChar

StartChar: uniE9C5
Encoding: 59845 59845 199
Width: 100
VWidth: 0
Flags: W
HStem: 201.205 230.704
VStem: 31.4941 36.9043<201.205 431.909>
LayerCount: 2
Fore
SplineSet
24.8984 431.909 m 5
 75.1016 431.909 l 5
 68.3984 372.205 l 5
 68.3984 261.005 l 5
 75.1016 201.205 l 5
 24.8984 201.205 l 5
 31.4941 260.097 l 5
 31.4941 373.005 l 5
 24.8984 431.909 l 5
24.8984 431.909 m 4
EndSplineSet
Validated: 1
EndChar

StartChar: uniE9C6
Encoding: 59846 59846 200
Width: 175
VWidth: 0
Flags: W
HStem: 200.705 37<75.8516 148.276> 327.409 37.0957<98.3516 108.24> 375.205 56.7041<47.6484 84.6484> 393.705 38.2041<84.6484 108.24>
VStem: 47.6484 37<375.205 393.705> 108.24 37<364.505 394.409>
LayerCount: 2
Fore
SplineSet
47.6484 431.909 m 5xec
 145.24 431.909 l 5
 145.24 387.205 l 5
 152.648 327.301 l 5
 98.3516 327.409 l 5
 75.8516 237.705 l 5
 91.6484 237.705 l 5
 151.444 245.097 l 5
 151.444 200.705 l 5
 22.3516 200.705 l 5
 66.7402 364.505 l 5
 108.24 364.505 l 5
 108.24 394.409 l 5
 84.6484 393.705 l 5xdc
 84.6484 375.205 l 5
 47.6484 375.205 l 5
 47.6484 431.909 l 5xec
47.6484 431.909 m 4xec
EndSplineSet
Validated: 1
EndChar

StartChar: uniE9C7
Encoding: 59847 59847 201
Width: 168
VWidth: 0
Flags: W
HStem: 200.705 37<27.8163 88.8516> 375.909 56<29.2559 66.2559> 394.205 37.7041<66.2559 89.9434>
VStem: 29.2559 37<375.909 394.205> 89.9434 37<367.505 394.205>
LayerCount: 2
Fore
SplineSet
24.6484 200.705 m 5xb8
 24.6484 245.097 l 5
 84.4434 237.705 l 5
 88.8516 237.705 l 5
 66.1484 292.801 l 5
 22.6484 367.909 l 5
 89.9434 367.505 l 5
 89.9434 394.205 l 5
 66.2559 394.205 l 5xb8
 66.2559 375.909 l 5
 29.2559 375.909 l 5
 29.2559 431.909 l 5xd8
 126.943 431.909 l 5
 126.943 389.409 l 5
 134.256 330.409 l 5
 92.5527 330.505 l 5
 145.352 200.705 l 5
 24.6484 200.705 l 5xb8
24.6484 200.705 m 4
EndSplineSet
Validated: 1
EndChar

StartChar: uniE9C8
Encoding: 59848 59848 202
Width: 180
VWidth: 0
Flags: W
HStem: 262.205 37.1084<77.75 105.657 143.75 158.75>
VStem: 98.4531 44.4082<200.609 257.105> 105.657 38.0928<206.983 262.205 299.313 299.313>
LayerCount: 2
Fore
SplineSet
90.5654 431.909 m 5xc0
 145.157 431.909 l 5
 101.861 357.109 l 5
 77.75 299.313 l 5
 105.657 299.313 l 5
 105.657 349.705 l 5
 149.953 349.705 l 5
 143.75 299.313 l 5xa0
 158.75 299.313 l 5
 158.75 262.313 l 5
 142.657 262.313 l 5
 142.861 200.609 l 5
 98.4531 200.609 l 5
 105.75 259.501 l 5
 105.75 262.205 l 5
 21.25 262.205 l 5
 90.5654 431.909 l 5xc0
90.5654 431.909 m 4
EndSplineSet
Validated: 1
EndChar

StartChar: uniE9C9
Encoding: 59849 59849 203
Width: 176
VWidth: 0
Flags: W
HStem: 200.705 56.7041<48.1484 85.1484> 200.705 38.2041<85.1484 108.744> 268.097 37.1084<98.8516 108.744> 394.909 37<76.3516 148.682>
VStem: 48.1484 37<238.909 257.409> 108.744 37<238.205 268.097>
LayerCount: 2
Fore
SplineSet
48.1484 200.705 m 5xbc
 48.1484 257.409 l 5
 85.1484 257.409 l 5xbc
 85.1484 238.909 l 5
 108.744 238.205 l 5
 108.744 268.097 l 5
 67.2441 268.097 l 5
 22.8516 431.909 l 5
 151.947 431.909 l 5
 151.947 387.505 l 5
 92.1484 394.909 l 5
 76.3516 394.909 l 5
 98.8516 305.205 l 5
 153.148 305.301 l 5
 145.744 245.409 l 5
 145.744 200.705 l 5x7c
 48.1484 200.705 l 5xbc
48.1484 200.705 m 4
EndSplineSet
Validated: 1
EndChar

StartChar: uniE9CA
Encoding: 59850 59850 204
Width: 139
VWidth: 0
Flags: W
HStem: 200.018 33.8916<68.7041 77.2363> 304.018 37.7031<68.7041 79.8281> 394.221 37.6885<68.7041 113.204>
VStem: 31.6123 37.0918<233.909 304.018 341.721 394.221> 79.8281 34.1719<233.909 304.018>
LayerCount: 2
Fore
SplineSet
25 431.909 m 5
 113.204 431.909 l 5
 113.204 394.221 l 5
 68.7041 394.221 l 5
 68.7041 341.721 l 5
 114 341.817 l 5
 114 200.018 l 5
 25 200.018 l 5
 31.6123 259.018 l 5
 31.6123 373.113 l 5
 25 431.909 l 5
68.7041 304.018 m 5
 68.7041 233.909 l 5
 77.2363 233.909 l 5
 79.8281 255.721 l 5
 79.8281 304.018 l 5
 68.7041 304.018 l 5
68.7041 304.018 m 4
EndSplineSet
Validated: 1
EndChar

StartChar: uniE9CB
Encoding: 59851 59851 205
Width: 192
VWidth: 0
Flags: W
HStem: 394.909 37<23.9541 113.954>
VStem: 23.9541 146.5
LayerCount: 2
Fore
SplineSet
23.9541 431.909 m 5
 170.454 431.909 l 5
 75.5459 200.518 l 5
 21.5459 200.518 l 5
 64.75 275.113 l 5
 113.954 394.909 l 5
 23.9541 394.909 l 5
 23.9541 431.909 l 5
23.9541 431.909 m 4
EndSplineSet
Validated: 1
EndChar

StartChar: uniE9CC
Encoding: 59852 59852 206
Width: 148
VWidth: 0
Flags: W
HStem: 200.313 37.8906<78.4941 86.5098> 394.017 37.8926<63.8984 71.8066>
VStem: 24.3066 37<318.269 394.017> 41.3984 37.0957<238.204 305.517> 71.8066 34.7949<343.313 394.017> 89.1182 34.6885<238.204 317.985>
LayerCount: 2
Fore
SplineSet
24.1934 431.909 m 5xe0
 113.307 431.909 l 5
 106.602 372.017 l 5
 106.602 343.313 l 5xe8
 123.693 343.313 l 5
 123.807 200.313 l 5
 34.6934 200.313 l 5
 41.3984 260.204 l 5
 41.3984 305.517 l 5xd4
 24.3066 305.517 l 5
 24.1934 431.909 l 5xe0
63.8984 394.017 m 5
 61.3066 373.017 l 5
 61.3066 318.269 l 5
 71.8066 318.269 l 5
 71.8066 394.017 l 5
 63.8984 394.017 l 5
78.4941 317.985 m 5xd4
 78.4941 238.204 l 5
 86.5098 238.204 l 5
 89.1182 259.204 l 5
 89.1182 317.985 l 5
 78.4941 317.985 l 5xd4
78.4941 317.985 m 4
EndSplineSet
Validated: 1
EndChar

StartChar: uniE9CD
Encoding: 59853 59853 207
Width: 139
VWidth: 0
Flags: W
HStem: 200.018 37.7031<25.7969 70.2969> 290.221 37.6885<59.1719 70.2969> 398.018 33.8916<61.7637 70.2969>
VStem: 25 34.1719<327.909 398.018> 70.2969 37.1074<237.721 290.221 327.909 398.018>
LayerCount: 2
Fore
SplineSet
114 200.018 m 5
 25.7969 200.018 l 5
 25.7969 237.721 l 5
 70.2969 237.721 l 5
 70.2969 290.221 l 5
 25 290.113 l 5
 25 431.909 l 5
 114 431.909 l 5
 107.404 372.909 l 5
 107.404 258.817 l 5
 114 200.018 l 5
70.2969 327.909 m 5
 70.2969 398.018 l 5
 61.7637 398.018 l 5
 59.1719 376.221 l 5
 59.1719 327.909 l 5
 70.2969 327.909 l 5
70.2969 327.909 m 4
EndSplineSet
Validated: 1
EndChar

StartChar: uniE9CE
Encoding: 59854 59854 208
Width: 148
VWidth: 0
Flags: W
HStem: -171 37.8008<62.8984 78.5059> 22 37.8926<65.5059 78.5059>
VStem: 25.8984 37<-133.199 22> 78.5059 37<-133.297 22>
LayerCount: 2
Fore
SplineSet
25.8066 59.8926 m 5
 122.193 59.8926 l 5
 115.506 0 l 5
 115.506 -111.297 l 5
 122.193 -171 l 5
 25.8984 -171 l 5
 25.8066 59.8926 l 5
65.5059 22 m 5
 62.8984 1 l 5
 62.8984 -133.199 l 5
 78.5059 -133.297 l 5
 78.5059 22 l 5
 65.5059 22 l 5
65.5059 22 m 4
EndSplineSet
Validated: 1
EndChar

StartChar: uniE9CF
Encoding: 59855 59855 209
Width: 102
VWidth: 0
Flags: W
HStem: -171.799 230.703
VStem: 32.4941 36.9043<-171.799 58.9043>
LayerCount: 2
Fore
SplineSet
25.8984 58.9043 m 5
 76.1016 58.9043 l 5
 69.3984 -0.798828 l 5
 69.3984 -112 l 5
 76.1016 -171.799 l 5
 25.8984 -171.799 l 5
 32.4941 -112.908 l 5
 32.4941 0 l 5
 25.8984 58.9043 l 5
25.8984 58.9043 m 4
EndSplineSet
Validated: 1
EndChar

StartChar: uniE9D0
Encoding: 59856 59856 210
Width: 177
VWidth: 0
Flags: W
HStem: -170.555 37<76.8516 149.284> -43.8516 37.0957<99.3516 109.24> 3.94531 56.7031<48.6484 85.6484> 22.4453 38.2031<85.6484 109.24>
VStem: 48.6484 37<3.94531 22.4453> 109.24 37<-6.75586 23.1484>
LayerCount: 2
Fore
SplineSet
48.6484 60.6484 m 5xec
 146.24 60.6484 l 5
 146.24 15.9453 l 5
 153.648 -43.959 l 5
 99.3516 -43.8516 l 5
 76.8516 -133.555 l 5
 92.6484 -133.555 l 5
 152.444 -126.164 l 5
 152.444 -170.555 l 5
 23.3516 -170.555 l 5
 67.7402 -6.75586 l 5
 109.24 -6.75586 l 5
 109.24 23.1484 l 5
 85.6484 22.4453 l 5xdc
 85.6484 3.94531 l 5
 48.6484 3.94531 l 5
 48.6484 60.6484 l 5xec
48.6484 60.6484 m 4xec
EndSplineSet
Validated: 1
EndChar

StartChar: uniE9D1
Encoding: 59857 59857 211
Width: 170
VWidth: 0
Flags: W
HStem: -170.555 37<28.8238 89.8516> 4.65039 56<30.2559 67.2559> 22.9453 37.7051<67.2559 90.9434>
VStem: 30.2559 37<4.65039 22.9453> 90.9434 37<-3.75391 22.9453>
LayerCount: 2
Fore
SplineSet
25.6484 -170.555 m 5xb8
 25.6484 -126.162 l 5
 85.4434 -133.555 l 5
 89.8516 -133.555 l 5
 67.1484 -78.459 l 5
 23.6484 -3.34961 l 5
 90.9434 -3.75391 l 5
 90.9434 22.9453 l 5
 67.2559 22.9453 l 5xb8
 67.2559 4.65039 l 5
 30.2559 4.65039 l 5
 30.2559 60.6504 l 5xd8
 127.943 60.6504 l 5
 127.943 18.1504 l 5
 135.256 -40.8496 l 5
 93.5527 -40.7539 l 5
 146.352 -170.555 l 5
 25.6484 -170.555 l 5xb8
25.6484 -170.555 m 4
EndSplineSet
Validated: 1
EndChar

StartChar: uniE9D2
Encoding: 59858 59858 212
Width: 182
VWidth: 0
Flags: W
HStem: -108.957 37.1074<78.75 106.657 144.75 159.75>
VStem: 99.4531 44.4082<-170.553 -114.058> 106.657 38.0928<-164.179 -108.957 -71.8496 -71.8496>
LayerCount: 2
Fore
SplineSet
91.5654 60.7461 m 5xc0
 146.157 60.7461 l 5
 102.861 -14.0527 l 5
 78.75 -71.8496 l 5
 106.657 -71.8496 l 5
 106.657 -21.457 l 5
 150.953 -21.457 l 5
 144.75 -71.8496 l 5xa0
 159.75 -71.8496 l 5
 159.75 -108.85 l 5
 143.657 -108.85 l 5
 143.861 -170.553 l 5
 99.4531 -170.553 l 5
 106.75 -111.662 l 5
 106.75 -108.957 l 5
 22.25 -108.957 l 5
 91.5654 60.7461 l 5xc0
91.5654 60.7461 m 4
EndSplineSet
Validated: 1
EndChar

StartChar: uniE9D3
Encoding: 59859 59859 213
Width: 180
VWidth: 0
Flags: W
HStem: -170.555 56.7051<50.1484 87.1484> -170.555 38.2051<87.1484 110.744> -103.162 37.1074<100.852 110.744> 23.6504 37<78.3516 150.682>
VStem: 50.1484 37<-132.35 -113.85> 110.744 37<-133.055 -103.162>
LayerCount: 2
Fore
SplineSet
50.1484 -170.555 m 5xbc
 50.1484 -113.85 l 5
 87.1484 -113.85 l 5xbc
 87.1484 -132.35 l 5
 110.744 -133.055 l 5
 110.744 -103.162 l 5
 69.2441 -103.162 l 5
 24.8516 60.6504 l 5
 153.947 60.6504 l 5
 153.947 16.2461 l 5
 94.1484 23.6504 l 5
 78.3516 23.6504 l 5
 100.852 -66.0547 l 5
 155.148 -65.959 l 5
 147.744 -125.85 l 5
 147.744 -170.555 l 5x7c
 50.1484 -170.555 l 5xbc
50.1484 -170.555 m 4
EndSplineSet
Validated: 1
EndChar

StartChar: uniE9D4
Encoding: 59860 59860 214
Width: 140
VWidth: 0
Flags: W
HStem: -170.555 33.8926<69.2041 77.7363> -66.5547 37.7031<69.2041 80.3281> 23.6484 37.6895<69.2041 113.704>
VStem: 32.1123 37.0918<-136.662 -66.5547 -28.8516 23.6484> 80.3281 34.1719<-136.662 -66.5547>
LayerCount: 2
Fore
SplineSet
25.5 61.3379 m 5
 113.704 61.3379 l 5
 113.704 23.6484 l 5
 69.2041 23.6484 l 5
 69.2041 -28.8516 l 5
 114.5 -28.7539 l 5
 114.5 -170.555 l 5
 25.5 -170.555 l 5
 32.1123 -111.555 l 5
 32.1123 2.54102 l 5
 25.5 61.3379 l 5
69.2041 -66.5547 m 5
 69.2041 -136.662 l 5
 77.7363 -136.662 l 5
 80.3281 -114.852 l 5
 80.3281 -66.5547 l 5
 69.2041 -66.5547 l 5
69.2041 -66.5547 m 4
EndSplineSet
Validated: 1
EndChar

StartChar: uniE9D5
Encoding: 59861 59861 215
Width: 198
VWidth: 0
Flags: W
HStem: 23.8379 37<26.9541 116.954>
VStem: 26.9541 146.5
LayerCount: 2
Fore
SplineSet
26.9541 60.8379 m 5
 173.454 60.8379 l 5
 78.5459 -170.555 l 5
 24.5459 -170.555 l 5
 67.75 -95.959 l 5
 116.954 23.8379 l 5
 26.9541 23.8379 l 5
 26.9541 60.8379 l 5
26.9541 60.8379 m 4
EndSplineSet
Validated: 1
EndChar

StartChar: uniE9D6
Encoding: 59862 59862 216
Width: 150
VWidth: 0
Flags: W
HStem: -170.554 37.8906<79.4941 87.5098> 23.1494 37.8926<64.8984 72.8066>
VStem: 25.3066 37<-52.5986 23.1494> 42.3984 37.0957<-132.663 -65.3506> 72.8066 34.7949<-27.5537 23.1494> 90.1182 34.6885<-132.663 -52.8818>
LayerCount: 2
Fore
SplineSet
25.1934 61.042 m 5xe0
 114.307 61.042 l 5
 107.602 1.14941 l 5
 107.602 -27.5537 l 5xe8
 124.693 -27.5537 l 5
 124.807 -170.554 l 5
 35.6934 -170.554 l 5
 42.3984 -110.663 l 5
 42.3984 -65.3506 l 5xd4
 25.3066 -65.3506 l 5
 25.1934 61.042 l 5xe0
64.8984 23.1494 m 5
 62.3066 2.14941 l 5
 62.3066 -52.5986 l 5
 72.8066 -52.5986 l 5
 72.8066 23.1494 l 5
 64.8984 23.1494 l 5
79.4941 -52.8818 m 5xd4
 79.4941 -132.663 l 5
 87.5098 -132.663 l 5
 90.1182 -111.663 l 5
 90.1182 -52.8818 l 5
 79.4941 -52.8818 l 5xd4
79.4941 -52.8818 m 4
EndSplineSet
Validated: 1
EndChar

StartChar: uniE9D7
Encoding: 59863 59863 217
Width: 141
VWidth: 0
Flags: W
HStem: -170.555 37.7031<26.7969 71.2969> -80.3516 37.6895<60.1719 71.2969> 27.4453 33.8926<62.7637 71.2969>
VStem: 26 34.1719<-42.6621 27.4453> 71.2969 37.1074<-132.852 -80.3516 -42.6621 27.4453>
LayerCount: 2
Fore
SplineSet
115 -170.555 m 5
 26.7969 -170.555 l 5
 26.7969 -132.852 l 5
 71.2969 -132.852 l 5
 71.2969 -80.3516 l 5
 26 -80.459 l 5
 26 61.3379 l 5
 115 61.3379 l 5
 108.404 2.33789 l 5
 108.404 -111.754 l 5
 115 -170.555 l 5
71.2969 -42.6621 m 5
 71.2969 27.4453 l 5
 62.7637 27.4453 l 5
 60.1719 5.64844 l 5
 60.1719 -42.6621 l 5
 71.2969 -42.6621 l 5
71.2969 -42.6621 m 4
EndSplineSet
Validated: 1
EndChar

StartChar: uniE9D8
Encoding: 59864 59864 218
Width: 330
VWidth: 0
Flags: W
HStem: 0 100.345<116.908 213.204> 331.248 100.345<116.796 213.204>
VStem: 33.5918 83.3164<100.345 331.248> 153.908 15.5918<138.141 293.345> 206.5 89.9199<100.345 331.248>
LayerCount: 2
Fore
SplineSet
116.796 331.248 m 5
 116.908 100.345 l 5
 213.204 100.345 l 5
 206.5 160.044 l 5
 206.5 271.345 l 5
 213.204 331.248 l 5
 116.796 331.248 l 5
156.5 293.345 m 5
 169.5 293.345 l 5
 169.5 138.044 l 5
 153.908 138.141 l 5
 153.908 272.345 l 5
 156.5 293.345 l 5
156.5 293.345 m 4
22.1875 431.593 m 5
 307.812 431.593 l 5
 296.42 329.889 l 5
 296.42 101.7 l 5
 307.812 0 l 5
 22.1875 0 l 5
 33.5918 101.7 l 5
 33.5918 329.889 l 5
 22.1875 431.593 l 5
22.1875 431.593 m 4
EndSplineSet
Validated: 1
EndChar

StartChar: uniE9D9
Encoding: 59865 59865 219
Width: 330
VWidth: 0
Flags: W
HStem: 0 100.452<139.889 190.092> 331.141 100.452<139.889 190.092>
VStem: 33.5762 112.924<100.452 331.141> 183.389 113.016<100.452 331.141>
LayerCount: 2
Fore
SplineSet
139.889 331.141 m 5
 146.5 272.248 l 5
 146.5 159.345 l 5
 139.889 100.452 l 5
 190.092 100.452 l 5
 183.389 160.248 l 5
 183.389 271.452 l 5
 190.092 331.141 l 5
 139.889 331.141 l 5
139.889 331.141 m 4
22.1875 431.593 m 5
 307.812 431.593 l 5
 296.404 329.889 l 5
 296.404 101.7 l 5
 307.812 0 l 5
 22.1875 0 l 5
 33.5762 101.7 l 5
 33.5762 329.889 l 5
 22.1875 431.593 l 5
22.1875 431.593 m 4
EndSplineSet
Validated: 1
EndChar

StartChar: uniE9DA
Encoding: 59866 59866 220
Width: 330
VWidth: 0
Flags: W
HStem: 0 100.2<99.8418 228.954> 137.2 89.6885<175.842 225.779> 264 29.2002<162.158 185.75> 264 10.7002<144.25 162.158> 331.389 100.204<125.158 222.75>
VStem: 33.5781 91.5801<274.7 331.389> 162.158 23.5918<274.7 293.2> 222.75 73.6562<230.098 331.389> 228.954 67.4521<100.2 144.593 226.797 282.759>
LayerCount: 2
Fore
SplineSet
125.158 331.389 m 5xdf
 125.158 274.7 l 5
 162.158 274.7 l 5xdf
 162.158 293.2 l 5
 185.75 293.889 l 5
 185.75 264 l 5xef
 144.25 264 l 5
 99.8418 100.2 l 5
 228.954 100.2 l 5
 228.954 144.593 l 5xde80
 169.158 137.2 l 5
 153.342 137.2 l 5
 175.842 226.889 l 5
 230.158 226.797 l 5
 222.75 286.7 l 5
 222.75 331.389 l 5
 125.158 331.389 l 5xdf
125.158 331.389 m 4
22.1855 431.593 m 5
 307.814 431.593 l 5
 296.406 329.889 l 5xcf
 296.406 101.7 l 5xce80
 307.814 0 l 5
 22.1855 0 l 5
 33.5781 101.7 l 5
 33.5781 329.889 l 5
 22.1855 431.593 l 5
22.1855 431.593 m 4
EndSplineSet
Validated: 1
EndChar

StartChar: uniE9DB
Encoding: 59867 59867 221
Width: 330
VWidth: 0
Flags: W
HStem: 0 100.2<105.656 226.359> 267 26.7002<147.252 170.957> 267.389 8<110.252 147.252> 331.389 100.204<110.252 207.957>
VStem: 33.5957 76.6562<100.2 144.593 275.389 331.389> 147.252 23.7051<275.389 293.7> 207.957 88.4668<232.289 331.389>
LayerCount: 2
Fore
SplineSet
105.656 100.2 m 5xbe
 226.359 100.2 l 5
 173.564 230 l 5
 215.252 229.904 l 5
 207.957 288.889 l 5
 207.957 331.389 l 5
 110.252 331.389 l 5
 110.252 275.389 l 5
 147.252 275.389 l 5xbe
 147.252 293.7 l 5
 170.957 293.7 l 5
 170.957 267 l 5xde
 103.656 267.389 l 5
 147.156 192.297 l 5
 169.859 137.2 l 5
 165.457 137.2 l 5
 105.656 144.593 l 5
 105.656 100.2 l 5xbe
105.656 100.2 m 4
22.1875 431.593 m 5
 307.812 431.593 l 5
 296.424 329.889 l 5
 296.424 101.7 l 5
 307.812 0 l 5
 22.1875 0 l 5
 33.5957 101.7 l 5
 33.5957 329.889 l 5
 22.1875 431.593 l 5
22.1875 431.593 m 4
EndSplineSet
Validated: 1
EndChar

StartChar: uniE9DC
Encoding: 59868 59868 222
Width: 330
VWidth: 0
Flags: W
HStem: 0 161.748<96.248 173.452 217.844 233.748> 0 100.141<173.452 217.844> 331.452 100.141<165.548 220.14>
VStem: 152.748 27.8916<198.845 215.635> 233.748 62.6562<161.845 198.845>
LayerCount: 2
Fore
SplineSet
165.548 331.452 m 5x78
 96.248 161.748 l 5
 180.748 161.748 l 5xb8
 180.748 159.044 l 5
 173.452 100.141 l 5
 217.844 100.141 l 5
 217.64 161.845 l 5
 233.748 161.845 l 5
 233.748 198.845 l 5
 218.748 198.845 l 5
 224.952 249.248 l 5
 180.64 249.248 l 5
 180.64 198.845 l 5
 152.748 198.845 l 5
 176.844 256.641 l 5
 220.14 331.452 l 5
 165.548 331.452 l 5x78
165.548 331.452 m 4
22.1875 431.593 m 5
 307.812 431.593 l 5
 296.404 329.889 l 5
 296.404 101.7 l 5
 307.812 0 l 5
 22.1875 0 l 5x78
 33.5762 101.7 l 5
 33.5762 329.889 l 5
 22.1875 431.593 l 5
22.1875 431.593 m 4
EndSplineSet
Validated: 1
EndChar

StartChar: uniE9DD
Encoding: 59869 59869 223
Width: 330
VWidth: 0
Flags: W
HStem: 0 100.2<125.156 222.748> 138.389 29.2041<162.156 185.748> 156.889 10.7041<144.248 162.156> 331.389 100.204<99.8594 228.951>
VStem: 33.5918 91.5645<100.2 156.889> 162.156 23.5918<138.389 156.889> 222.748 73.6719<100.2 201.496 287 331.389>
LayerCount: 2
Fore
SplineSet
125.156 100.2 m 5xbe
 222.748 100.2 l 5
 222.748 144.889 l 5
 230.156 204.797 l 5
 175.859 204.7 l 5
 153.359 294.389 l 5
 169.156 294.389 l 5
 228.951 287 l 5
 228.951 331.389 l 5
 99.8594 331.389 l 5
 144.248 167.593 l 5xbe
 185.748 167.593 l 5
 185.748 137.7 l 5
 162.156 138.389 l 5xde
 162.156 156.889 l 5
 125.156 156.889 l 5
 125.156 100.2 l 5xbe
125.156 100.2 m 4
22.1875 431.593 m 5
 307.812 431.593 l 5
 296.42 329.889 l 5
 296.42 101.7 l 5
 307.812 0 l 5
 22.1875 0 l 5
 33.5918 101.7 l 5
 33.5918 329.889 l 5
 22.1875 431.593 l 5
22.1875 431.593 m 4
EndSplineSet
Validated: 1
EndChar

StartChar: uniE9DE
Encoding: 59870 59870 224
Width: 330
VWidth: 0
Flags: W
HStem: 0 99.8447<120.506 209.506> 241.544 52.5<164.193 208.693> 331.748 99.8447<120.506 208.693>
VStem: 33.5859 93.5156<99.8447 331.748> 164.193 11.1406<133.748 203.845> 209.506 86.9082<99.8447 241.641 294.044 331.748>
LayerCount: 2
Fore
SplineSet
120.506 331.748 m 5
 127.102 272.952 l 5
 127.102 158.845 l 5
 120.506 99.8447 l 5
 209.506 99.8447 l 5
 209.506 241.641 l 5
 164.193 241.544 l 5
 164.193 294.044 l 5
 208.693 294.044 l 5
 208.693 331.748 l 5
 120.506 331.748 l 5
164.193 203.845 m 5
 175.334 203.845 l 5
 175.334 155.544 l 5
 172.726 133.748 l 5
 164.193 133.748 l 5
 164.193 203.845 l 5
164.193 203.845 m 4
22.1777 431.593 m 5
 307.822 431.593 l 5
 296.414 329.889 l 5
 296.414 101.7 l 5
 307.822 0 l 5
 22.1777 0 l 5
 33.5859 101.7 l 5
 33.5859 329.889 l 5
 22.1777 431.593 l 5
22.1777 431.593 m 4
EndSplineSet
Validated: 1
EndChar

StartChar: uniE9DF
Encoding: 59871 59871 225
Width: 330
VWidth: 0
Flags: W
HStem: 0 100.093<90.5488 144.549> 331.5 100.093<92.9531 239.453>
VStem: 33.5801 59.373<294.5 331.5>
LayerCount: 2
Fore
SplineSet
92.9531 331.5 m 5
 92.9531 294.5 l 5
 182.953 294.5 l 5
 133.752 174.7 l 5
 90.5488 100.093 l 5
 144.549 100.093 l 5
 239.453 331.5 l 5
 92.9531 331.5 l 5
92.9531 331.5 m 4
22.1875 431.593 m 5
 307.812 431.593 l 5
 296.408 329.889 l 5
 296.408 101.7 l 5
 307.812 0 l 5
 22.1875 0 l 5
 33.5801 101.7 l 5
 33.5801 329.889 l 5
 22.1875 431.593 l 5
22.1875 431.593 m 4
EndSplineSet
Validated: 1
EndChar

StartChar: uniE9E0
Encoding: 59872 59872 226
Width: 330
VWidth: 0
Flags: W
HStem: 0 100<125.704 214.796> 331.593 100<115.204 204.312>
VStem: 33.5918 98.8164<100 205.2> 33.5918 81.7041<205.2 331.593> 152.296 10.5166<217.952 293.7> 169.5 10.6074<137.904 217.673> 197.607 98.8125<243 331.593>
LayerCount: 2
Fore
SplineSet
115.204 331.593 m 5xee
 115.296 205.2 l 5xde
 132.408 205.2 l 5
 132.408 159.889 l 5
 125.704 100 l 5
 214.796 100 l 5
 214.704 243 l 5
 197.607 243 l 5
 197.607 271.7 l 5
 204.312 331.593 l 5
 115.204 331.593 l 5xee
154.908 293.7 m 5
 162.812 293.7 l 5
 162.812 217.952 l 5
 152.296 217.952 l 5
 152.296 272.7 l 5
 154.908 293.7 l 5
169.5 217.673 m 5
 180.107 217.673 l 5
 180.107 158.889 l 5
 177.516 137.904 l 5
 169.5 137.904 l 5
 169.5 217.673 l 5
169.5 217.673 m 4
22.1875 431.593 m 5
 307.812 431.593 l 5
 296.42 329.889 l 5
 296.42 101.7 l 5
 307.812 0 l 5
 22.1875 0 l 5
 33.5918 101.7 l 5xee
 33.5918 329.889 l 5
 22.1875 431.593 l 5
22.1875 431.593 m 4
EndSplineSet
Validated: 1
EndChar

StartChar: uniE9E1
Encoding: 59873 59873 227
Width: 330
VWidth: 0
Flags: W
HStem: 0 99.8447<121.297 209.5> 137.544 52.4082<121.297 165.797> 331.748 99.8447<120.5 209.5>
VStem: 33.5762 86.9238<99.8447 137.544 189.952 331.748> 154.672 11.125<227.748 297.845> 202.889 93.5156<99.8447 331.748>
LayerCount: 2
Fore
SplineSet
209.5 99.8447 m 5
 202.889 158.641 l 5
 202.889 272.748 l 5
 209.5 331.748 l 5
 120.5 331.748 l 5
 120.5 189.952 l 5
 165.797 190.044 l 5
 165.797 137.544 l 5
 121.297 137.544 l 5
 121.297 99.8447 l 5
 209.5 99.8447 l 5
165.797 227.748 m 5
 154.672 227.748 l 5
 154.672 276.044 l 5
 157.264 297.845 l 5
 165.797 297.845 l 5
 165.797 227.748 l 5
165.797 227.748 m 4
307.812 0 m 5
 22.1875 0 l 5
 33.5762 101.7 l 5
 33.5762 329.889 l 5
 22.1875 431.593 l 5
 307.812 431.593 l 5
 296.404 329.889 l 5
 296.404 101.7 l 5
 307.812 0 l 5
307.812 0 m 4
EndSplineSet
Validated: 1
EndChar

StartChar: uniE9E2
Encoding: 59874 59874 228
Width: 365
VWidth: 0
Flags: W
HStem: 0 32<57.502 307.406> 98.8125 37.7949<171.406 187.002> 291.812 37.9082<174.002 187.002> 396.532 32<57.502 307.406>
VStem: 35.002 32<55.7217 372.801> 134.406 37<136.607 291.812> 187.002 37<136.516 291.812> 297.906 32<56.1558 372.367>
LayerCount: 2
Fore
SplineSet
21.7979 428.532 m 5
 343.202 428.532 l 5
 329.906 309.92 l 5
 329.906 118.592 l 5
 343.202 0 l 5
 21.7979 0 l 5
 35.002 118.592 l 5
 35.002 309.92 l 5
 21.7979 428.532 l 5
57.502 396.532 m 5
 67.002 311.721 l 5
 67.002 116.796 l 5
 57.502 32 l 5
 307.406 32 l 5
 297.906 116.796 l 5
 297.906 311.721 l 5
 307.406 396.532 l 5
 57.502 396.532 l 5
57.502 396.532 m 4
134.313 329.721 m 5
 230.702 329.721 l 5
 224.002 269.812 l 5
 224.002 158.516 l 5
 230.702 98.8125 l 5
 134.406 98.8125 l 5
 134.313 329.721 l 5
174.002 291.812 m 5
 171.406 270.812 l 5
 171.406 136.607 l 5
 187.002 136.516 l 5
 187.002 291.812 l 5
 174.002 291.812 l 5
174.002 291.812 m 4
EndSplineSet
Validated: 1
EndChar

StartChar: uniE9E3
Encoding: 59875 59875 229
Width: 365
VWidth: 0
Flags: W
HStem: 0 32<57.5 307.392> 396.532 32<57.5 307.392>
VStem: 35 32<55.7217 372.801> 164 36.8916<98.9082 329.607> 297.908 31.9834<56.2337 372.289>
LayerCount: 2
Fore
SplineSet
157.392 329.607 m 5
 207.596 329.607 l 5
 200.892 269.908 l 5
 200.892 158.721 l 5
 207.596 98.9082 l 5
 157.392 98.9082 l 5
 164 157.812 l 5
 164 270.721 l 5
 157.392 329.607 l 5
157.392 329.607 m 4
21.7959 428.532 m 5
 343.204 428.532 l 5
 329.892 309.92 l 5
 329.892 118.592 l 5
 343.204 0 l 5
 21.7959 0 l 5
 35 118.592 l 5
 35 309.92 l 5
 21.7959 428.532 l 5
57.5 396.532 m 5
 67 311.721 l 5
 67 116.796 l 5
 57.5 32 l 5
 307.392 32 l 5
 297.908 116.796 l 5
 297.908 311.721 l 5
 307.392 396.532 l 5
 57.5 396.532 l 5
57.5 396.532 m 4
EndSplineSet
Validated: 1
EndChar

StartChar: uniE9E4
Encoding: 59876 59876 230
Width: 365
VWidth: 0
Flags: W
HStem: 0 32<57.4922 307.396> 98.6562 37<170.852 243.149> 225.36 37.1084<193.352 203.256> 273.156 56.7041<142.648 179.648> 291.656 38.2041<179.648 203.256> 396.532 32<57.4922 307.396>
VStem: 34.9922 32<55.6426 372.88> 142.648 37<273.156 291.656> 203.256 36.9844<262.469 292.36> 297.896 32<56.1696 372.353>
LayerCount: 2
Fore
SplineSet
21.8047 428.532 m 5xe7c0
 343.195 428.532 l 5
 329.896 309.92 l 5
 329.896 118.592 l 5
 343.195 0 l 5
 21.8047 0 l 5
 34.9922 118.592 l 5
 34.9922 309.92 l 5
 21.8047 428.532 l 5xe7c0
57.4922 396.532 m 5
 66.9922 311.721 l 5
 66.9922 116.796 l 5
 57.4922 32 l 5
 307.396 32 l 5
 297.896 116.796 l 5
 297.896 311.721 l 5
 307.396 396.532 l 5
 57.4922 396.532 l 5
57.4922 396.532 m 4
142.648 329.86 m 5xf7c0
 240.24 329.86 l 5
 240.24 285.156 l 5
 247.648 225.264 l 5
 193.352 225.36 l 5
 170.852 135.656 l 5
 186.648 135.656 l 5
 246.443 143.064 l 5
 246.443 98.6562 l 5
 117.352 98.6562 l 5
 161.74 262.469 l 5
 203.256 262.469 l 5
 203.256 292.36 l 5
 179.648 291.656 l 5xefc0
 179.648 273.156 l 5
 142.648 273.156 l 5
 142.648 329.86 l 5xf7c0
142.648 329.86 m 4xf7c0
EndSplineSet
Validated: 1
EndChar

StartChar: uniE9E5
Encoding: 59877 59877 231
Width: 365
VWidth: 0
Flags: W
HStem: 0 32<57.5 307.392> 98.6562 37<126.435 187.344> 273.86 56<127.752 164.752> 292.156 37.7041<164.752 188.456> 396.532 32<57.5 307.392>
VStem: 35 32<55.7217 372.801> 127.752 37<273.86 292.156> 188.456 37<265.469 292.156> 297.908 31.9834<56.2337 372.289>
LayerCount: 2
Fore
SplineSet
21.7959 428.532 m 5xcf80
 343.204 428.532 l 5
 329.892 309.92 l 5
 329.892 118.592 l 5
 343.204 0 l 5
 21.7959 0 l 5
 35 118.592 l 5
 35 309.92 l 5
 21.7959 428.532 l 5xcf80
57.5 396.532 m 5
 67 311.721 l 5
 67 116.796 l 5
 57.5 32 l 5
 307.392 32 l 5
 297.908 116.796 l 5
 297.908 311.721 l 5
 307.392 396.532 l 5
 57.5 396.532 l 5
57.5 396.532 m 4
123.14 98.6562 m 5
 123.14 143.064 l 5
 182.952 135.656 l 5
 187.344 135.656 l 5
 164.656 190.764 l 5
 121.14 265.86 l 5
 188.456 265.469 l 5
 188.456 292.156 l 5
 164.752 292.156 l 5xdf80
 164.752 273.86 l 5
 127.752 273.86 l 5
 127.752 329.86 l 5xef80
 225.456 329.86 l 5xdf80
 225.456 287.36 l 5
 232.752 228.36 l 5
 191.048 228.469 l 5
 243.844 98.6562 l 5
 123.14 98.6562 l 5
123.14 98.6562 m 4
EndSplineSet
Validated: 1
EndChar

StartChar: uniE9E6
Encoding: 59878 59878 232
Width: 365
VWidth: 0
Flags: W
HStem: 0 32<57.502 307.406> 160.221 37.0918<170.25 198.158 236.25 251.25> 396.532 32<57.502 307.406>
VStem: 35.002 32<55.7217 372.801> 190.954 44.4033<98.6074 155.126> 198.158 38.0918<105.291 160.221 197.312 197.312> 297.906 32<56.1558 372.367>
LayerCount: 2
Fore
SplineSet
21.7979 428.532 m 5xf2
 343.202 428.532 l 5
 329.906 309.92 l 5
 329.906 118.592 l 5
 343.202 0 l 5
 21.7979 0 l 5
 35.002 118.592 l 5
 35.002 309.92 l 5
 21.7979 428.532 l 5xf2
57.502 396.532 m 5
 67.002 311.721 l 5
 67.002 116.796 l 5
 57.502 32 l 5
 307.406 32 l 5
 297.906 116.796 l 5
 297.906 311.721 l 5
 307.406 396.532 l 5
 57.502 396.532 l 5
57.502 396.532 m 4
183.046 329.908 m 5
 237.658 329.908 l 5
 194.357 255.107 l 5
 170.25 197.312 l 5
 198.158 197.312 l 5
 198.158 247.721 l 5
 242.454 247.721 l 5
 236.25 197.312 l 5xf6
 251.25 197.312 l 5
 251.25 160.312 l 5
 235.158 160.312 l 5
 235.357 98.6074 l 5
 190.954 98.6074 l 5xfa
 198.25 157.516 l 5
 198.25 160.221 l 5
 113.75 160.221 l 5
 183.046 329.908 l 5
183.046 329.908 m 4
EndSplineSet
Validated: 1
EndChar

StartChar: uniE9E7
Encoding: 59879 59879 233
Width: 365
VWidth: 0
Flags: W
HStem: 0 32<57.502 307.406> 98.6562 56.7041<142.658 179.658> 98.6562 38.2041<179.658 203.25> 166.064 37.0918<193.357 203.25> 292.86 37<170.861 243.286> 396.532 32<57.502 307.406>
VStem: 35.002 32<55.7217 372.801> 142.658 37<136.86 155.36> 203.25 37<136.156 166.064> 297.906 32<56.1558 372.367>
LayerCount: 2
Fore
SplineSet
21.7979 428.532 m 5x9fc0
 343.202 428.532 l 5
 329.906 309.92 l 5
 329.906 118.592 l 5
 343.202 0 l 5
 21.7979 0 l 5
 35.002 118.592 l 5
 35.002 309.92 l 5
 21.7979 428.532 l 5x9fc0
57.502 396.532 m 5
 67.002 311.721 l 5
 67.002 116.796 l 5
 57.502 32 l 5
 307.406 32 l 5
 297.906 116.796 l 5
 297.906 311.721 l 5
 307.406 396.532 l 5
 57.502 396.532 l 5
57.502 396.532 m 4
142.658 98.6562 m 5xdfc0
 142.658 155.36 l 5
 179.658 155.36 l 5xdfc0
 179.658 136.86 l 5
 203.25 136.156 l 5
 203.25 166.064 l 5
 161.75 166.064 l 5
 117.357 329.86 l 5
 246.454 329.86 l 5
 246.454 285.469 l 5
 186.658 292.86 l 5
 170.861 292.86 l 5
 193.357 203.156 l 5
 247.658 203.264 l 5
 240.25 143.36 l 5
 240.25 98.6562 l 5xbfc0
 142.658 98.6562 l 5xdfc0
142.658 98.6562 m 4
EndSplineSet
Validated: 1
EndChar

StartChar: uniE9E8
Encoding: 59880 59880 234
Width: 365
VWidth: 0
Flags: W
HStem: 0 32<57.498 307.406> 98.3125 33.8916<181.702 190.234> 202.312 37.7031<181.702 192.826> 292.516 37.6885<181.702 226.202> 396.532 32<57.498 307.406>
VStem: 34.998 32<55.7031 372.819> 144.594 37.1084<132.204 202.312 240.016 292.516> 192.826 34.1719<132.204 202.312> 297.906 32<56.1558 372.367>
LayerCount: 2
Fore
SplineSet
21.7979 428.532 m 5
 343.202 428.532 l 5
 329.906 309.92 l 5
 329.906 118.592 l 5
 343.202 0 l 5
 21.7979 0 l 5
 34.998 118.592 l 5
 34.998 309.92 l 5
 21.7979 428.532 l 5
57.498 396.532 m 5
 66.998 311.721 l 5
 66.998 116.796 l 5
 57.498 32 l 5
 307.406 32 l 5
 297.906 116.796 l 5
 297.906 311.721 l 5
 307.406 396.532 l 5
 57.498 396.532 l 5
57.498 396.532 m 4
137.998 330.204 m 5
 226.202 330.221 l 5
 226.202 292.516 l 5
 181.702 292.516 l 5
 181.702 240.016 l 5
 226.998 240.107 l 5
 226.998 98.3125 l 5
 137.998 98.3125 l 5
 144.594 157.312 l 5
 144.594 271.408 l 5
 137.998 330.204 l 5
181.702 202.312 m 5
 181.702 132.204 l 5
 190.234 132.204 l 5
 192.826 154.016 l 5
 192.826 202.312 l 5
 181.702 202.312 l 5
181.702 202.312 m 4
EndSplineSet
Validated: 1
EndChar

StartChar: uniE9E9
Encoding: 59881 59881 235
Width: 365
VWidth: 0
Flags: W
HStem: 0 32<57.5 307.392> 292.969 37<110.456 200.456> 396.532 32<57.5 307.392>
VStem: 35 32<55.7217 372.801> 297.908 31.9834<56.2337 372.289>
LayerCount: 2
Fore
SplineSet
21.7959 428.532 m 5
 343.204 428.532 l 5
 329.892 309.92 l 5
 329.892 118.592 l 5
 343.204 0 l 5
 21.7959 0 l 5
 35 118.592 l 5
 35 309.92 l 5
 21.7959 428.532 l 5
57.5 396.532 m 5
 67 311.721 l 5
 67 116.796 l 5
 57.5 32 l 5
 307.392 32 l 5
 297.908 116.796 l 5
 297.908 311.721 l 5
 307.392 396.532 l 5
 57.5 396.532 l 5
57.5 396.532 m 4
110.456 329.969 m 5
 256.952 329.969 l 5
 162.048 98.5645 l 5
 108.048 98.5645 l 5
 151.252 173.156 l 5
 200.456 292.969 l 5
 110.456 292.969 l 5
 110.456 329.969 l 5
110.456 329.969 m 4
EndSplineSet
Validated: 1
EndChar

StartChar: uniE9EA
Encoding: 59882 59882 236
Width: 365
VWidth: 0
Flags: W
HStem: 0 32<57.5078 307.4> 98.4688 37.8916<187.008 195.008> 292.156 37.9082<172.4 180.32> 396.532 32<57.5078 307.4>
VStem: 35.0078 32<55.7171 372.806> 132.805 37<216.42 292.156> 149.9 37.1074<136.36 203.656> 180.32 34.7793<241.469 292.156> 197.615 34.6895<136.36 216.141> 297.9 32<56.1512 372.371>
LayerCount: 2
Fore
SplineSet
21.8047 428.532 m 5xf840
 343.195 428.532 l 5
 329.9 309.92 l 5
 329.9 118.592 l 5
 343.195 0 l 5
 21.8047 0 l 5
 35.0078 118.592 l 5
 35.0078 309.92 l 5
 21.8047 428.532 l 5xf840
57.5078 396.532 m 5
 67.0078 311.721 l 5
 67.0078 116.796 l 5
 57.5078 32 l 5
 307.4 32 l 5
 297.9 116.796 l 5
 297.9 311.721 l 5
 307.4 396.532 l 5
 57.5078 396.532 l 5
57.5078 396.532 m 4
132.713 330.064 m 5
 221.805 330.064 l 5
 215.1 270.156 l 5
 215.1 241.469 l 5xfd40
 232.213 241.469 l 5
 232.305 98.4688 l 5
 143.195 98.4688 l 5
 149.9 158.36 l 5
 149.9 203.656 l 5xfac0
 132.805 203.656 l 5xfc40
 132.713 330.064 l 5
172.4 292.156 m 5
 169.805 271.156 l 5
 169.805 216.42 l 5
 180.32 216.42 l 5
 180.32 292.156 l 5
 172.4 292.156 l 5
187.008 216.141 m 5xfac0
 187.008 136.36 l 5
 195.008 136.36 l 5
 197.615 157.36 l 5
 197.615 216.141 l 5
 187.008 216.141 l 5xfac0
187.008 216.141 m 4
EndSplineSet
Validated: 1
EndChar

StartChar: uniE9EB
Encoding: 59883 59883 237
Width: 365
VWidth: 0
Flags: W
HStem: 0 32<57.5078 307.4> 98.3125 37.7031<138.805 183.305> 188.516 37.7051<172.18 183.305> 296.312 33.9082<174.771 183.305> 396.532 32<57.5078 307.4>
VStem: 35.0078 32<55.7171 372.806> 138.008 34.1719<226.221 296.312> 183.305 37.0957<136.016 188.516 226.221 296.312> 297.9 32<56.1512 372.371>
LayerCount: 2
Fore
SplineSet
21.8047 428.532 m 5
 343.195 428.532 l 5
 329.9 309.92 l 5
 329.9 118.592 l 5
 343.195 0 l 5
 21.8047 0 l 5
 35.0078 118.592 l 5
 35.0078 309.92 l 5
 21.8047 428.532 l 5
57.5078 396.532 m 5
 67.0078 311.721 l 5
 67.0078 116.796 l 5
 57.5078 32 l 5
 307.4 32 l 5
 297.9 116.796 l 5
 297.9 311.721 l 5
 307.4 396.532 l 5
 57.5078 396.532 l 5
57.5078 396.532 m 4
227.008 98.3125 m 5
 138.805 98.3125 l 5
 138.805 136.016 l 5
 183.305 136.016 l 5
 183.305 188.516 l 5
 138.008 188.408 l 5
 138.008 330.221 l 5
 227.008 330.221 l 5
 220.4 271.221 l 5
 220.4 157.107 l 5
 227.008 98.3125 l 5
183.305 226.221 m 5
 183.305 296.312 l 5
 174.771 296.312 l 5
 172.18 274.516 l 5
 172.18 226.221 l 5
 183.305 226.221 l 5
183.305 226.221 m 4
EndSplineSet
Validated: 1
EndChar

StartChar: uniE9EC
Encoding: 59884 59884 238
Width: 346
VWidth: 0
Flags: W
HStem: 0 43.5<75.4219 132.094 213.906 270.594> 100.344 37.8115<161.906 177.498> 293.344 37.9082<164.498 177.498> 388.096 43.5<75.4219 132.094 213.906 270.594>
VStem: 21.9062 110.188<0 43.5 388.096 431.596> 33.3105 42.1113<43.5 388.096> 124.906 37<138.155 293.344> 177.498 37<138.047 293.344> 213.906 110.188<0 43.5 388.096 431.596> 270.594 42.0928<43.5 388.096>
LayerCount: 2
Fore
SplineSet
324.094 431.596 m 5xf080
 312.687 329.907 l 5
 312.687 101.703 l 5xf040
 324.094 0 l 5
 213.906 0 l 5
 213.906 43.5 l 5xf080
 270.594 43.5 l 5
 270.594 388.096 l 5xf040
 213.906 388.096 l 5
 213.906 431.596 l 5
 324.094 431.596 l 5xf080
324.094 431.596 m 4xf080
21.9062 431.596 m 5xf8
 132.094 431.596 l 5
 132.094 388.096 l 5xf8
 75.4219 388.096 l 5
 75.4219 43.5 l 5xf4
 132.094 43.5 l 5
 132.094 0 l 5
 21.9062 0 l 5xf8
 33.3105 101.703 l 5
 33.3105 329.907 l 5xf4
 21.9062 431.596 l 5xf8
21.9062 431.596 m 4
124.794 331.252 m 5
 221.202 331.252 l 5
 214.498 271.344 l 5
 214.498 160.047 l 5
 221.202 100.344 l 5
 124.906 100.344 l 5xf3
 124.794 331.252 l 5
164.498 293.344 m 5
 161.906 272.344 l 5
 161.906 138.155 l 5
 177.498 138.047 l 5
 177.498 293.344 l 5
 164.498 293.344 l 5
164.498 293.344 m 4
EndSplineSet
Validated: 1
EndChar

StartChar: uniE9ED
Encoding: 59885 59885 239
Width: 346
VWidth: 0
Flags: W
HStem: 0 43.5<75.4141 132.086 213.914 270.586> 388.096 43.5<75.4141 132.086 213.914 270.586>
VStem: 21.9141 110.172<0 43.5 388.096 431.596> 33.3223 42.0918<43.5 388.096> 154.51 36.8877<100.455 331.155> 213.914 110.172<0 43.5 388.096 431.596> 270.586 42.1074<43.5 388.096>
LayerCount: 2
Fore
SplineSet
324.086 431.596 m 5xcc
 312.693 329.907 l 5
 312.693 101.703 l 5xca
 324.086 0 l 5
 213.914 0 l 5
 213.914 43.5 l 5xcc
 270.586 43.5 l 5
 270.586 388.096 l 5xca
 213.914 388.096 l 5
 213.914 431.596 l 5
 324.086 431.596 l 5xcc
324.086 431.596 m 4xcc
21.9141 431.596 m 5xe8
 132.086 431.596 l 5
 132.086 388.096 l 5xe8
 75.4141 388.096 l 5
 75.4141 43.5 l 5xd8
 132.086 43.5 l 5
 132.086 0 l 5
 21.9141 0 l 5xe8
 33.3223 101.703 l 5
 33.3223 329.907 l 5xd8
 21.9141 431.596 l 5xe8
21.9141 431.596 m 4
147.897 331.155 m 5
 198.102 331.155 l 5
 191.397 271.455 l 5
 191.397 160.252 l 5
 198.102 100.455 l 5
 147.897 100.455 l 5
 154.51 159.344 l 5
 154.51 272.252 l 5
 147.897 331.155 l 5
147.897 331.155 m 4
EndSplineSet
Validated: 1
EndChar

StartChar: uniE9EE
Encoding: 59886 59886 240
Width: 346
VWidth: 0
Flags: W
HStem: 0 43.5<75.4062 132.094 213.906 270.594> 100.203 37<161.342 233.773> 226.907 37.0928<183.842 193.75> 274.703 56.7041<133.139 170.154> 293.203 38.2041<170.154 193.75> 388.096 43.5<75.4062 132.094 213.906 270.594>
VStem: 21.9062 110.188<0 43.5 388.096 431.596> 33.3105 42.0957<43.5 388.096> 133.139 37.0156<274.703 293.203> 193.75 37<264 293.907> 213.906 110.188<0 43.5 388.096 431.596> 270.594 42.0918<43.5 388.096>
LayerCount: 2
Fore
SplineSet
324.094 431.596 m 5xe4a0
 312.686 329.907 l 5
 312.686 101.703 l 5xe490
 324.094 0 l 5
 213.906 0 l 5
 213.906 43.5 l 5xe4a0
 270.594 43.5 l 5
 270.594 388.096 l 5xe490
 213.906 388.096 l 5
 213.906 431.596 l 5
 324.094 431.596 l 5xe4a0
324.094 431.596 m 4xe4a0
21.9062 431.596 m 5xe680
 132.094 431.596 l 5
 132.094 388.096 l 5xe680
 75.4062 388.096 l 5
 75.4062 43.5 l 5xe580
 132.094 43.5 l 5
 132.094 0 l 5
 21.9062 0 l 5xe680
 33.3105 101.703 l 5
 33.3105 329.907 l 5xe580
 21.9062 431.596 l 5xe680
21.9062 431.596 m 4
133.139 331.407 m 5xf4c0
 230.75 331.407 l 5
 230.75 286.703 l 5
 238.154 226.8 l 5
 183.842 226.907 l 5
 161.342 137.203 l 5
 177.139 137.203 l 5
 236.949 144.596 l 5
 236.949 100.203 l 5
 107.842 100.203 l 5
 152.25 264 l 5
 193.75 264 l 5
 193.75 293.907 l 5
 170.154 293.203 l 5xecc0
 170.154 274.703 l 5
 133.139 274.703 l 5
 133.139 331.407 l 5xf4c0
133.139 331.407 m 4xf480
EndSplineSet
Validated: 1
EndChar

StartChar: uniE9EF
Encoding: 59887 59887 241
Width: 346
VWidth: 0
Flags: W
HStem: 0 43.5<75.4141 132.086 213.914 270.586> 100.203 37<116.826 177.85> 275.407 56<118.242 155.242> 293.703 37.7041<155.242 178.945> 388.096 43.5<75.4141 132.086 213.914 270.586>
VStem: 21.9141 110.172<0 43.5 388.096 431.596> 33.3057 42.1084<43.5 388.096> 118.242 37<275.407 293.703> 178.945 37<267 293.703> 213.914 110.172<0 43.5 388.096 431.596> 270.586 42.0918<43.5 388.096>
LayerCount: 2
Fore
SplineSet
324.086 431.596 m 5xc840
 312.678 329.907 l 5
 312.678 101.703 l 5xc820
 324.086 0 l 5
 213.914 0 l 5
 213.914 43.5 l 5xc840
 270.586 43.5 l 5
 270.586 388.096 l 5xc820
 213.914 388.096 l 5
 213.914 431.596 l 5
 324.086 431.596 l 5xc840
324.086 431.596 m 4xc840
21.9141 431.596 m 5xcc
 132.086 431.596 l 5
 132.086 388.096 l 5xcc
 75.4141 388.096 l 5
 75.4141 43.5 l 5xca
 132.086 43.5 l 5
 132.086 0 l 5
 21.9141 0 l 5xcc
 33.3057 101.703 l 5
 33.3057 329.907 l 5xca
 21.9141 431.596 l 5xcc
21.9141 431.596 m 4
113.65 100.203 m 5
 113.65 144.596 l 5
 173.445 137.203 l 5
 177.85 137.203 l 5
 155.15 192.3 l 5
 111.65 267.407 l 5
 178.945 267 l 5
 178.945 293.703 l 5
 155.242 293.703 l 5xd980
 155.242 275.407 l 5
 118.242 275.407 l 5
 118.242 331.407 l 5xe980
 215.945 331.407 l 5
 215.945 288.907 l 5xd980
 223.242 229.907 l 5
 181.554 230 l 5
 234.35 100.203 l 5
 113.65 100.203 l 5
113.65 100.203 m 4
EndSplineSet
Validated: 1
EndChar

StartChar: uniE9F0
Encoding: 59888 59888 242
Width: 346
VWidth: 0
Flags: W
HStem: 0 43.5<75.4121 132.084 213.916 270.584> 161.752 37.0918<160.756 188.648 226.756 241.756> 388.096 43.5<75.4121 132.084 213.916 270.584>
VStem: 21.916 110.168<0 43.5 388.096 431.596> 33.3203 42.0918<43.5 388.096> 181.443 44.4082<100.155 156.53> 188.648 38.1074<107.55 161.752 198.844 198.844> 213.916 110.168<0 43.5 388.096 431.596> 270.584 42.1123<43.5 388.096>
LayerCount: 2
Fore
SplineSet
173.557 331.455 m 5xe4
 228.148 331.455 l 5
 184.852 256.655 l 5
 160.756 198.844 l 5
 188.648 198.844 l 5
 188.648 249.252 l 5
 232.96 249.252 l 5
 226.756 198.844 l 5xe2
 241.756 198.844 l 5
 241.756 161.844 l 5
 225.648 161.844 l 5
 225.852 100.155 l 5
 181.443 100.155 l 5
 188.756 159.047 l 5
 188.756 161.752 l 5
 104.256 161.752 l 5
 173.557 331.455 l 5xe4
173.557 331.455 m 4
324.084 431.596 m 5xe1
 312.696 329.907 l 5
 312.696 101.703 l 5xe080
 324.084 0 l 5
 213.916 0 l 5
 213.916 43.5 l 5xe1
 270.584 43.5 l 5
 270.584 388.096 l 5xe080
 213.916 388.096 l 5
 213.916 431.596 l 5
 324.084 431.596 l 5xe1
324.084 431.596 m 4xe1
21.916 431.596 m 5xf0
 132.084 431.596 l 5
 132.084 388.096 l 5xf0
 75.4121 388.096 l 5
 75.4121 43.5 l 5xe8
 132.084 43.5 l 5
 132.084 0 l 5
 21.916 0 l 5xf0
 33.3203 101.703 l 5
 33.3203 329.907 l 5xe8
 21.916 431.596 l 5xf0
21.916 431.596 m 4
EndSplineSet
Validated: 1
EndChar

StartChar: uniE9F1
Encoding: 59889 59889 243
Width: 346
VWidth: 0
Flags: W
HStem: 0 43.5<75.4141 132.086 213.914 270.586> 100.203 56.7041<133.146 170.146> 100.203 38.2041<170.146 193.742> 167.596 37.1074<183.85 193.742> 294.407 37<161.35 233.659> 388.096 43.5<75.4141 132.086 213.914 270.586>
VStem: 21.9141 110.172<0 43.5 388.096 431.596> 33.3066 42.1074<43.5 388.096> 133.146 37<138.407 156.907> 193.742 37<137.703 167.596> 213.914 110.172<0 43.5 388.096 431.596> 270.586 42.0918<43.5 388.096>
LayerCount: 2
Fore
SplineSet
133.146 100.203 m 5xdcc0
 133.146 156.907 l 5
 170.146 156.907 l 5xdcc0
 170.146 138.407 l 5
 193.742 137.703 l 5
 193.742 167.596 l 5
 152.242 167.596 l 5
 107.85 331.407 l 5
 236.946 331.407 l 5
 236.946 287 l 5
 177.146 294.407 l 5
 161.35 294.407 l 5
 183.85 204.703 l 5
 238.146 204.8 l 5
 230.742 144.907 l 5
 230.742 100.203 l 5xbcc0
 133.146 100.203 l 5xdcc0
133.146 100.203 m 4
324.086 431.596 m 5x9ca0
 312.678 329.907 l 5
 312.678 101.703 l 5x9c90
 324.086 0 l 5
 213.914 0 l 5
 213.914 43.5 l 5x9ca0
 270.586 43.5 l 5
 270.586 388.096 l 5x9c90
 213.914 388.096 l 5
 213.914 431.596 l 5
 324.086 431.596 l 5x9ca0
324.086 431.596 m 4x9ca0
21.9141 431.596 m 5x9e80
 132.086 431.596 l 5
 132.086 388.096 l 5x9e80
 75.4141 388.096 l 5
 75.4141 43.5 l 5x9d80
 132.086 43.5 l 5
 132.086 0 l 5
 21.9141 0 l 5x9e80
 33.3066 101.703 l 5
 33.3066 329.907 l 5x9d80
 21.9141 431.596 l 5x9e80
21.9141 431.596 m 4
EndSplineSet
Validated: 1
EndChar

StartChar: uniE9F2
Encoding: 59890 59890 244
Width: 346
VWidth: 0
Flags: W
HStem: 0 43.5<75.4141 132.086 213.914 270.586> 99.8438 33.9082<172.197 180.726> 203.844 37.7031<172.197 183.338> 294.047 37.7051<172.197 216.697> 388.096 43.5<75.4141 132.086 213.914 270.586>
VStem: 21.9141 110.172<0 43.5 388.096 431.596> 33.3223 42.0918<43.5 388.096> 135.102 37.0957<133.752 203.844 241.547 294.047> 183.338 34.1719<133.752 203.844> 213.914 110.172<0 43.5 388.096 431.596> 270.586 42.1113<43.5 388.096>
LayerCount: 2
Fore
SplineSet
324.086 431.596 m 5xf940
 312.697 329.907 l 5
 312.697 101.703 l 5xf920
 324.086 0 l 5
 213.914 0 l 5
 213.914 43.5 l 5xf940
 270.586 43.5 l 5
 270.586 388.096 l 5xf920
 213.914 388.096 l 5
 213.914 431.596 l 5
 324.086 431.596 l 5xf940
324.086 431.596 m 4xf940
21.9141 431.596 m 5xfd
 132.086 431.596 l 5
 132.086 388.096 l 5xfd
 75.4141 388.096 l 5
 75.4141 43.5 l 5xfb
 132.086 43.5 l 5
 132.086 0 l 5
 21.9141 0 l 5xfd
 33.3223 101.703 l 5
 33.3223 329.907 l 5xfb
 21.9141 431.596 l 5xfd
21.9141 431.596 m 4
128.51 331.752 m 5
 216.697 331.752 l 5
 216.697 294.047 l 5
 172.197 294.047 l 5
 172.197 241.547 l 5
 217.51 241.655 l 5
 217.51 99.8438 l 5xf980
 128.51 99.8438 l 5
 135.102 158.844 l 5
 135.102 272.955 l 5
 128.51 331.752 l 5
172.197 203.844 m 5
 172.197 133.752 l 5
 180.726 133.752 l 5
 183.338 155.547 l 5
 183.338 203.844 l 5
 172.197 203.844 l 5
172.197 203.844 m 4
EndSplineSet
Validated: 1
EndChar

StartChar: uniE9F3
Encoding: 59891 59891 245
Width: 346
VWidth: 0
Flags: W
HStem: 0 43.5<75.4062 132.094 213.906 270.594> 294.5 37<100.954 190.954> 388.096 43.5<75.4062 132.094 213.906 270.594>
VStem: 21.9062 110.188<0 43.5 388.096 431.596> 33.3105 42.0957<43.5 388.096> 213.906 110.188<0 43.5 388.096 431.596> 270.594 42.0918<43.5 388.096>
LayerCount: 2
Fore
SplineSet
324.094 431.596 m 5xe4
 312.686 329.907 l 5
 312.686 101.703 l 5xe2
 324.094 0 l 5
 213.906 0 l 5
 213.906 43.5 l 5xe4
 270.594 43.5 l 5
 270.594 388.096 l 5xe2
 213.906 388.096 l 5
 213.906 431.596 l 5
 324.094 431.596 l 5xe4
324.094 431.596 m 4xe4
21.9062 431.596 m 5xf0
 132.094 431.596 l 5
 132.094 388.096 l 5xf0
 75.4062 388.096 l 5
 75.4062 43.5 l 5xe8
 132.094 43.5 l 5
 132.094 0 l 5
 21.9062 0 l 5xf0
 33.3105 101.703 l 5
 33.3105 329.907 l 5xe8
 21.9062 431.596 l 5xf0
21.9062 431.596 m 4
100.954 331.5 m 5
 247.454 331.5 l 5
 152.546 100.096 l 5
 98.5459 100.096 l 5
 141.75 174.703 l 5
 190.954 294.5 l 5
 100.954 294.5 l 5
 100.954 331.5 l 5
100.954 331.5 m 4
EndSplineSet
Validated: 1
EndChar

StartChar: uniE9F4
Encoding: 59892 59892 246
Width: 346
VWidth: 0
Flags: W
HStem: 0 43.5<75.4141 132.086 213.914 270.586> 100 37.9082<177.494 185.51> 293.704 37.9082<162.898 170.807> 388.112 43.5<75.4141 132.086 213.914 270.586>
VStem: 21.9141 110.172<0 43.5 388.112 431.612> 33.3066 42.1074<43.5 388.112> 123.291 37.0156<217.956 293.704> 140.398 37.0957<137.908 205.204> 170.807 34.7949<243 293.704> 188.102 34.6895<137.908 217.672> 213.914 110.172<0 43.5 388.112 431.612> 270.586 42.0957<43.5 388.112>
LayerCount: 2
Fore
SplineSet
324.086 431.612 m 5xf020
 312.682 329.908 l 5
 312.682 101.704 l 5xf010
 324.086 0 l 5
 213.914 0 l 5
 213.914 43.5 l 5xf020
 270.586 43.5 l 5
 270.586 388.112 l 5xf010
 213.914 388.112 l 5
 213.914 431.612 l 5
 324.086 431.612 l 5xf020
324.086 431.612 m 4xf020
21.9141 431.612 m 5xf8
 132.086 431.612 l 5
 132.086 388.112 l 5xf8
 75.4141 388.112 l 5
 75.4141 43.5 l 5xf4
 132.086 43.5 l 5
 132.086 0 l 5
 21.9141 0 l 5xf8
 33.3066 101.704 l 5
 33.3066 329.908 l 5xf4
 21.9141 431.612 l 5xf8
21.9141 431.612 m 4
123.198 331.612 m 5
 212.307 331.612 l 5
 205.602 271.704 l 5
 205.602 243 l 5xf280
 222.694 243 l 5
 222.791 100 l 5
 133.694 100 l 5
 140.398 159.908 l 5
 140.398 205.204 l 5xf140
 123.291 205.204 l 5xf2
 123.198 331.612 l 5
162.898 293.704 m 5
 160.307 272.704 l 5
 160.307 217.956 l 5
 170.807 217.956 l 5
 170.807 293.704 l 5
 162.898 293.704 l 5
177.494 217.672 m 5xf140
 177.494 137.908 l 5
 185.51 137.908 l 5
 188.102 158.908 l 5
 188.102 217.672 l 5
 177.494 217.672 l 5xf140
177.494 217.672 m 4
EndSplineSet
Validated: 1
EndChar

StartChar: uniE9F5
Encoding: 59893 59893 247
Width: 346
VWidth: 0
Flags: W
HStem: 0 43.5<75.4141 132.086 213.914 270.586> 99.8438 37.7031<129.303 173.803> 190.047 37.7051<162.678 173.803> 297.844 33.9082<165.271 173.803> 388.096 43.5<75.4141 132.086 213.914 270.586>
VStem: 21.9141 110.172<0 43.5 388.096 431.596> 33.3184 42.0957<43.5 388.096> 128.506 34.1719<227.752 297.844> 173.803 37.0957<137.547 190.047 227.752 297.844> 213.914 110.172<0 43.5 388.096 431.596> 270.586 42.1084<43.5 388.096>
LayerCount: 2
Fore
SplineSet
324.086 431.596 m 5xf8c0
 312.694 329.907 l 5
 312.694 101.703 l 5xf8a0
 324.086 0 l 5
 213.914 0 l 5
 213.914 43.5 l 5xf8c0
 270.586 43.5 l 5
 270.586 388.096 l 5xf8a0
 213.914 388.096 l 5
 213.914 431.596 l 5
 324.086 431.596 l 5xf8c0
324.086 431.596 m 4xf8c0
21.9141 431.596 m 5xfc80
 132.086 431.596 l 5
 132.086 388.096 l 5xfc80
 75.4141 388.096 l 5
 75.4141 43.5 l 5xfa80
 132.086 43.5 l 5
 132.086 0 l 5
 21.9141 0 l 5xfc80
 33.3184 101.703 l 5
 33.3184 329.907 l 5xfa80
 21.9141 431.596 l 5xfc80
21.9141 431.596 m 4
217.506 99.8438 m 5
 129.303 99.8438 l 5
 129.303 137.547 l 5
 173.803 137.547 l 5
 173.803 190.047 l 5
 128.506 189.955 l 5
 128.506 331.752 l 5xf980
 217.506 331.752 l 5
 210.898 272.752 l 5
 210.898 158.655 l 5
 217.506 99.8438 l 5
173.803 227.752 m 5
 173.803 297.844 l 5
 165.271 297.844 l 5
 162.678 276.047 l 5
 162.678 227.752 l 5
 173.803 227.752 l 5
173.803 227.752 m 4
EndSplineSet
Validated: 1
EndChar

StartChar: uniE9F6
Encoding: 59894 59894 248
Width: 571
VWidth: 0
Flags: W
HStem: 0 21G<100.733 179.586 391.418 470.27> 0 21G<100.733 179.586 391.418 470.27> 100 37.7959<274.401 290.01> 293 37.8887<277.01 290.01> 410.904 19.9844G<100.737 179.586 391.418 470.265>
VStem: 237.401 37<137.796 293> 290.01 37<137.7 293>
LayerCount: 2
Fore
SplineSet
420.806 303.544 m 5x3e
 456.806 215.044 l 5
 421.102 127.344 l 5
 372.01 127.344 l 5
 408.102 215.044 l 5
 371.806 303.452 l 5
 420.806 303.544 l 5x3e
420.806 303.544 m 4
391.418 430.904 m 5
 462.117 430.904 l 5
 549.914 215.389 l 5
 462.117 0 l 5
 391.418 0 l 5xbe
 464.914 127.092 l 5
 501.229 215.389 l 5
 464.914 303.796 l 5
 391.418 430.904 l 5
391.418 430.904 m 4
150.197 303.544 m 5
 199.197 303.452 l 5
 162.901 215.044 l 5
 198.994 127.344 l 5
 149.901 127.344 l 5
 114.197 215.044 l 5
 150.197 303.544 l 5
150.197 303.544 m 4
179.586 430.889 m 5
 106.086 303.796 l 5
 69.7734 215.389 l 5
 106.086 127.092 l 5
 179.586 0 l 5
 108.886 0 l 5
 21.0859 215.389 l 5
 108.886 430.889 l 5
 179.586 430.889 l 5
179.586 430.889 m 4
237.306 330.889 m 5
 333.697 330.889 l 5
 327.01 271 l 5
 327.01 159.7 l 5
 333.697 100 l 5
 237.401 100 l 5
 237.306 330.889 l 5
277.01 293 m 5
 274.401 272 l 5
 274.401 137.796 l 5
 290.01 137.7 l 5
 290.01 293 l 5
 277.01 293 l 5
277.01 293 m 4
EndSplineSet
Validated: 1
EndChar

StartChar: uniE9F7
Encoding: 59895 59895 249
Width: 571
VWidth: 0
Flags: W
HStem: 0 21G<100.722 179.578 391.422 470.278> 0 21G<100.722 179.578 391.422 470.278> 410.904 19.9844G<100.726 179.578 391.422 470.273>
VStem: 267.002 36.9043<100.092 330.796>
LayerCount: 2
Fore
SplineSet
420.814 303.544 m 5x30
 456.814 215.044 l 5
 421.109 127.344 l 5
 372.002 127.344 l 5
 408.109 215.044 l 5
 371.814 303.452 l 5
 420.814 303.544 l 5x30
420.814 303.544 m 4
391.422 430.904 m 5
 462.126 430.904 l 5
 549.922 215.389 l 5
 462.126 0 l 5
 391.422 0 l 5xb0
 464.922 127.092 l 5
 501.218 215.389 l 5
 464.922 303.796 l 5
 391.422 430.904 l 5
391.422 430.904 m 4
150.189 303.544 m 5
 199.189 303.452 l 5
 162.891 215.044 l 5
 199.002 127.344 l 5
 149.891 127.344 l 5
 114.189 215.044 l 5
 150.189 303.544 l 5
150.189 303.544 m 4
179.578 430.889 m 5
 106.078 303.796 l 5
 69.7812 215.389 l 5
 106.078 127.092 l 5
 179.578 0 l 5
 108.874 0 l 5
 21.0781 215.389 l 5
 108.874 430.889 l 5
 179.578 430.889 l 5
179.578 430.889 m 4
260.406 330.796 m 5
 310.594 330.796 l 5
 303.906 271.092 l 5
 303.906 159.889 l 5
 310.594 100.092 l 5
 260.406 100.092 l 5
 267.002 159 l 5
 267.002 271.889 l 5
 260.406 330.796 l 5
260.406 330.796 m 4
EndSplineSet
Validated: 1
EndChar

StartChar: uniE9F8
Encoding: 59896 59896 250
Width: 571
VWidth: 0
Flags: W
HStem: 0 21G<100.73 179.586 391.414 470.27> 0 21G<100.73 179.586 391.414 470.27> 99.8438 37<273.85 346.18> 226.544 37.0967<296.35 306.242> 274.344 56.7002<245.65 282.65> 292.844 38.2002<282.65 306.242> 410.904 19.9844G<100.734 179.586 391.414 470.266>
VStem: 245.65 37<274.344 292.844> 306.242 37<263.641 293.544>
LayerCount: 2
Fore
SplineSet
420.807 303.544 m 5x3380
 456.807 215.044 l 5
 421.102 127.344 l 5
 372.006 127.344 l 5
 408.102 215.044 l 5
 371.807 303.452 l 5
 420.807 303.544 l 5x3380
420.807 303.544 m 4
391.414 430.904 m 5
 462.118 430.904 l 5
 549.914 215.389 l 5
 462.118 0 l 5
 391.414 0 l 5xb380
 464.914 127.092 l 5
 501.227 215.389 l 5
 464.914 303.796 l 5
 391.414 430.904 l 5
391.414 430.904 m 4
150.193 303.544 m 5
 199.193 303.452 l 5
 162.898 215.044 l 5
 198.994 127.344 l 5
 149.898 127.344 l 5
 114.193 215.044 l 5
 150.193 303.544 l 5
150.193 303.544 m 4
179.586 430.889 m 5
 106.086 303.796 l 5
 69.7734 215.389 l 5
 106.086 127.092 l 5
 179.586 0 l 5
 108.882 0 l 5
 21.0859 215.389 l 5
 108.882 430.889 l 5
 179.586 430.889 l 5
179.586 430.889 m 4
245.65 331.044 m 5x3b80
 343.242 331.044 l 5
 343.242 286.344 l 5
 350.65 226.452 l 5
 296.35 226.544 l 5
 273.85 136.844 l 5
 289.65 136.844 l 5
 349.445 144.248 l 5
 349.445 99.8438 l 5
 220.35 99.8438 l 5
 264.742 263.641 l 5
 306.242 263.641 l 5
 306.242 293.544 l 5
 282.65 292.844 l 5x3780
 282.65 274.344 l 5
 245.65 274.344 l 5
 245.65 331.044 l 5x3b80
245.65 331.044 m 4x3b80
EndSplineSet
Validated: 1
EndChar

StartChar: uniE9F9
Encoding: 59897 59897 251
Width: 571
VWidth: 0
Flags: W
HStem: 0 21G<100.722 179.578 391.422 470.278> 0 21G<100.722 179.578 391.422 470.278> 99.8438 37<229.42 290.342> 275.044 56<230.75 267.75> 293.344 37.7002<267.75 291.454> 410.904 19.9844G<100.726 179.578 391.422 470.273>
VStem: 230.75 37<275.044 293.344> 291.454 37<266.641 293.344>
LayerCount: 2
Fore
SplineSet
420.811 303.544 m 5x27
 456.811 215.044 l 5
 421.109 127.344 l 5
 371.998 127.344 l 5
 408.109 215.044 l 5
 371.811 303.452 l 5
 420.811 303.544 l 5x27
420.811 303.544 m 4
391.422 430.904 m 5
 462.126 430.904 l 5
 549.922 215.389 l 5
 462.126 0 l 5
 391.422 0 l 5xa7
 464.922 127.092 l 5
 501.218 215.389 l 5
 464.922 303.796 l 5
 391.422 430.904 l 5
391.422 430.904 m 4
150.186 303.544 m 5
 199.186 303.452 l 5
 162.891 215.044 l 5
 198.998 127.344 l 5
 149.891 127.344 l 5
 114.186 215.044 l 5
 150.186 303.544 l 5
150.186 303.544 m 4
179.578 430.889 m 5
 106.078 303.796 l 5
 69.7812 215.389 l 5
 106.078 127.092 l 5
 179.578 0 l 5
 108.874 0 l 5
 21.0781 215.389 l 5
 108.874 430.889 l 5
 179.578 430.889 l 5
179.578 430.889 m 4
226.154 99.8438 m 5
 226.154 144.248 l 5
 285.954 136.844 l 5
 290.342 136.844 l 5
 267.654 191.952 l 5
 224.154 267.044 l 5
 291.454 266.641 l 5
 291.454 293.344 l 5
 267.75 293.344 l 5x2f
 267.75 275.044 l 5
 230.75 275.044 l 5
 230.75 331.044 l 5x37
 328.454 331.044 l 5x2f
 328.454 288.544 l 5
 335.75 229.544 l 5
 294.046 229.656 l 5
 346.842 99.8438 l 5
 226.154 99.8438 l 5
226.154 99.8438 m 4
EndSplineSet
Validated: 1
EndChar

StartChar: uniE9FA
Encoding: 59898 59898 252
Width: 571
VWidth: 0
Flags: W
HStem: 0 21G<100.73 179.586 391.414 470.267> 0 21G<100.73 179.586 391.414 470.267> 161.389 37.1113<273.258 301.146 339.258 354.258> 410.904 19.9844G<100.735 179.586 391.414 470.262>
VStem: 293.942 44.4082<99.7959 156.281> 301.146 38.1113<106.039 161.389 198.5 198.5>
LayerCount: 2
Fore
SplineSet
420.803 303.544 m 5x30
 456.803 215.044 l 5
 421.098 127.344 l 5
 372.006 127.344 l 5
 408.098 215.044 l 5
 371.803 303.452 l 5
 420.803 303.544 l 5x30
420.803 303.544 m 4
391.414 430.904 m 5
 462.114 430.904 l 5
 549.914 215.389 l 5
 462.114 0 l 5
 391.414 0 l 5xb0
 464.914 127.092 l 5
 501.227 215.389 l 5
 464.914 303.796 l 5
 391.414 430.904 l 5
391.414 430.904 m 4
150.194 303.544 m 5
 199.194 303.452 l 5
 162.898 215.044 l 5
 198.99 127.344 l 5
 149.898 127.344 l 5
 114.194 215.044 l 5
 150.194 303.544 l 5
150.194 303.544 m 4
179.586 430.889 m 5
 106.086 303.796 l 5
 69.7705 215.389 l 5
 106.086 127.092 l 5
 179.586 0 l 5
 108.883 0 l 5
 21.0859 215.389 l 5
 108.883 430.889 l 5
 179.586 430.889 l 5
179.586 430.889 m 4
286.055 331.092 m 5
 340.646 331.092 l 5
 297.351 256.296 l 5
 273.258 198.5 l 5
 301.146 198.5 l 5
 301.146 248.904 l 5
 345.442 248.904 l 5
 339.258 198.5 l 5x34
 354.258 198.5 l 5
 354.258 161.5 l 5
 338.146 161.5 l 5
 338.351 99.7959 l 5
 293.942 99.7959 l 5x38
 301.242 158.7 l 5
 301.242 161.389 l 5
 216.742 161.389 l 5
 286.055 331.092 l 5
286.055 331.092 m 4
EndSplineSet
Validated: 1
EndChar

StartChar: uniE9FB
Encoding: 59899 59899 253
Width: 571
VWidth: 0
Flags: W
HStem: 0 21G<100.733 179.586 391.418 470.27> 0 21G<100.733 179.586 391.418 470.27> 99.8438 56.6992<245.649 282.649> 99.8438 38.1992<282.649 306.258> 167.248 37.0957<296.354 306.258> 294.043 37<273.854 346.188> 410.888 20G<100.737 179.586 391.418 470.265>
VStem: 245.649 37<138.043 156.543> 306.258 37<137.344 167.248>
LayerCount: 2
Fore
SplineSet
420.806 303.543 m 5x0f80
 456.806 215.043 l 5
 421.102 127.344 l 5
 372.01 127.344 l 5
 408.102 215.043 l 5
 371.806 303.436 l 5
 420.806 303.543 l 5x0f80
420.806 303.543 m 4
391.418 430.888 m 5
 462.117 430.888 l 5
 549.914 215.388 l 5
 462.117 0 l 5
 391.418 0 l 5x8f80
 464.914 127.092 l 5
 501.229 215.388 l 5
 464.914 303.795 l 5
 391.418 430.888 l 5
391.418 430.888 m 4
150.197 303.543 m 5
 199.197 303.436 l 5
 162.901 215.043 l 5
 198.994 127.344 l 5
 149.901 127.344 l 5
 114.197 215.043 l 5
 150.197 303.543 l 5
150.197 303.543 m 4
179.586 430.888 m 5
 106.086 303.795 l 5
 69.7734 215.388 l 5
 106.086 127.092 l 5
 179.586 0 l 5
 108.886 0 l 5
 21.0859 215.388 l 5
 108.886 430.888 l 5
 179.586 430.888 l 5
179.586 430.888 m 4
245.649 99.8438 m 5x2f80
 245.649 156.543 l 5
 282.649 156.543 l 5x2f80
 282.649 138.043 l 5
 306.258 137.344 l 5
 306.258 167.248 l 5
 264.758 167.248 l 5
 220.354 331.043 l 5
 349.445 331.043 l 5
 349.445 286.64 l 5
 289.649 294.043 l 5
 273.854 294.043 l 5
 296.354 204.344 l 5
 350.649 204.436 l 5
 343.258 144.543 l 5
 343.258 99.8438 l 5x1f80
 245.649 99.8438 l 5x2f80
245.649 99.8438 m 4
EndSplineSet
Validated: 1
EndChar

StartChar: uniE9FC
Encoding: 59900 59900 254
Width: 571
VWidth: 0
Flags: W
HStem: 0 21G<100.722 179.578 391.422 470.278> 0 21G<100.722 179.578 391.422 470.278> 99.5 33.8877<284.706 293.234> 203.5 37.6875<284.706 295.83> 293.688 37.7002<284.706 329.206> 410.888 20G<100.726 179.578 391.422 470.274>
VStem: 247.594 37.1123<133.388 203.5 241.188 293.688> 295.83 34.1719<133.388 203.5>
LayerCount: 2
Fore
SplineSet
241.002 331.388 m 5x3f
 329.206 331.388 l 5
 329.206 293.688 l 5
 284.706 293.688 l 5
 284.706 241.188 l 5
 330.002 241.295 l 5
 330.002 99.5 l 5
 241.002 99.5 l 5
 247.594 158.5 l 5
 247.594 272.592 l 5
 241.002 331.388 l 5x3f
284.706 203.5 m 5
 284.706 133.388 l 5
 293.234 133.388 l 5
 295.83 155.188 l 5
 295.83 203.5 l 5
 284.706 203.5 l 5
284.706 203.5 m 4
420.814 303.543 m 5
 456.814 215.043 l 5
 421.109 127.344 l 5
 372.002 127.344 l 5
 408.109 215.043 l 5
 371.814 303.436 l 5
 420.814 303.543 l 5
420.814 303.543 m 4
391.422 430.888 m 5
 462.126 430.888 l 5
 549.922 215.388 l 5
 462.126 0 l 5
 391.422 0 l 5xbf
 464.922 127.092 l 5
 501.218 215.388 l 5
 464.922 303.795 l 5
 391.422 430.888 l 5
391.422 430.888 m 4
150.189 303.543 m 5
 199.189 303.436 l 5
 162.891 215.043 l 5
 199.002 127.344 l 5
 149.891 127.344 l 5
 114.189 215.043 l 5
 150.189 303.543 l 5
150.189 303.543 m 4
179.578 430.888 m 5
 106.078 303.795 l 5
 69.7812 215.388 l 5
 106.078 127.092 l 5
 179.578 0 l 5
 108.874 0 l 5
 21.0781 215.388 l 5
 108.874 430.888 l 5
 179.578 430.888 l 5
179.578 430.888 m 4
EndSplineSet
Validated: 1
EndChar

StartChar: uniE9FD
Encoding: 59901 59901 255
Width: 571
VWidth: 0
Flags: W
HStem: 0 21G<100.729 179.586 391.414 470.271> 0 21G<100.729 179.586 391.414 470.271> 294.14 37<213.445 303.445> 410.888 20G<100.734 179.586 391.414 470.266>
LayerCount: 2
Fore
SplineSet
213.445 331.14 m 5x30
 359.945 331.14 l 5
 265.054 99.748 l 5
 211.054 99.748 l 5
 254.242 174.344 l 5
 303.445 294.14 l 5
 213.445 294.14 l 5
 213.445 331.14 l 5x30
213.445 331.14 m 4
420.807 303.543 m 5
 456.807 215.043 l 5
 421.102 127.344 l 5
 372.006 127.344 l 5
 408.102 215.043 l 5
 371.807 303.436 l 5
 420.807 303.543 l 5
420.807 303.543 m 4
391.414 430.888 m 5
 462.118 430.888 l 5
 549.914 215.388 l 5
 462.118 0 l 5
 391.414 0 l 5xb0
 464.914 127.092 l 5
 501.227 215.388 l 5
 464.914 303.795 l 5
 391.414 430.888 l 5
391.414 430.888 m 4
150.193 303.543 m 5
 199.193 303.436 l 5
 162.898 215.043 l 5
 198.994 127.344 l 5
 149.898 127.344 l 5
 114.193 215.043 l 5
 150.193 303.543 l 5
150.193 303.543 m 4
179.586 430.888 m 5
 106.086 303.795 l 5
 69.7734 215.388 l 5
 106.086 127.092 l 5
 179.586 0 l 5
 108.882 0 l 5
 21.0859 215.388 l 5
 108.882 430.888 l 5
 179.586 430.888 l 5
179.586 430.888 m 4
EndSplineSet
Validated: 1
EndChar

